<svg width="276" height="14" viewBox="0 0 276 14" fill="none" xmlns="http://www.w3.org/2000/svg">
<path d="M3.82031 11.1992C5.61914 11.1992 6.95508 10.1973 7.23633 8.65039V8.63867H6.16992L6.1582 8.65039C5.89453 9.62305 4.99805 10.2266 3.82031 10.2266C2.19141 10.2266 1.17188 8.89648 1.17188 6.78125V6.76953C1.17188 4.6543 2.19141 3.31836 3.81445 3.31836C4.98047 3.31836 5.88281 4.00391 6.16406 5.08789L6.16992 5.09961H7.23047L7.23633 5.08789C6.98438 3.46484 5.5957 2.3457 3.81445 2.3457C1.51758 2.3457 0.0878906 4.04492 0.0878906 6.76953V6.78125C0.0878906 9.5 1.52344 11.1992 3.82031 11.1992ZM11.4727 11.1113C13.2715 11.1113 14.3848 9.86914 14.3848 7.84766V7.83594C14.3848 5.80859 13.2715 4.57227 11.4727 4.57227C9.67383 4.57227 8.56055 5.80859 8.56055 7.83594V7.84766C8.56055 9.86914 9.67383 11.1113 11.4727 11.1113ZM11.4727 10.209C10.2773 10.209 9.60352 9.33594 9.60352 7.84766V7.83594C9.60352 6.3418 10.2773 5.47461 11.4727 5.47461C12.668 5.47461 13.3418 6.3418 13.3418 7.83594V7.84766C13.3418 9.33594 12.668 10.209 11.4727 10.209ZM15.9668 13.1094H16.9863V10.0039H17.0801C17.4258 10.6777 18.1816 11.1113 19.0488 11.1113C20.6543 11.1113 21.6973 9.82812 21.6973 7.84766V7.83594C21.6973 5.86719 20.6484 4.57227 19.0488 4.57227C18.1699 4.57227 17.4668 4.98828 17.0801 5.69141H16.9863V4.68359H15.9668V13.1094ZM18.8145 10.209C17.666 10.209 16.9629 9.30664 16.9629 7.84766V7.83594C16.9629 6.37695 17.666 5.47461 18.8145 5.47461C19.9688 5.47461 20.6543 6.36523 20.6543 7.83594V7.84766C20.6543 9.31836 19.9688 10.209 18.8145 10.209ZM23.5957 13.2148C24.7148 13.2148 25.2363 12.8047 25.7578 11.3867L28.2246 4.68359H27.1523L25.4238 9.88086H25.3301L23.5957 4.68359H22.5059L24.8438 11.0059L24.7266 11.3809C24.498 12.1074 24.1465 12.3711 23.5664 12.3711C23.4258 12.3711 23.2676 12.3652 23.1445 12.3418V13.1797C23.2852 13.2031 23.4609 13.2148 23.5957 13.2148ZM29.5723 11H30.5918V7.08594C30.5918 6.16016 31.2832 5.54492 32.2559 5.54492C32.4785 5.54492 32.6719 5.56836 32.8828 5.60352V4.61328C32.7832 4.5957 32.5664 4.57227 32.373 4.57227C31.5176 4.57227 30.9258 4.95898 30.6855 5.62109H30.5918V4.68359H29.5723V11ZM34.6816 3.46484C35.0684 3.46484 35.3848 3.14844 35.3848 2.76172C35.3848 2.375 35.0684 2.05859 34.6816 2.05859C34.2949 2.05859 33.9785 2.375 33.9785 2.76172C33.9785 3.14844 34.2949 3.46484 34.6816 3.46484ZM34.166 11H35.1855V4.68359H34.166V11ZM39.709 13.2266C41.4316 13.2266 42.5215 12.3242 42.5215 10.9121V4.68359H41.502V5.72656H41.4316C41.0449 5.01172 40.3535 4.57227 39.4629 4.57227C37.8105 4.57227 36.791 5.85547 36.791 7.625V7.63672C36.791 9.40625 37.8047 10.6719 39.4395 10.6719C40.3066 10.6719 41.0215 10.2793 41.4199 9.58203H41.5137V10.8594C41.5137 11.791 40.8398 12.3242 39.709 12.3242C38.8008 12.3242 38.2383 11.9844 38.127 11.5039L38.1211 11.498H37.0664L37.0547 11.5039C37.2129 12.541 38.1855 13.2266 39.709 13.2266ZM39.6621 9.76953C38.4902 9.76953 37.834 8.89062 37.834 7.63672V7.625C37.834 6.37109 38.4902 5.47461 39.6621 5.47461C40.8281 5.47461 41.5371 6.37109 41.5371 7.625V7.63672C41.5371 8.89062 40.834 9.76953 39.6621 9.76953ZM44.4785 11H45.498V7.26172C45.498 6.1543 46.1367 5.47461 47.1445 5.47461C48.1523 5.47461 48.6211 6.01953 48.6211 7.15625V11H49.6406V6.91016C49.6406 5.41016 48.8496 4.57227 47.4316 4.57227C46.5 4.57227 45.9082 4.96484 45.5918 5.63281H45.498V2.17578H44.4785V11ZM53.7305 11.0469C53.9297 11.0469 54.123 11.0234 54.3223 10.9883V10.1211C54.1348 10.1387 54.0352 10.1445 53.8535 10.1445C53.1973 10.1445 52.9395 9.8457 52.9395 9.10156V5.52734H54.3223V4.68359H52.9395V3.04883H51.8848V4.68359H50.8887V5.52734H51.8848V9.35938C51.8848 10.5664 52.4297 11.0469 53.7305 11.0469ZM68.25 6.75195C68.25 4.17969 66.2285 2.1582 63.6562 2.1582H63.6152C61.043 2.1582 59.0215 4.17969 59.0215 6.75195V6.79297C59.0215 9.36523 61.043 11.3867 63.6152 11.3867H63.6562C66.2285 11.3867 68.25 9.36523 68.25 6.79297V6.75195ZM67.4766 6.75195V6.79297C67.4766 8.93164 65.7949 10.6133 63.6562 10.6133H63.6152C61.4766 10.6133 59.7949 8.93164 59.7949 6.79297V6.75195C59.7949 4.61328 61.4766 2.93164 63.6152 2.93164H63.6562C65.7949 2.93164 67.4766 4.61328 67.4766 6.75195ZM63.7148 8.9375C64.7227 8.9375 65.4434 8.3457 65.5547 7.47852V7.44336H64.7637L64.7578 7.4668C64.6523 7.90625 64.2539 8.19336 63.7148 8.19336C62.9883 8.19336 62.543 7.64844 62.543 6.77539V6.76953C62.543 5.89062 62.9883 5.35156 63.709 5.35156C64.248 5.35156 64.6582 5.66797 64.7637 6.125V6.14258H65.5547V6.10742C65.4551 5.23438 64.7051 4.60742 63.709 4.60742C62.4785 4.60742 61.7168 5.43359 61.7168 6.76953V6.77539C61.7168 8.11133 62.4785 8.9375 63.7148 8.9375ZM73.3242 11H78.7969V10.0508H74.7891V9.95703L76.7109 7.9707C78.2402 6.39453 78.6562 5.69141 78.6562 4.72461V4.71289C78.6562 3.34766 77.5254 2.3457 76.0488 2.3457C74.4316 2.3457 73.2715 3.42383 73.2656 4.92383L73.2773 4.92969L74.2852 4.93555L74.291 4.92383C74.291 3.92773 74.9648 3.26562 75.9785 3.26562C76.9746 3.26562 77.5781 3.93359 77.5781 4.82422V4.83594C77.5781 5.57422 77.2617 6.01367 76.1836 7.17969L73.3242 10.2734V11ZM83.3965 11.1992C85.2656 11.1992 86.3906 9.49414 86.3906 6.77539V6.76367C86.3906 4.04492 85.2656 2.3457 83.3965 2.3457C81.5273 2.3457 80.4141 4.04492 80.4141 6.76367V6.77539C80.4141 9.49414 81.5273 11.1992 83.3965 11.1992ZM83.3965 10.2793C82.1836 10.2793 81.4746 8.93164 81.4746 6.77539V6.76367C81.4746 4.60742 82.1836 3.27148 83.3965 3.27148C84.6094 3.27148 85.3301 4.60742 85.3301 6.76367V6.77539C85.3301 8.93164 84.6094 10.2793 83.3965 10.2793ZM88.125 11H93.5977V10.0508H89.5898V9.95703L91.5117 7.9707C93.041 6.39453 93.457 5.69141 93.457 4.72461V4.71289C93.457 3.34766 92.3262 2.3457 90.8496 2.3457C89.2324 2.3457 88.0723 3.42383 88.0664 4.92383L88.0781 4.92969L89.0859 4.93555L89.0918 4.92383C89.0918 3.92773 89.7656 3.26562 90.7793 3.26562C91.7754 3.26562 92.3789 3.93359 92.3789 4.82422V4.83594C92.3789 5.57422 92.0625 6.01367 90.9844 7.17969L88.125 10.2734V11ZM97.4355 11H98.4902V2.54492H97.4414L95.1914 4.16211V5.27539L97.3418 3.7168H97.4355V11ZM111.429 8.216C111.057 8.9 110.529 9.44 109.833 9.86C108.933 9.644 107.985 9.44 107.037 9.26C107.277 8.936 107.529 8.576 107.781 8.216H111.429ZM105.669 4.016H107.481V5.636H105.669V4.016ZM108.333 2.276H110.265V3.284H108.333V2.276ZM113.109 4.016V5.636H111.117V4.016H113.109ZM108.333 5.636V4.016H110.265V5.636H108.333ZM114.789 8.216V7.472H108.285C108.525 7.124 108.753 6.776 108.957 6.452L108.633 6.368H113.985V3.284H111.117V2.276H114.489V1.484H104.241V2.276H107.481V3.284H104.829V6.368H107.985C107.769 6.716 107.517 7.088 107.265 7.472H103.953V8.216H106.749C106.293 8.852 105.849 9.476 105.477 9.944L106.317 10.232L106.569 9.908C107.301 10.052 108.021 10.208 108.729 10.376C107.541 10.808 106.029 11.024 104.121 11.132C104.265 11.324 104.397 11.648 104.457 11.9C106.833 11.732 108.657 11.372 110.001 10.688C111.525 11.084 112.869 11.528 113.877 11.936L114.417 11.216C113.493 10.868 112.269 10.484 110.901 10.124C111.561 9.62 112.053 8.996 112.413 8.216H114.789ZM126.741 6.788V5.912H121.797V3.644H125.853V2.768H121.797V0.956H120.873V2.768H116.961V3.644H120.873V5.912H116.037V6.788H119.793C119.373 7.928 118.713 9.392 118.137 10.424C117.525 10.448 116.961 10.472 116.457 10.484L116.589 11.42C118.761 11.312 122.049 11.168 125.169 10.988C125.397 11.36 125.601 11.708 125.745 12.008L126.621 11.54C126.081 10.496 124.917 8.924 123.849 7.76L123.021 8.156C123.537 8.744 124.101 9.44 124.581 10.136C122.721 10.232 120.813 10.316 119.145 10.388C119.745 9.332 120.405 7.952 120.921 6.788H126.741ZM130.173 2.6V8.096H128.985V2.6H130.173ZM130.905 8.888V1.796H128.265V9.872H128.985V8.888H130.905ZM132.957 7.208C133.041 6.464 133.065 5.756 133.065 5.132H134.061C134.049 5.924 134.049 6.608 134.037 7.208H132.957ZM133.065 2.324H134.073L134.061 4.364H133.065V2.324ZM135.201 5.132V4.364H134.805L134.817 2V1.544H131.277V2.324H132.321V4.364H131.421V5.132H132.321C132.321 5.768 132.297 6.476 132.213 7.208H131.325V7.988H132.105C131.877 9.188 131.433 10.388 130.581 11.384C130.737 11.492 131.025 11.78 131.121 11.936C132.093 10.82 132.597 9.392 132.837 7.988H134.025C133.989 9.86 133.917 10.652 133.797 10.88C133.701 11.084 133.629 11.12 133.473 11.108C133.269 11.108 132.897 11.108 132.477 11.084C132.597 11.3 132.669 11.648 132.681 11.876C133.101 11.9 133.509 11.9 133.797 11.852C134.109 11.816 134.301 11.732 134.481 11.396C134.673 11.084 134.745 10.172 134.781 7.988H135.213V7.208H134.793C134.793 6.596 134.805 5.912 134.805 5.132H135.201ZM138.189 1.508L138.069 1.544H135.609V11.912H136.377V2.3H137.793C137.565 3.248 137.205 4.592 136.869 5.624C137.685 6.692 137.853 7.628 137.853 8.36C137.853 8.804 137.805 9.2 137.649 9.344C137.541 9.428 137.421 9.452 137.277 9.452C137.133 9.464 136.917 9.464 136.689 9.44C136.809 9.668 136.869 10.004 136.881 10.208C137.121 10.232 137.373 10.22 137.577 10.196C137.805 10.16 138.021 10.1 138.165 9.98C138.489 9.728 138.609 9.164 138.609 8.468C138.597 7.628 138.417 6.656 137.589 5.54C137.973 4.448 138.405 2.972 138.741 1.832L138.189 1.508ZM144.213 8.06C144.093 7.904 143.769 7.52 143.433 7.124C143.745 6.764 144.105 6.284 144.429 5.84L143.889 5.432C143.685 5.792 143.349 6.296 143.049 6.68C142.881 6.488 142.725 6.308 142.593 6.164C143.145 5.324 143.625 4.412 143.949 3.464L143.481 3.152L143.313 3.188H142.449V1.028H141.597V3.188H140.049V4.004H142.917C142.209 5.636 140.925 7.244 139.725 8.156C139.857 8.3 140.085 8.708 140.181 8.924C140.661 8.528 141.153 8.036 141.633 7.46V11.912H142.485V7.028C142.929 7.592 143.457 8.3 143.685 8.672L144.213 8.06ZM145.341 5.948V4.52H147.021V5.948H145.341ZM145.341 2.36H147.021V3.776H145.341V2.36ZM149.565 3.776H147.873V2.36H149.565V3.776ZM149.565 5.948H147.873V4.52H149.565V5.948ZM147.873 10.724V8.936H150.477V8.132H147.873V6.74H150.405V1.568H144.513V6.74H147.021V8.132H144.453V8.936H147.021V10.724H143.745V11.552H150.861V10.724H147.873ZM152.961 7.052V5.168H154.005V7.052H152.961ZM154.005 2.54V4.4H152.961V2.54H154.005ZM155.841 4.4H154.761V2.54H155.841V4.4ZM154.761 7.052V5.168H155.841V7.052H154.761ZM155.841 7.82V8.336H156.549V1.784H152.277V8.492H152.961V7.82H154.005V11.912H154.761V7.82H155.841ZM156.345 11.54C156.921 10.928 157.233 9.92 157.425 9.02L156.741 8.804C156.573 9.644 156.225 10.604 155.685 11.168L156.345 11.54ZM157.845 9.176C158.013 9.824 158.157 10.652 158.169 11.192L158.805 11.084C158.781 10.544 158.637 9.716 158.445 9.068L157.845 9.176ZM159.081 9.044C159.357 9.584 159.609 10.304 159.717 10.76L160.305 10.58C160.185 10.112 159.921 9.428 159.621 8.888L159.081 9.044ZM161.625 9.872C161.469 9.524 161.109 8.996 160.761 8.6L160.281 8.84C160.593 9.236 160.941 9.788 161.097 10.136L161.625 9.872ZM161.121 2.648V3.464H157.965V2.648H161.121ZM157.965 4.904V4.076H161.121V4.904H157.965ZM162.885 6.932V6.248H157.965V5.552H161.925V2.012H159.693C159.837 1.748 159.981 1.436 160.125 1.124L159.165 0.956C159.093 1.256 158.949 1.664 158.817 2.012H157.149V8.312H161.829C161.709 10.172 161.565 10.892 161.361 11.096C161.265 11.192 161.169 11.216 160.965 11.216C160.785 11.216 160.281 11.204 159.753 11.156C159.861 11.348 159.945 11.66 159.957 11.876C160.521 11.912 161.061 11.912 161.337 11.9C161.649 11.864 161.853 11.792 162.045 11.588C162.357 11.252 162.501 10.352 162.657 7.988C162.681 7.868 162.693 7.64 162.693 7.64H157.965V6.932H162.885ZM165.146 11.0586C165.568 11.0586 165.908 10.7129 165.908 10.2969C165.908 9.875 165.568 9.53516 165.146 9.53516C164.73 9.53516 164.385 9.875 164.385 10.2969C164.385 10.7129 164.73 11.0586 165.146 11.0586ZM170.707 11H171.814L172.664 8.58008H176.027L176.877 11H177.984L174.867 2.54492H173.824L170.707 11ZM174.299 3.91016H174.393L175.717 7.68359H172.975L174.299 3.91016ZM179.396 11H180.416V2.17578H179.396V11ZM182.432 11H183.451V2.17578H182.432V11ZM188.783 11H189.803V7.08594C189.803 6.16016 190.494 5.54492 191.467 5.54492C191.689 5.54492 191.883 5.56836 192.094 5.60352V4.61328C191.994 4.5957 191.777 4.57227 191.584 4.57227C190.729 4.57227 190.137 4.95898 189.896 5.62109H189.803V4.68359H188.783V11ZM193.893 3.46484C194.279 3.46484 194.596 3.14844 194.596 2.76172C194.596 2.375 194.279 2.05859 193.893 2.05859C193.506 2.05859 193.189 2.375 193.189 2.76172C193.189 3.14844 193.506 3.46484 193.893 3.46484ZM193.377 11H194.396V4.68359H193.377V11ZM198.92 13.2266C200.643 13.2266 201.732 12.3242 201.732 10.9121V4.68359H200.713V5.72656H200.643C200.256 5.01172 199.564 4.57227 198.674 4.57227C197.021 4.57227 196.002 5.85547 196.002 7.625V7.63672C196.002 9.40625 197.016 10.6719 198.65 10.6719C199.518 10.6719 200.232 10.2793 200.631 9.58203H200.725V10.8594C200.725 11.791 200.051 12.3242 198.92 12.3242C198.012 12.3242 197.449 11.9844 197.338 11.5039L197.332 11.498H196.277L196.266 11.5039C196.424 12.541 197.396 13.2266 198.92 13.2266ZM198.873 9.76953C197.701 9.76953 197.045 8.89062 197.045 7.63672V7.625C197.045 6.37109 197.701 5.47461 198.873 5.47461C200.039 5.47461 200.748 6.37109 200.748 7.625V7.63672C200.748 8.89062 200.045 9.76953 198.873 9.76953ZM203.689 11H204.709V7.26172C204.709 6.1543 205.348 5.47461 206.355 5.47461C207.363 5.47461 207.832 6.01953 207.832 7.15625V11H208.852V6.91016C208.852 5.41016 208.061 4.57227 206.643 4.57227C205.711 4.57227 205.119 4.96484 204.803 5.63281H204.709V2.17578H203.689V11ZM212.941 11.0469C213.141 11.0469 213.334 11.0234 213.533 10.9883V10.1211C213.346 10.1387 213.246 10.1445 213.064 10.1445C212.408 10.1445 212.15 9.8457 212.15 9.10156V5.52734H213.533V4.68359H212.15V3.04883H211.096V4.68359H210.1V5.52734H211.096V9.35938C211.096 10.5664 211.641 11.0469 212.941 11.0469ZM217.107 11.1113C218.543 11.1113 219.639 10.332 219.639 9.20703V9.19531C219.639 8.29297 219.064 7.77734 217.875 7.49023L216.902 7.25586C216.158 7.07422 215.842 6.80469 215.842 6.37695V6.36523C215.842 5.80859 216.393 5.42188 217.143 5.42188C217.904 5.42188 218.396 5.76758 218.531 6.26562H219.533C219.393 5.23438 218.473 4.57227 217.148 4.57227C215.807 4.57227 214.799 5.36328 214.799 6.41211V6.41797C214.799 7.32617 215.332 7.8418 216.516 8.12305L217.494 8.35742C218.273 8.54492 218.596 8.84375 218.596 9.27148V9.2832C218.596 9.85742 217.992 10.2617 217.143 10.2617C216.334 10.2617 215.83 9.91602 215.66 9.38867H214.617C214.734 10.4316 215.701 11.1113 217.107 11.1113ZM224.596 11H225.615V7.08594C225.615 6.16016 226.307 5.54492 227.279 5.54492C227.502 5.54492 227.695 5.56836 227.906 5.60352V4.61328C227.807 4.5957 227.59 4.57227 227.396 4.57227C226.541 4.57227 225.949 4.95898 225.709 5.62109H225.615V4.68359H224.596V11ZM231.568 11.1113C233.057 11.1113 233.959 10.2676 234.176 9.41211L234.188 9.36523H233.168L233.145 9.41797C232.975 9.79883 232.447 10.2031 231.592 10.2031C230.467 10.2031 229.746 9.44141 229.717 8.13477H234.264V7.73633C234.264 5.84961 233.221 4.57227 231.504 4.57227C229.787 4.57227 228.674 5.9082 228.674 7.85938V7.86523C228.674 9.8457 229.764 11.1113 231.568 11.1113ZM231.498 5.48047C232.43 5.48047 233.121 6.07227 233.227 7.32031H229.734C229.846 6.11914 230.561 5.48047 231.498 5.48047ZM238.014 11.1113C239.449 11.1113 240.545 10.332 240.545 9.20703V9.19531C240.545 8.29297 239.971 7.77734 238.781 7.49023L237.809 7.25586C237.064 7.07422 236.748 6.80469 236.748 6.37695V6.36523C236.748 5.80859 237.299 5.42188 238.049 5.42188C238.811 5.42188 239.303 5.76758 239.438 6.26562H240.439C240.299 5.23438 239.379 4.57227 238.055 4.57227C236.713 4.57227 235.705 5.36328 235.705 6.41211V6.41797C235.705 7.32617 236.238 7.8418 237.422 8.12305L238.4 8.35742C239.18 8.54492 239.502 8.84375 239.502 9.27148V9.2832C239.502 9.85742 238.898 10.2617 238.049 10.2617C237.24 10.2617 236.736 9.91602 236.566 9.38867H235.523C235.641 10.4316 236.607 11.1113 238.014 11.1113ZM244.705 11.1113C246.193 11.1113 247.096 10.2676 247.312 9.41211L247.324 9.36523H246.305L246.281 9.41797C246.111 9.79883 245.584 10.2031 244.729 10.2031C243.604 10.2031 242.883 9.44141 242.854 8.13477H247.4V7.73633C247.4 5.84961 246.357 4.57227 244.641 4.57227C242.924 4.57227 241.811 5.9082 241.811 7.85938V7.86523C241.811 9.8457 242.9 11.1113 244.705 11.1113ZM244.635 5.48047C245.566 5.48047 246.258 6.07227 246.363 7.32031H242.871C242.982 6.11914 243.697 5.48047 244.635 5.48047ZM248.982 11H250.002V7.08594C250.002 6.16016 250.693 5.54492 251.666 5.54492C251.889 5.54492 252.082 5.56836 252.293 5.60352V4.61328C252.193 4.5957 251.977 4.57227 251.783 4.57227C250.928 4.57227 250.336 4.95898 250.096 5.62109H250.002V4.68359H248.982V11ZM255.34 11H256.371L258.709 4.68359H257.631L255.902 9.88672H255.809L254.08 4.68359H253.002L255.34 11ZM262.4 11.1113C263.889 11.1113 264.791 10.2676 265.008 9.41211L265.02 9.36523H264L263.977 9.41797C263.807 9.79883 263.279 10.2031 262.424 10.2031C261.299 10.2031 260.578 9.44141 260.549 8.13477H265.096V7.73633C265.096 5.84961 264.053 4.57227 262.336 4.57227C260.619 4.57227 259.506 5.9082 259.506 7.85938V7.86523C259.506 9.8457 260.596 11.1113 262.4 11.1113ZM262.33 5.48047C263.262 5.48047 263.953 6.07227 264.059 7.32031H260.566C260.678 6.11914 261.393 5.48047 262.33 5.48047ZM269.01 11.1113C269.889 11.1113 270.592 10.6953 270.979 9.99219H271.072V11H272.092V2.17578H271.072V5.67969H270.979C270.633 5.00586 269.877 4.57227 269.01 4.57227C267.404 4.57227 266.361 5.85547 266.361 7.83594V7.84766C266.361 9.81641 267.41 11.1113 269.01 11.1113ZM269.244 10.209C268.09 10.209 267.404 9.31836 267.404 7.84766V7.83594C267.404 6.36523 268.09 5.47461 269.244 5.47461C270.393 5.47461 271.096 6.37695 271.096 7.83594V7.84766C271.096 9.30664 270.393 10.209 269.244 10.209ZM274.881 11.0586C275.303 11.0586 275.643 10.7129 275.643 10.2969C275.643 9.875 275.303 9.53516 274.881 9.53516C274.465 9.53516 274.119 9.875 274.119 10.2969C274.119 10.7129 274.465 11.0586 274.881 11.0586Z" fill="#4F4F4F"/>
</svg>
