<svg width="13" height="13" viewBox="0 0 13 13" fill="none" xmlns="http://www.w3.org/2000/svg">
<path d="M5.04741 4.63198L6.48622 4.64149C6.48622 4.64149 7.10101 3.7914 7.82042 3.79616C8.43233 3.84266 9.03576 3.96323 9.61647 4.15505C9.61647 4.15505 10.2451 5.25361 10.7977 5.36404C11.3504 5.47447 12.7368 5.05655 12.8701 5.77813C13.0033 6.49972 8.52307 13.9441 3.99249 12.8998C-0.538087 11.8555 0.0717877 11.6994 0.000733102 10.0173C-0.0703215 8.33514 5.04741 4.63198 5.04741 4.63198Z" fill="#F7931E"/>
<path d="M12.7149 2.49994C12.7149 2.58206 12.6941 2.66293 12.6542 2.7355C12.6144 2.80808 12.5568 2.87016 12.4864 2.91632C12.4159 2.96247 12.3349 2.9913 12.2503 3.00031C12.1657 3.00932 12.08 2.99822 12.0009 2.96799C11.9217 2.93775 11.8515 2.88929 11.7962 2.82684C11.7409 2.76439 11.7023 2.68984 11.6838 2.60969C11.6652 2.52955 11.6672 2.44624 11.6897 2.36703C11.7122 2.28782 11.7544 2.21513 11.8127 2.15528C12.0514 2.05729 12.3203 2.05323 12.562 2.14398C12.6106 2.19067 12.6491 2.24615 12.6753 2.30723C12.7015 2.36832 12.715 2.43382 12.7149 2.49994Z" fill="#333333" stroke="#333333" stroke-width="0.5"/>
<path d="M5.02197 1.4212C5.02197 1.50332 5.00114 1.58421 4.96131 1.65679C4.92147 1.72936 4.86385 1.79142 4.79343 1.83758C4.72302 1.88374 4.64198 1.91259 4.55736 1.92159C4.47275 1.9306 4.38713 1.91949 4.30798 1.88925C4.22883 1.85901 4.15855 1.81056 4.10327 1.74811C4.04799 1.68565 4.00939 1.6111 3.99083 1.53096C3.97228 1.45081 3.97433 1.3675 3.99681 1.28829C4.01929 1.20909 4.06151 1.1364 4.1198 1.07655C4.35846 0.978554 4.62738 0.974495 4.86911 1.06525C4.91764 1.11194 4.95614 1.16743 4.98237 1.22852C5.0086 1.28961 5.02206 1.35508 5.02197 1.4212Z" fill="#333333" stroke="#333333" stroke-width="0.5"/>
<path opacity="0.3" d="M5.41496 5.95547L4.82683 6.40935" stroke="#4D4D4D" stroke-width="0.75" stroke-miterlimit="10"/>
<path opacity="0.3" d="M9.2966 6.06897V6.97671" stroke="#4D4D4D" stroke-width="0.75" stroke-miterlimit="10"/>
</svg>
