<svg width="121" height="16" viewBox="0 0 121 16" fill="none" xmlns="http://www.w3.org/2000/svg">
<g clip-path="url(#clip0_35:176)">
<path d="M5.04741 5.63198L6.48622 5.64149C6.48622 5.64149 7.10101 4.7914 7.82042 4.79616C8.43233 4.84266 9.03576 4.96323 9.61647 5.15505C9.61647 5.15505 10.2451 6.25361 10.7977 6.36404C11.3504 6.47447 12.7368 6.05655 12.8701 6.77813C13.0033 7.49972 8.52307 14.9441 3.99249 13.8998C-0.538087 12.8555 0.0717877 12.6994 0.000733102 11.0173C-0.0703215 9.33514 5.04741 5.63198 5.04741 5.63198Z" fill="#F7931E"/>
<path d="M12.7149 3.49994C12.7149 3.58206 12.6941 3.66293 12.6542 3.7355C12.6144 3.80808 12.5568 3.87016 12.4864 3.91632C12.4159 3.96247 12.3349 3.9913 12.2503 4.00031C12.1657 4.00932 12.08 3.99822 12.0009 3.96799C11.9217 3.93775 11.8515 3.88929 11.7962 3.82684C11.7409 3.76439 11.7023 3.68984 11.6838 3.60969C11.6652 3.52955 11.6672 3.44624 11.6897 3.36703C11.7122 3.28782 11.7544 3.21513 11.8127 3.15528C12.0514 3.05729 12.3203 3.05323 12.562 3.14398C12.6106 3.19067 12.6491 3.24615 12.6753 3.30723C12.7015 3.36832 12.715 3.43382 12.7149 3.49994Z" fill="#333333" stroke="#333333" stroke-width="0.5"/>
<path d="M5.02197 2.4212C5.02197 2.50332 5.00114 2.58421 4.96131 2.65679C4.92147 2.72936 4.86385 2.79142 4.79343 2.83758C4.72302 2.88374 4.64198 2.91259 4.55736 2.92159C4.47275 2.9306 4.38713 2.91949 4.30798 2.88925C4.22883 2.85901 4.15855 2.81056 4.10327 2.74811C4.04799 2.68565 4.00939 2.6111 3.99083 2.53096C3.97228 2.45081 3.97433 2.3675 3.99681 2.28829C4.01929 2.20909 4.06151 2.1364 4.1198 2.07655C4.35846 1.97855 4.62738 1.97449 4.86911 2.06525C4.91764 2.11194 4.95614 2.16743 4.98237 2.22852C5.0086 2.28961 5.02206 2.35508 5.02197 2.4212Z" fill="#333333" stroke="#333333" stroke-width="0.5"/>
<path opacity="0.3" d="M5.41496 6.95547L4.82683 7.40935" stroke="#4D4D4D" stroke-width="0.75" stroke-miterlimit="10"/>
<path opacity="0.3" d="M9.2966 7.06897V7.97671" stroke="#4D4D4D" stroke-width="0.75" stroke-miterlimit="10"/>
<path d="M41.8761 0.0923956H26.9429C26.7199 0.066769 26.4948 0.118103 26.3074 0.237303C26.1671 0.435092 26.0895 0.667907 26.0839 0.907446L26.0128 1.5596C25.9749 1.7511 26.0064 1.94933 26.102 2.1211C26.1793 2.19613 26.2734 2.25308 26.3771 2.28761C26.4807 2.32213 26.5912 2.3333 26.7 2.32026H30.3441L30.279 2.91802H26.6349C26.409 2.89699 26.1828 2.95485 25.9974 3.08106C25.8524 3.27662 25.7742 3.51094 25.7739 3.75135L25.3968 7.21101C25.3618 7.40825 25.3923 7.61113 25.4841 7.79064C25.5635 7.86245 25.6587 7.91604 25.7626 7.94741C25.8664 7.97878 25.9764 7.98713 26.0841 7.97181H31.4938L30.7505 8.58755H26.0169C25.7556 8.56939 25.4946 8.62611 25.2666 8.75058C25.172 8.80849 25.0944 8.88887 25.0413 8.98402C24.9882 9.07917 24.9613 9.18589 24.9633 9.29394L24.8843 10.0185C24.8642 10.1142 24.8709 10.2133 24.9038 10.3056C24.9366 10.398 24.9944 10.4802 25.0712 10.5439C25.2846 10.6719 25.5356 10.7292 25.7859 10.7069H28.2843L26.3507 12.2465C25.9772 12.5726 25.8763 12.808 26.0088 12.971C26.2187 13.1466 26.4693 13.2708 26.7395 13.3332L28.5883 13.605L26.4341 13.8949C26.2649 13.9315 26.1045 13.9991 25.9616 14.094C25.8955 14.1378 25.8395 14.1941 25.7968 14.2596C25.7541 14.325 25.7258 14.3981 25.7135 14.4745L25.6246 15.2896C25.611 15.3758 25.6197 15.464 25.6501 15.5462C25.6805 15.6284 25.7316 15.7021 25.7988 15.7605C25.8894 15.8267 25.9943 15.8724 26.1056 15.8943C26.217 15.9162 26.332 15.9139 26.4423 15.8873C27.0998 15.8873 29.2411 15.5431 32.9206 14.873C33.1964 14.858 33.4705 14.8216 33.7402 14.7643L38.8238 15.688C39.0703 15.7386 39.3243 15.7447 39.5732 15.7061C39.7482 15.6517 39.841 15.4889 39.8726 15.199L39.9713 14.2933C39.9885 14.2127 39.9849 14.1292 39.9608 14.0502C39.9366 13.9713 39.8927 13.8992 39.8329 13.8405C39.637 13.7016 39.407 13.6142 39.1655 13.5869L37.5292 13.2608C37.925 13.0214 38.2558 12.6944 38.4941 12.3069C38.7323 11.9193 38.8712 11.4825 38.8992 11.0328L38.9347 10.7069H40.7003C40.9792 10.7196 41.2569 10.6635 41.5071 10.5439C41.5955 10.4842 41.6686 10.4059 41.7209 10.3149C41.7731 10.2238 41.8031 10.1224 41.8085 10.0185L41.8874 9.29396C41.917 9.02228 41.8617 8.84125 41.7025 8.75059C41.4662 8.62803 41.1991 8.57155 40.9313 8.58755H35.4277L36.2086 7.97181H41.0172C41.2528 7.99608 41.4889 7.93112 41.6757 7.79064C41.8103 7.62494 41.8852 7.42145 41.8891 7.21101L42.2662 3.75135C42.3037 3.40714 42.2918 3.17172 42.189 3.08106C42.0118 2.95111 41.7891 2.89266 41.5681 2.91804H37.924L37.9891 2.32028H41.6332C41.7451 2.34034 41.8603 2.33524 41.9697 2.30537C42.0792 2.2755 42.1801 2.22165 42.2644 2.14804C42.3488 2.07444 42.4144 1.98305 42.4561 1.88098C42.4979 1.77892 42.5146 1.66895 42.5051 1.55962L42.5762 0.907465C42.6351 0.682414 42.6076 0.444412 42.4989 0.237322C42.3178 0.114662 42.0952 0.0628643 41.8761 0.0923956ZM29.971 5.7438H28.7876L28.8528 5.14602H30.0361L29.971 5.7438ZM33.5938 2.32026H34.7396L34.6744 2.91802H33.5287L33.5938 2.32026ZM33.2858 5.14603H34.4316L34.3664 5.7438H33.2207L33.2858 5.14603ZM34.8735 11.0872C34.8202 11.5764 34.3575 12.0292 33.4877 12.4277L31.3541 12.0111L32.9989 10.7069H34.915L34.8735 11.0872ZM38.8833 5.14603L38.8181 5.7438H37.616L37.6811 5.14603H38.8833Z" fill="#333333"/>
<path d="M60.7753 6.17855H55.2717L55.4 5.00115H59.7391C59.8558 5.01472 59.9742 5.00569 60.0872 4.97458C60.2003 4.94347 60.3058 4.89091 60.3975 4.81998C60.5387 4.65652 60.6203 4.45288 60.6298 4.24035L60.8153 2.53772C60.8507 2.30827 60.8106 2.07391 60.7007 1.86758C60.6183 1.75879 60.4176 1.70443 60.0984 1.70454H55.7593L55.8738 0.653923C55.8841 0.578636 55.8766 0.5021 55.8519 0.429983C55.8273 0.357866 55.7861 0.292018 55.7315 0.237332C55.5992 0.145883 55.4383 0.101121 55.2757 0.110556H52.6458C52.4861 0.0984029 52.3273 0.143547 52.2 0.237332C52.0743 0.343465 51.9972 0.493209 51.9855 0.653923L51.871 1.70454H47.5133C47.2932 1.68291 47.0726 1.74103 46.8945 1.86758C46.7361 2.05737 46.6505 2.29411 46.6524 2.53772L46.4668 4.24035C46.427 4.43955 46.4647 4.6459 46.5727 4.81998C46.6717 4.94676 46.8535 5.00115 47.154 5.00115H51.5117L51.3834 6.17855H45.8611C45.6381 6.15293 45.4128 6.20426 45.2252 6.32345C45.0769 6.51732 44.9985 6.75269 45.0019 6.9936L44.8164 8.69623C44.7718 8.89324 44.8027 9.09914 44.9035 9.27586C44.9829 9.34771 45.0782 9.40132 45.1821 9.43269C45.286 9.46406 45.396 9.47238 45.5037 9.45703H49.8238L44.1789 15.2352C43.9861 15.4526 43.9683 15.6157 44.082 15.7787C44.1449 15.8521 44.2249 15.91 44.3154 15.9477C44.406 15.9855 44.5046 16.0021 44.603 15.996H59.9306C60.0357 15.9991 60.1404 15.9814 60.2381 15.9441C60.3359 15.9067 60.4247 15.8504 60.4991 15.7787C60.5736 15.7077 60.6174 15.612 60.6214 15.5111C60.6254 15.4101 60.5894 15.3115 60.5207 15.2352L58.0061 11.9386C57.7561 11.6488 57.5898 11.4496 57.5058 11.359C57.4363 11.2954 57.3529 11.2478 57.2617 11.2195C57.1705 11.1913 57.0739 11.1832 56.9791 11.1959H54.2928C54.1866 11.1834 54.0788 11.1914 53.9758 11.2194C53.8727 11.2473 53.7765 11.2948 53.6926 11.359C53.5869 11.4676 53.5842 11.6669 53.7047 11.9386L54.5928 13.0979H50.5543L54.1442 9.45703H60.418C60.6596 9.48393 60.9026 9.41894 61.0954 9.27586C61.2299 9.11012 61.3047 8.90665 61.3087 8.69623L61.4942 6.9936C61.53 6.76596 61.4967 6.5332 61.3982 6.32345C61.2972 6.21481 61.0948 6.17855 60.7753 6.17855Z" fill="#333333"/>
<path d="M100.412 0.019874H93.0114C92.7195 0.0031067 92.431 0.0865649 92.1969 0.255441C91.9664 0.469171 91.8331 0.762227 91.8261 1.07049L91.1411 7.35592C91.0439 7.33986 90.9444 7.3428 90.8484 7.36458C90.7525 7.38636 90.662 7.42653 90.5824 7.48269C90.4212 7.67083 90.285 7.87773 90.1772 8.09857L89.7603 8.82311L89.3874 8.62381C90.2897 7.21641 90.8248 5.61908 90.9468 3.96863L91.0297 3.20782C91.0479 3.03167 90.9927 2.85579 90.8763 2.71885C90.8223 2.64885 90.7527 2.59137 90.6727 2.55062C90.5926 2.50986 90.5042 2.48686 90.4138 2.48329H89.4369L89.6304 0.708278C89.6171 0.530861 89.5508 0.36096 89.4394 0.219159C89.3759 0.152047 89.2977 0.0993734 89.2106 0.0649089C89.1234 0.0304444 89.0294 0.0150491 88.9353 0.0198556H87.4512C87.237 0.0123427 87.0278 0.0835817 86.866 0.219159C86.7254 0.352301 86.6285 0.522406 86.5874 0.708278L86.3939 2.48329H85.1731C84.9901 2.50426 84.821 2.58785 84.6964 2.71885C84.5593 2.84964 84.474 3.02267 84.4554 3.20782L84.254 5.05551C84.2403 5.13883 84.2454 5.22403 84.269 5.30528C84.2925 5.38654 84.3339 5.46194 84.3904 5.52635C84.4439 5.58548 84.5103 5.63242 84.5849 5.66376C84.6595 5.69509 84.7404 5.71003 84.8217 5.70752H87.8271C87.709 6.48791 87.3689 7.22147 86.8446 7.82674C86.5928 8.09277 86.2823 8.30089 85.936 8.43571C85.5897 8.57052 85.2164 8.6286 84.8437 8.60567H84.3178C84.1364 8.62069 83.9644 8.69042 83.8264 8.80498C83.6891 8.92025 83.604 9.0828 83.5894 9.25783L83.384 11.1416C83.3688 11.2223 83.3733 11.3052 83.3974 11.3839C83.4214 11.4625 83.4642 11.5346 83.5224 11.5943C83.5785 11.6558 83.6474 11.7053 83.7245 11.7397C83.8016 11.774 83.8854 11.7924 83.9703 11.7936H84.5903C84.8762 11.7907 85.1563 11.7158 85.4028 11.5764L85.0041 15.2352C84.9969 15.4183 85.0571 15.598 85.1741 15.7424C85.2396 15.8175 85.3227 15.8764 85.4166 15.9142C85.5105 15.952 85.6125 15.9676 85.7139 15.9597H87.198C87.3002 15.9627 87.402 15.945 87.4967 15.9075C87.5914 15.8701 87.6768 15.8138 87.7475 15.7424C87.891 15.6011 87.9942 15.4263 88.0471 15.2352L88.4518 11.522L90.3757 12.4819C90.4749 12.4925 90.5752 12.4817 90.6696 12.4504C90.7639 12.4191 90.8499 12.3681 90.9213 12.3009C91.0029 12.2364 91.0701 12.1565 91.1187 12.0662C91.1673 11.9759 91.1964 11.877 91.2042 11.7755L91.3701 10.2541C91.4016 9.96423 91.3818 9.8012 91.3145 9.72867C91.2476 9.67292 91.1851 9.61241 91.1275 9.54765L91.268 9.29395C91.4913 9.41481 91.7458 9.4714 92.0015 9.45699H94.2557L94.1905 10.0547H92.7254C92.5055 10.0361 92.286 10.0939 92.1065 10.2178C91.9482 10.4076 91.8626 10.6443 91.8644 10.8879L91.746 11.9748C91.7062 12.174 91.7439 12.3803 91.8519 12.5544C91.931 12.6211 92.0233 12.6715 92.1232 12.7027C92.2232 12.7338 92.3287 12.745 92.4332 12.7356H93.8983L93.8351 13.3152H91.055C90.8347 13.2905 90.6129 13.3489 90.4362 13.4783C90.2778 13.6681 90.1923 13.9048 90.1941 14.1484L90.0756 15.2351C90.036 15.4288 90.0746 15.6297 90.1835 15.7968C90.2635 15.9236 90.4623 15.9959 90.7629 15.9959H99.1594C99.2777 16.0071 99.3971 15.9952 99.5105 15.961C99.624 15.9268 99.7291 15.871 99.8198 15.7968C99.96 15.64 100.041 15.442 100.05 15.2351L100.168 14.1484C100.227 13.9215 100.192 13.6815 100.072 13.4783C99.9855 13.4125 99.8857 13.3642 99.7791 13.3362C99.6725 13.3082 99.5611 13.301 99.4515 13.3152H96.7277L96.7909 12.7356H98.7822C99.0171 12.7544 99.2511 12.69 99.4403 12.5544C99.5814 12.391 99.663 12.1873 99.6725 11.9748L99.791 10.8879C99.8496 10.6609 99.8152 10.4209 99.695 10.2178C99.6081 10.152 99.5084 10.1037 99.4018 10.0757C99.2952 10.0477 99.1839 10.0406 99.0744 10.0547H97.0831L97.1483 9.45699H99.4025C99.7056 9.47692 100.008 9.40746 100.269 9.25783C100.484 9.04469 100.603 8.75818 100.6 8.46077L101.408 1.05234C101.443 0.91533 101.446 0.772364 101.415 0.634294C101.385 0.496225 101.322 0.366672 101.232 0.255423C101.119 0.16399 100.988 0.0958891 100.847 0.0553639C100.706 0.0148387 100.558 0.00275705 100.412 0.019874ZM94.5439 6.81255H93.8489L93.9279 6.08787H94.6229L94.5439 6.81255ZM94.915 3.40715H94.2201L94.2991 2.68261H94.994L94.915 3.40715ZM98.1127 6.81255H97.4364L97.5154 6.08787H98.1917L98.1127 6.81255ZM98.4839 3.40715H97.8076L97.8866 2.68261H98.5629L98.4839 3.40715Z" fill="#333333"/>
<path d="M119.643 9.18528C119.707 9.19296 119.772 9.18352 119.831 9.15797C119.89 9.13242 119.941 9.09174 119.978 9.04037C120.068 8.84017 120.117 8.62476 120.122 8.40635C120.172 8.14928 120.175 7.88571 120.132 7.62756C120.106 7.57301 120.063 7.52778 120.008 7.49846C119.954 7.46914 119.892 7.45727 119.83 7.46454H113.725L113.774 7.01168H119.184C119.243 7.0149 119.302 7.00516 119.357 6.98319C119.411 6.96123 119.46 6.92763 119.499 6.88491C119.582 6.76013 119.63 6.61653 119.638 6.46832L120.14 1.86753C120.165 1.73854 120.147 1.60509 120.087 1.48706C120.055 1.44342 120.012 1.40869 119.961 1.38643C119.911 1.36416 119.855 1.35515 119.8 1.36028H116.701L116.971 0.780651C117.041 0.620854 117.067 0.445912 117.045 0.273548C117.046 0.23539 117.038 0.197474 117.023 0.162361C117.007 0.127248 116.984 0.0957476 116.955 0.0699879C116.926 0.0442282 116.891 0.0248085 116.853 0.0130309C116.816 0.0012534 116.776 -0.00260388 116.736 0.00171692H115.177C115.112 -0.00321018 115.047 0.00558592 114.987 0.0275143C114.926 0.0494427 114.871 0.0839707 114.825 0.12864C114.703 0.281469 114.608 0.45285 114.545 0.635743L114.203 1.36028H112.268C112.209 1.35709 112.15 1.36683 112.096 1.38879C112.041 1.41075 111.993 1.44436 111.954 1.48706C111.871 1.59858 111.824 1.73075 111.818 1.86753L110.813 11.0872C110.788 11.2161 110.806 11.3495 110.866 11.4676C110.898 11.5112 110.941 11.5459 110.991 11.5682C111.042 11.5905 111.097 11.5995 111.153 11.5943H117.708C117.873 11.6306 117.972 11.7574 117.984 11.9929L117.907 12.6993C117.858 13.1522 117.719 13.3876 117.513 13.3876H117.438L117.334 12.7898C117.286 12.5817 117.227 12.3761 117.156 12.174C117.11 12.0835 117.003 12.0292 116.813 12.0472H116.025C115.942 12.0361 115.858 12.0472 115.782 12.0792C115.705 12.1111 115.64 12.1627 115.592 12.2284C115.536 12.2999 115.498 12.3831 115.482 12.4712C115.466 12.5594 115.472 12.65 115.499 12.7356L115.763 14.2752C115.781 14.4724 115.823 14.667 115.888 14.8548C115.913 14.9635 116.039 15.0179 116.208 15.0179H116.734L116.72 15.1446C116.679 15.362 116.693 15.5859 116.762 15.7968C116.795 15.8626 116.849 15.9169 116.916 15.9525C116.982 15.988 117.059 16.0032 117.134 15.9959H118.412C118.686 16.0112 118.956 15.9272 119.17 15.7605C119.375 15.5231 119.504 15.2338 119.543 14.9273L120.012 10.6162C120.057 10.3332 119.995 10.0442 119.838 9.80117C119.632 9.64506 119.37 9.57349 119.109 9.60187H113.492L113.538 9.18528H119.643ZM114.203 3.08102H117.584L117.535 3.53388H114.154L114.203 3.08102ZM113.994 5.00109H117.375L117.329 5.41768H113.948L113.994 5.00109Z" fill="#333333"/>
<path d="M110.148 9.43889C110.292 9.30283 110.401 9.13508 110.464 8.94992L111.346 0.853219C111.326 0.674231 111.254 0.504509 111.137 0.364101C111.077 0.29255 111 0.235609 110.913 0.197873C110.825 0.160137 110.73 0.142658 110.635 0.146813H105.075C104.964 0.142066 104.853 0.158852 104.749 0.196178C104.645 0.233504 104.549 0.290608 104.469 0.364101C104.321 0.492317 104.223 0.664621 104.19 0.853219L103.308 8.94992C103.296 9.12835 103.358 9.30394 103.48 9.43889C103.549 9.51424 103.635 9.57307 103.732 9.61079C103.829 9.64852 103.934 9.66411 104.038 9.65633H105.597L104.989 15.2352C104.977 15.3266 104.986 15.4196 105.015 15.5073C105.044 15.595 105.094 15.6754 105.159 15.7424C105.229 15.8178 105.315 15.8766 105.412 15.9143C105.509 15.952 105.614 15.9675 105.718 15.9597H106.563C106.665 15.9611 106.766 15.9425 106.861 15.9052C106.955 15.8678 107.041 15.8125 107.113 15.7424C107.262 15.6022 107.371 15.4276 107.431 15.2352L108.039 9.65633H109.598C109.7 9.65762 109.802 9.63902 109.896 9.60165C109.99 9.56429 110.076 9.50894 110.148 9.43889ZM106.026 7.10238H105.519L105.617 6.19667H106.124L106.026 7.10238ZM106.403 3.64256H105.896L105.994 2.737H106.502L106.403 3.64256ZM108.655 7.10238H108.167L108.266 6.19667H108.754L108.655 7.10238ZM109.033 3.64256H108.544L108.643 2.737H109.131L109.033 3.64256Z" fill="#333333"/>
<path d="M113.201 12.7898C113.153 12.5817 113.094 12.3761 113.024 12.1739C112.978 12.0834 112.852 12.0292 112.662 12.0472H110.577C110.509 12.0331 110.439 12.0374 110.373 12.0598C110.308 12.0822 110.25 12.1217 110.206 12.1739C110.078 12.3666 109.973 12.5734 109.895 12.7898L109.277 14.3296C109.207 14.6194 109.205 14.8185 109.272 14.8911C109.322 14.9374 109.382 14.9727 109.448 14.9946C109.514 15.0165 109.583 15.0244 109.652 15.0178H110.535C110.602 15.0267 110.67 15.0159 110.73 14.9868C110.79 14.9577 110.84 14.9117 110.872 14.8548C110.977 14.6682 111.067 14.4745 111.142 14.2752L111.479 13.4239L111.612 14.2752C111.674 14.565 111.727 14.7643 111.755 14.8548C111.8 14.9635 111.907 15.0178 112.075 15.0178H112.958C113.029 15.0243 113.1 15.0163 113.167 14.9945C113.234 14.9726 113.296 14.9374 113.348 14.8911C113.45 14.8185 113.49 14.6194 113.465 14.3296L113.201 12.7898Z" fill="#333333"/>
<path d="M115.267 12.7899C115.22 12.5818 115.16 12.3762 115.09 12.174C115.044 12.0835 114.937 12.0292 114.747 12.0472H113.958C113.876 12.0343 113.791 12.0445 113.714 12.0766C113.638 12.1087 113.572 12.1614 113.525 12.2284C113.432 12.3813 113.393 12.5594 113.414 12.7356L113.697 14.2752C113.715 14.4724 113.757 14.6669 113.821 14.8548C113.847 14.9635 113.954 15.0178 114.142 15.0179H115.006C115.079 15.0258 115.154 15.0185 115.224 14.9967C115.294 14.9748 115.359 14.9389 115.414 14.8911C115.516 14.8186 115.556 14.6194 115.532 14.3296L115.267 12.7899Z" fill="#333333"/>
<path d="M81.4711 0.0651945H77.4078C77.3296 0.0603761 77.2512 0.0725085 77.1785 0.100721C77.1059 0.128934 77.0407 0.172503 76.9877 0.228216C76.8671 0.386294 76.7982 0.575489 76.7897 0.771583L75.2142 15.2261C75.1779 15.4107 75.2059 15.6018 75.2938 15.7695C75.3358 15.8291 75.3932 15.8771 75.4602 15.9089C75.5273 15.9406 75.6018 15.955 75.6763 15.9506H76.8689C76.9487 15.9523 77.028 15.937 77.1009 15.9057C77.1739 15.8743 77.2388 15.8278 77.2909 15.7695C77.4114 15.6114 77.4803 15.4222 77.4887 15.2261L77.7197 13.1069H80.0497C80.1346 13.1181 80.221 13.1073 80.3001 13.0754C80.3791 13.0435 80.4479 12.9918 80.4992 12.9257C80.6054 12.7694 80.6638 12.5873 80.6676 12.4005L81.3427 6.20555C81.3789 6.02663 81.3501 5.84116 81.2612 5.68031C81.2192 5.62076 81.1619 5.57275 81.0949 5.54099C81.0278 5.50923 80.9534 5.49481 80.8789 5.49914H80.4904L81.6602 2.52861C81.7455 2.32639 81.797 2.11238 81.8126 1.89458L81.935 0.771583C81.9714 0.586952 81.9434 0.395906 81.8554 0.228216C81.8116 0.171186 81.7531 0.126158 81.6857 0.0975703C81.6183 0.0689822 81.5444 0.0578277 81.4711 0.0651945ZM78.6695 9.86452C78.6438 10.1001 78.5487 10.2087 78.3685 10.2087H78.0356L78.233 8.39731H78.8294L78.6695 9.86452ZM78.6377 4.68411L78.8253 2.96335H79.3246L78.6377 4.68411Z" fill="#333333"/>
<path d="M76.2012 0.191963C76.1278 0.101304 75.9653 0.0651871 75.7157 0.0651871H70.4735C70.3055 0.0507049 70.1378 0.0957791 70.0019 0.191963C69.8659 0.357048 69.7901 0.56078 69.7863 0.771594L69.6304 2.20254C69.6145 2.2808 69.6155 2.36136 69.6332 2.43925C69.6509 2.51714 69.685 2.59071 69.7334 2.65539C69.8615 2.74634 70.0185 2.79119 70.1773 2.78217H71.2728L71.184 3.59722H70.0607C69.8937 3.58548 69.7287 3.63753 69.6012 3.74213C69.4744 3.94455 69.4061 4.17597 69.4033 4.41242L69.2749 5.58981C69.2367 5.7847 69.2581 5.9861 69.3366 6.16944C69.3823 6.23516 69.4464 6.28703 69.5215 6.31907C69.5965 6.3511 69.6795 6.36199 69.7606 6.35047H70.8839L70.797 7.14753H69.7015C69.6149 7.14171 69.528 7.15318 69.4462 7.18123C69.3643 7.20929 69.2894 7.25331 69.226 7.31055C69.0925 7.47696 69.017 7.67987 69.0104 7.89018L68.8703 9.17622C68.8251 9.37344 68.8568 9.57979 68.9595 9.75585C69.0188 9.80808 69.0887 9.84791 69.1648 9.87284C69.2408 9.89778 69.3214 9.9073 69.4014 9.90078H70.4276C70.3372 10.4128 70.1804 10.9118 69.9608 11.3861C69.7449 11.9298 69.3867 12.4102 68.9212 12.7808C68.6862 12.9275 68.4678 13.0975 68.2695 13.2881C68.1765 13.4093 68.1222 13.5541 68.1131 13.7046L67.9453 15.2442C67.9156 15.4063 67.9466 15.5732 68.0327 15.7152C68.1186 15.8236 68.2452 15.8951 68.3853 15.9144C69.2176 15.9144 70.095 15.2442 71.0177 13.9038C71.8086 12.6841 72.3344 11.3223 72.5633 9.90078H73.1597L72.7984 13.2155H72.3408C72.2543 13.2109 72.1677 13.223 72.0861 13.251C72.0044 13.279 71.9294 13.3223 71.8653 13.3785C71.7346 13.5455 71.6638 13.749 71.6635 13.9582L71.5253 15.2261C71.4773 15.4218 71.5041 15.6275 71.6007 15.8057C71.6608 15.8569 71.7308 15.8961 71.8066 15.9209C71.8825 15.9458 71.9628 15.9559 72.0427 15.9506H73.9842C74.1689 15.968 74.3534 15.9161 74.4994 15.8057C74.6064 15.6294 74.6662 15.4302 74.6734 15.2261L76.2488 0.771575C76.2875 0.577769 76.2711 0.377466 76.2012 0.191963ZM73.4598 7.14753H72.8911L72.978 6.35047H73.5466L73.4598 7.14753ZM73.8467 3.59722H73.2781L73.3669 2.78217H73.9356L73.8467 3.59722Z" fill="#333333"/>
<path d="M69.1435 2.2935C69.2001 2.01704 69.1596 1.73028 69.0285 1.47845C68.9487 1.39231 68.8485 1.32595 68.7365 1.28497C68.6245 1.244 68.5039 1.22962 68.385 1.24303H65.8538C65.7325 1.23884 65.6117 1.25924 65.4992 1.30292C65.3867 1.3466 65.2849 1.41258 65.2005 1.49658C65.0092 1.72896 64.9015 2.01504 64.8936 2.31164L63.8453 11.9299C63.7999 12.3465 63.841 12.6363 63.9872 12.7631C64.0706 12.8307 64.1671 12.8816 64.2712 12.9127C64.3752 12.9438 64.4847 12.9546 64.5931 12.9443H67.1243C67.2451 12.9567 67.3673 12.9455 67.4835 12.9112C67.5997 12.877 67.7075 12.8204 67.8005 12.745C67.9845 12.5239 68.0862 12.2497 68.0892 11.9662L69.1435 2.2935ZM66.3887 10.0824H65.9378L66.5874 4.12306H67.0382L66.3887 10.0824Z" fill="#333333"/>
</g>
<defs>
<clipPath id="clip0_35:176">
<rect width="120.162" height="16" fill="white"/>
</clipPath>
</defs>
</svg>
