<svg width="16" height="16" viewBox="0 0 16 16" fill="none" xmlns="http://www.w3.org/2000/svg">
<path d="M7.86665 7.26667C6.35332 6.87333 5.86665 6.46667 5.86665 5.83333C5.86665 5.10667 6.53998 4.6 7.66665 4.6C8.85332 4.6 9.29332 5.16667 9.33332 6H10.8066C10.76 4.85333 10.06 3.8 8.66665 3.46V2H6.66665V3.44C5.37332 3.72 4.33332 4.56 4.33332 5.84667C4.33332 7.38667 5.60665 8.15333 7.46665 8.6C9.13332 9 9.46665 9.58667 9.46665 10.2067C9.46665 10.6667 9.13998 11.4 7.66665 11.4C6.29332 11.4 5.75332 10.7867 5.67998 10H4.21332C4.29332 11.46 5.38665 12.28 6.66665 12.5533V14H8.66665V12.5667C9.96665 12.32 11 11.5667 11 10.2C11 8.30667 9.37998 7.66 7.86665 7.26667Z" fill="#333333"/>
</svg>
