<svg
  width="118"
  height="222"
  viewBox="0 0 118 222"
  fill="none"
  xmlns="http://www.w3.org/2000/svg"
>
<g clip-path="url(#clip0_35:129)">
<path
      d="M12.8713 25.4317C12.8713 25.4317 13.0787 8.42337 21.3738 4.93279C29.6689 1.44222 39.3416 -4.13101 53.0955 4.87756C61.4461 10.3471 63.5483 15.9229 63.9113 19.4598C64.1801 22.4023 64.7629 25.3075 65.6499 28.1259C67.6012 34.0982 69.2993 44.0557 61.7862 49.7811C50.5478 58.3453 37.7145 60.8951 29.7338 58.2935C21.7532 55.6918 10.599 38.6965 12.8713 25.4317Z"
      fill="white"
    />
<path
      d="M16.5796 28.095L21.3058 28.1274C21.3058 28.1274 23.3253 25.2305 25.6884 25.2467C27.6984 25.4052 29.6805 25.816 31.588 26.4697C31.588 26.4697 33.6528 30.2133 35.4681 30.5896C37.2833 30.9659 41.8377 29.5417 42.2753 32.0007C42.7129 34.4597 27.9964 59.8278 13.1145 56.2692C-1.76743 52.7105 0.235791 52.1785 0.00239282 46.4464C-0.231006 40.7142 16.5796 28.095 16.5796 28.095Z"
      fill="#F7931E"
    />
<path
      d="M59.8025 100.524C59.8025 100.524 91.281 69.631 141.24 114.09L106.302 145.687L59.8025 100.524Z"
      fill="#E5E5E5"
    />
<path
      d="M31.2217 53.3918C31.2217 53.3918 41.8806 93.177 31.4364 118.484C20.9922 143.79 90.3929 119.654 88.4091 104.086C86.4252 88.5178 59.9645 76.8751 61.7862 49.7812L31.2217 53.3918Z"
      fill="white"
    />
<path
      d="M33.0695 115.349C33.0695 115.349 108.225 90.6685 171.039 102.743C171.039 102.743 192.518 204.767 64.5256 180.602C64.5256 180.602 0.644546 178.254 33.0695 115.349Z"
      fill="white"
    />
<path
      d="M62.8934 184.881L53.5663 194.401C53.4504 194.519 53.3662 194.664 53.3216 194.824C53.2769 194.983 53.2733 195.152 53.3109 195.313C53.3486 195.474 53.4264 195.623 53.537 195.747C53.6476 195.87 53.7875 195.963 53.9437 196.018L56.0988 196.771C56.2814 196.835 56.4788 196.844 56.6663 196.796C56.8537 196.748 57.0229 196.646 57.1525 196.502L66.0476 186.644C66.1618 186.517 66.2412 186.363 66.2779 186.197C66.3146 186.03 66.3075 185.857 66.2571 185.694C66.2067 185.531 66.1149 185.384 65.9906 185.267C65.8663 185.151 65.7137 185.068 65.548 185.028L63.8249 184.614C63.6598 184.574 63.4871 184.578 63.3239 184.625C63.1606 184.672 63.0123 184.76 62.8934 184.881Z"
      fill="#F7931E"
    />
<path
      d="M51.1899 190.153L63.8806 195.152L51.9679 209.26L32.8299 203.398C32.8299 203.398 33.4911 186.484 44.5837 199.204L51.1899 190.153Z"
      fill="#534741"
    />
<path
      d="M33.0361 206.736L49.5765 211.731C49.7256 211.776 49.8854 211.771 50.0313 211.716C50.1773 211.661 50.3013 211.561 50.3845 211.429L51.3231 209.941C51.3816 209.848 51.4179 209.743 51.4292 209.634C51.4405 209.524 51.4265 209.414 51.3883 209.311C51.35 209.209 51.2885 209.116 51.2087 209.041C51.1288 208.966 51.0327 208.91 50.9278 208.878L33.8672 203.692C33.7748 203.664 33.6776 203.655 33.5816 203.665C33.4857 203.676 33.3929 203.706 33.3089 203.754C33.2249 203.801 33.1515 203.866 33.093 203.943C33.0346 204.02 32.9925 204.108 32.9691 204.201L32.5508 205.881C32.5066 206.059 32.5323 206.247 32.6227 206.406C32.713 206.565 32.861 206.683 33.0361 206.736V206.736Z"
      fill="#332C28"
    />
<path
      d="M112.309 221.778L124.195 209.229C124.302 209.116 124.369 208.971 124.386 208.816C124.403 208.661 124.369 208.505 124.288 208.371L123.381 206.864C123.324 206.77 123.247 206.69 123.154 206.631C123.062 206.572 122.957 206.535 122.848 206.523C122.739 206.511 122.629 206.524 122.526 206.562C122.423 206.6 122.33 206.661 122.255 206.74L109.964 219.668C109.898 219.738 109.846 219.821 109.813 219.911C109.779 220.002 109.764 220.098 109.769 220.195C109.774 220.291 109.798 220.386 109.841 220.473C109.883 220.559 109.943 220.637 110.016 220.7L111.328 221.828C111.467 221.947 111.646 222.008 111.829 221.999C112.011 221.99 112.183 221.91 112.309 221.778V221.778Z"
      fill="#332C28"
    />
<path
      d="M101.888 188.79L103.858 188.267C104.072 188.21 104.298 188.227 104.5 188.314C104.702 188.402 104.869 188.555 104.974 188.75L111.31 200.512C111.372 200.627 111.41 200.754 111.423 200.884C111.435 201.015 111.422 201.146 111.383 201.271C111.344 201.396 111.28 201.512 111.195 201.612C111.111 201.712 111.007 201.794 110.891 201.853L109.941 202.337C109.722 202.448 109.47 202.474 109.234 202.408C108.998 202.343 108.795 202.191 108.665 201.984L101.309 190.261C101.227 190.131 101.177 189.983 101.163 189.83C101.149 189.677 101.17 189.522 101.227 189.379C101.283 189.236 101.373 189.108 101.487 189.006C101.602 188.903 101.74 188.829 101.888 188.79Z"
      fill="#F7931E"
    />
<path
      d="M101.463 202.14L111.794 193.388L122.886 206.107L109.518 220.388C109.518 220.388 96.8276 215.389 108.769 210.286L101.463 202.14Z"
      fill="#534741"
    />
<path
      d="M41.7655 20.8297C41.7655 21.1095 41.6971 21.3851 41.5663 21.6324C41.4355 21.8797 41.2462 22.0913 41.0149 22.2486C40.7836 22.4059 40.5173 22.5042 40.2394 22.5349C39.9614 22.5656 39.6802 22.5277 39.4202 22.4247C39.1602 22.3216 38.9294 22.1566 38.7478 21.9437C38.5662 21.7309 38.4394 21.4769 38.3785 21.2038C38.3175 20.9306 38.3242 20.6467 38.3981 20.3768C38.4719 20.1069 38.6106 19.8592 38.8021 19.6552C39.5861 19.3213 40.4695 19.3074 41.2635 19.6167C41.4229 19.7758 41.5493 19.9649 41.6355 20.1731C41.7216 20.3812 41.7658 20.6044 41.7655 20.8297V20.8297Z"
      fill="#333333"
    />
<path
      opacity="0.3"
      d="M17.787 32.6051L15.8551 34.1517"
      stroke="#4D4D4D"
      stroke-width="0.75"
      stroke-miterlimit="10"
    />
<path
      opacity="0.3"
      d="M30.5372 32.9917V36.0851"
      stroke="#4D4D4D"
      stroke-width="0.75"
      stroke-miterlimit="10"
    />
</g>
<defs>
<clipPath id="clip0_35:129">
<rect width="174" height="222" fill="white" />
</clipPath>
</defs>
</svg>
