<svg width="107" height="18" viewBox="0 0 107 18" fill="none" xmlns="http://www.w3.org/2000/svg">
<path d="M16.146 3.526C15.624 2.824 14.508 1.708 13.734 0.934L12.114 1.996C12.888 2.824 13.95 3.994 14.418 4.732L16.146 3.526ZM6.93 8.332L5.076 8.782V6.154H7.002V4.174H5.076V0.772H2.97V4.174H0.738V6.154H2.97V9.304C2.07 9.52 1.206 9.718 0.504 9.862L1.062 11.896L2.97 11.428V15.154C2.97 15.406 2.88 15.496 2.628 15.496C2.394 15.496 1.656 15.496 0.936 15.478C1.206 16.018 1.476 16.864 1.548 17.422C2.808 17.422 3.672 17.368 4.266 17.026C4.878 16.72 5.076 16.198 5.076 15.154V10.87C5.796 10.672 6.48 10.492 7.182 10.294L6.93 8.332ZM14.67 7.27C14.13 8.512 13.356 9.754 12.438 10.87C12.168 9.79 11.952 8.53 11.79 7.126L17.208 6.586L17.01 4.588L11.61 5.092C11.52 3.76 11.448 2.338 11.43 0.843999H9.234C9.288 2.428 9.36 3.922 9.468 5.308L7.2 5.524L7.416 7.576L9.648 7.342C9.882 9.412 10.206 11.212 10.656 12.688C9.378 13.804 7.956 14.704 6.408 15.316C7.02 15.748 7.74 16.432 8.136 16.972C9.306 16.432 10.458 15.658 11.502 14.758C12.366 16.342 13.518 17.26 15.084 17.422C16.092 17.512 17.064 16.666 17.532 13.336C17.118 13.138 16.164 12.562 15.75 12.094C15.624 14.02 15.39 14.884 14.976 14.848C14.274 14.74 13.68 14.146 13.194 13.138C14.544 11.68 15.678 10.024 16.434 8.332L14.67 7.27ZM21.906 0.789999C21.096 3.382 19.728 5.956 18.234 7.594C18.558 8.134 19.08 9.394 19.242 9.916C19.656 9.448 20.052 8.926 20.448 8.368V17.584H22.482V4.822C23.022 3.688 23.49 2.536 23.886 1.402L21.906 0.789999ZM30.384 12.202H28.548V10.312H30.384V12.202ZM32.436 7.288V5.74H30.258V3.904H28.602V5.74H26.532V7.288H28.602V8.836H27V13.66H31.986V8.836H30.258V7.288H32.436ZM26.082 14.65V3.526H32.85V14.65H26.082ZM24.138 1.672V17.548H26.082V16.504H32.85V17.386H34.884V1.672H24.138ZM50.184 4.246C50.076 5.614 49.914 6.262 49.698 6.478C49.518 6.622 49.356 6.658 49.068 6.658C48.708 6.658 47.898 6.64 47.088 6.55C47.448 7.108 47.682 7.918 47.718 8.53C48.672 8.548 49.536 8.548 50.058 8.494C50.67 8.422 51.12 8.278 51.498 7.846C51.984 7.306 52.218 6.01 52.398 3.112C52.434 2.824 52.452 2.32 52.452 2.32H46.584C46.674 1.888 46.746 1.456 46.818 1.006L44.604 0.753999C44.244 3.724 43.308 6.208 41.472 7.648C41.994 7.936 42.948 8.638 43.326 8.998C44.568 7.846 45.486 6.208 46.098 4.246H50.184ZM42.174 2.68C41.436 2.05 39.942 1.258 38.79 0.825999L37.62 2.41C38.772 2.914 40.248 3.778 40.914 4.426L42.174 2.68ZM41.094 7.45C40.356 6.838 38.826 6.082 37.692 5.65L36.576 7.252C37.728 7.756 39.204 8.584 39.906 9.214L41.094 7.45ZM40.428 10.276C39.384 12.346 38.088 14.578 37.17 15.928L39.006 17.332C40.05 15.604 41.13 13.552 42.03 11.662L40.428 10.276ZM49.554 10.996C49.068 11.806 48.456 12.508 47.7 13.102C46.926 12.472 46.26 11.77 45.774 10.996H49.554ZM51.084 9.016L50.706 9.088H42.714V10.996H45.144L43.758 11.464C44.352 12.508 45.072 13.426 45.918 14.236C44.604 14.902 43.056 15.352 41.382 15.622C41.778 16.09 42.246 16.972 42.444 17.548C44.406 17.134 46.17 16.54 47.7 15.64C48.996 16.486 50.49 17.116 52.2 17.53C52.506 16.936 53.118 16.054 53.604 15.604C52.11 15.316 50.76 14.866 49.572 14.272C50.868 13.084 51.876 11.554 52.506 9.592L51.084 9.016ZM71.208 9.988V7.828H64.044V5.272H69.912V3.13H64.044V0.753999H61.794V3.13H56.232V5.272H61.794V7.828H54.864V9.988H59.976C59.49 11.518 58.788 13.264 58.104 14.632L55.53 14.74L55.836 17.008C59.094 16.846 63.792 16.576 68.256 16.27C68.562 16.81 68.832 17.314 69.012 17.746L71.154 16.63C70.38 15.01 68.76 12.67 67.212 10.906L65.178 11.806C65.754 12.526 66.366 13.336 66.942 14.182C64.782 14.29 62.586 14.416 60.57 14.506C61.29 13.156 62.064 11.518 62.712 9.988H71.208ZM81.27 2.86H85.248V3.976H82.35V6.784H81.27V2.86ZM85.248 6.784H83.844V5.308H85.248V6.784ZM84.006 11.752H82.386V10.51H84.006V11.752ZM79.938 8.404H86.544V12.778C86.544 12.958 86.49 13.012 86.292 13.012C86.184 13.012 85.896 13.012 85.554 13.012V9.16H80.856V13.66H82.386V13.12H85.104C85.302 13.57 85.482 14.2 85.536 14.668C86.526 14.668 87.246 14.65 87.786 14.38C88.344 14.092 88.488 13.624 88.488 12.796V6.784H87.174V1.276H79.416V6.784H78.084V14.614H79.938V8.404ZM77.274 4.066C76.698 3.202 75.456 2.014 74.448 1.204L72.81 2.428C73.818 3.292 75.006 4.534 75.51 5.416L77.274 4.066ZM76.788 7.738H72.738V9.7H74.754V13.624C74.034 14.236 73.224 14.83 72.522 15.28L73.53 17.404C74.448 16.63 75.186 15.946 75.906 15.244C76.986 16.63 78.426 17.152 80.568 17.242C82.764 17.332 86.58 17.296 88.812 17.188C88.92 16.594 89.226 15.604 89.478 15.1C86.994 15.298 82.746 15.352 80.586 15.262C78.75 15.19 77.49 14.686 76.788 13.48V7.738ZM93.312 13.822V10.294H96.174V13.822H93.312ZM96.174 8.44H93.312V5.524H96.174V8.44ZM101.898 3.526C102.168 2.77 102.402 2.014 102.6 1.24L100.548 0.772C100.026 2.878 99.162 5.056 98.118 6.568V3.652H95.328C95.634 2.878 95.958 1.978 96.264 1.078L93.924 0.753999C93.852 1.6 93.636 2.752 93.402 3.652H91.368V17.026H93.312V15.712H98.118V7.306C98.604 7.63 99.216 8.044 99.504 8.314C100.062 7.54 100.62 6.55 101.088 5.47H104.94C104.742 11.824 104.508 14.524 103.986 15.1C103.752 15.334 103.554 15.406 103.194 15.406C102.726 15.406 101.664 15.406 100.512 15.298C100.89 15.892 101.178 16.792 101.214 17.386C102.276 17.422 103.356 17.44 104.04 17.35C104.76 17.224 105.264 17.026 105.768 16.36C106.506 15.406 106.704 12.544 106.938 4.498C106.956 4.246 106.956 3.526 106.956 3.526H101.898ZM103.968 11.734C103.41 10.69 102.222 8.98 101.322 7.738L99.648 8.692C100.53 10.006 101.646 11.77 102.15 12.85L103.968 11.734Z" fill="#333333"/>
</svg>
