<svg width="360" height="487" viewBox="0 0 360 487" fill="none" xmlns="http://www.w3.org/2000/svg">
<path d="M267.996 121.392C269.138 123.485 270.211 125.12 270.965 126.355C270.497 125.6 269.252 123.382 268.11 121.289L267.996 121.392Z" fill="#D8E698"/>
<path d="M321.764 133.387C320.691 133.405 319.639 133.081 318.761 132.461C318.065 132.003 317.62 131.535 317.14 131.535C316.66 131.535 316.215 132.003 315.302 132.678C314.388 133.353 313.018 134.302 312.07 134.965C311.676 135.353 311.206 135.656 310.689 135.852C310.172 136.049 309.62 136.137 309.067 136.109C306.89 135.993 304.727 135.683 302.605 135.182C301.09 134.893 299.614 134.424 298.209 133.787C297.429 133.275 296.573 132.89 295.674 132.644C294.141 132.493 292.616 132.264 291.107 131.958C289.667 131.452 288.282 130.8 286.973 130.014C283.057 134.908 280.83 137.63 279.095 139.471C277.776 140.811 276.388 142.082 274.938 143.279C274.242 143.976 274.242 144.422 274.242 145.566C274.216 147.094 274.296 148.622 274.482 150.14C274.735 151.84 275.28 153.485 276.092 155C277.017 156.841 278.375 159.151 278.866 160.317C279.357 161.484 278.866 161.461 277.941 161.461C276.844 161.389 275.744 161.545 274.71 161.918C274.294 162.163 273.935 162.494 273.655 162.888C273.376 163.282 273.183 163.731 273.089 164.205C272.861 165.117 272.861 166.072 273.089 166.984C273.47 167.858 273.631 168.812 273.557 169.763C273.329 170.678 272.415 171.604 270.782 173.685C268.939 176.045 267.242 178.516 265.701 181.084C264.559 183.165 264.559 184.091 264.776 184.789C265.02 185.411 265.412 185.965 265.918 186.401C266.434 186.892 266.897 187.437 267.3 188.025C267.943 188.978 268.267 190.111 268.225 191.261C268.122 193.217 267.812 195.157 267.3 197.047C266.939 198.541 266.477 200.008 265.918 201.438C265.45 202.582 264.993 203.52 264.525 204.446C263.984 205.564 263.37 206.645 262.687 207.682C261.762 209.066 260.403 210.918 259.684 212.073C258.964 213.228 258.987 213.686 259.444 214.154C259.901 214.623 260.837 215.081 261.728 215.767C262.623 216.472 263.469 217.236 264.263 218.054C264.959 218.74 265.404 219.197 265.404 219.895C265.404 220.592 264.948 221.519 264.263 224.755C263.577 227.991 262.653 233.537 261.979 236.316C261.305 239.095 260.837 239.095 259.695 239.552C258.266 240.085 256.937 240.859 255.767 241.839C255.399 242.24 255.125 242.718 254.964 243.238C254.804 243.758 254.763 244.308 254.843 244.847C254.898 245.931 254.821 247.017 254.614 248.083C254.386 248.78 253.918 248.78 252.536 249.009C251.154 249.238 248.837 249.707 247.455 249.935C246.073 250.164 245.605 250.164 245.171 250.862C244.737 251.559 244.246 252.943 243.322 254.555C242.356 256.174 241.276 257.722 240.09 259.187C239.165 260.33 238.709 260.799 238.709 261.268C238.709 261.737 239.165 262.183 239.634 262.651C240.076 263.058 240.46 263.523 240.775 264.035C241.004 264.504 241.004 264.961 240.536 265.179C239.783 265.375 239.021 265.532 238.252 265.647C237.327 265.876 236.402 266.334 235.489 266.574C234.72 266.683 233.957 266.836 233.205 267.031C232.748 267.26 232.748 267.729 232.748 268.415C232.714 269.184 232.791 269.954 232.977 270.702C233.205 271.388 233.673 271.845 234.826 272.086C235.98 272.326 237.829 272.314 239.211 272.543C240.593 272.772 241.495 273.241 241.757 273.938C242.02 274.636 241.518 275.55 241.289 276.705C241.038 277.882 241.097 279.104 241.46 280.25C240.113 280.719 239.177 280.868 238.035 281.337C236.338 282.2 234.715 283.202 233.182 284.333C232.031 284.985 230.949 285.751 229.951 286.62C229.037 287.546 228.113 288.907 227.188 290.05C226.263 291.194 225.338 292.132 224.641 293.058C223.971 293.982 223.429 294.994 223.032 296.065C222.543 297.26 222.16 298.496 221.89 299.759C221.637 301.445 221.48 303.144 221.422 304.848C221.193 307.855 220.736 312.944 220.497 316.409C220.257 319.874 220.268 321.726 220.04 322.881C219.911 323.686 219.508 324.422 218.898 324.962L217.517 326.346C216.997 326.837 216.53 327.381 216.124 327.97C215.61 328.749 215.225 329.607 214.982 330.508C214.754 331.421 214.754 332.375 214.982 333.287C215.22 334.191 215.606 335.048 216.124 335.826C216.773 336.646 217.248 337.592 217.517 338.605C217.973 340.228 218.43 342.996 218.898 344.62C219.218 345.951 220.035 347.109 221.182 347.856C222.905 349.198 224.527 350.665 226.034 352.247C226.475 352.749 226.805 353.338 227.002 353.977C227.198 354.615 227.258 355.289 227.176 355.952C227.214 357.48 227.134 359.01 226.937 360.526C226.814 361.652 226.329 362.708 225.555 363.533C224.397 364.482 223.062 365.19 221.627 365.615C218.937 366.577 216.316 367.723 213.783 369.045C211.933 370.189 211.933 371.126 211.499 373.208C211.065 375.289 210.118 378.525 209.216 381.304C208.314 384.083 207.366 386.393 206.932 388.234C206.528 389.666 206.45 391.17 206.704 392.636C207.148 394.193 207.689 395.721 208.325 397.21C209.496 400.391 210.498 403.632 211.328 406.919C211.829 409.039 212.059 411.213 212.013 413.391C211.953 414.707 212.029 416.025 212.241 417.325C212.31 417.73 212.503 418.102 212.794 418.392C213.085 418.681 213.458 418.872 213.863 418.937C214.889 419.04 215.899 419.275 216.866 419.635C217.562 420.104 217.562 421.03 217.562 422.185C217.519 423.333 217.596 424.483 217.791 425.616C218.025 426.436 218.507 427.163 219.172 427.697C219.916 428.505 220.769 429.206 221.707 429.778C222.632 430.235 223.557 430.235 224.71 430.704C225.863 431.173 227.256 432.088 228.638 432.545C230.332 432.985 232.087 433.144 233.833 433.014C234.417 433.002 235 433.029 235.58 433.094C235.58 433.094 235.58 433.037 235.58 433.014C234.187 428.852 234.884 426.073 235.226 423.306C235.569 420.538 235.58 417.748 236.265 415.667C236.95 413.586 238.343 412.236 239.497 410.121C240.662 407.965 241.435 405.618 241.78 403.191C242.009 401.11 241.54 399.76 242.009 397.405C242.477 395.049 243.858 391.859 244.543 389.309C245.228 386.758 245.24 384.917 246.393 382.379C247.546 379.84 249.819 376.593 254.477 371.046C259.136 365.5 266.021 357.633 269.709 353.242C273.397 348.851 273.865 347.924 273.865 346.998C273.722 345.977 273.489 344.97 273.169 343.991C272.94 342.847 272.94 341.452 273.865 340.754C274.79 340.057 276.64 340.068 278.021 340.068C279.047 340.202 280.089 340.04 281.024 339.599C281.721 339.142 282.166 338.216 284.256 334.511C286.345 330.806 290.022 324.345 293.265 319.256C296.507 314.167 299.259 310.474 300.184 307.924C301.109 305.374 300.184 303.99 299.727 302.606C299.361 301.167 299.128 299.697 299.031 298.215C298.657 296.624 298.504 294.988 298.574 293.355C298.802 291.971 299.716 291.068 301.337 286.883C302.959 282.697 305.265 275.322 306.418 270.931C307.572 266.539 307.56 265.144 307.343 263.761C307.042 262.544 306.809 261.31 306.647 260.067C306.709 259.288 307.036 258.554 307.572 257.986C308.092 257.206 308.478 256.344 308.713 255.436C308.986 254.301 308.823 253.105 308.257 252.085C307.56 250.587 306.179 248.506 306.179 247.111C306.179 244.344 307.56 243.68 308.257 242.605C308.953 241.53 308.942 240.181 309.638 235.744C310.335 231.307 311.716 223.943 312.641 217.711C313.566 211.479 314.023 206.378 314.491 202.673C314.959 198.968 315.416 196.67 315.873 194.12C316.266 191.453 316.885 188.825 317.722 186.264C318.585 184.119 319.588 182.033 320.725 180.02C321.003 179.62 321.187 179.163 321.266 178.682C321.345 178.202 321.317 177.709 321.182 177.241C320.954 176.315 320.486 174.954 320.257 173.548C320.029 172.17 320.029 170.763 320.257 169.385C320.568 167.799 321.034 166.248 321.65 164.754C322.335 162.902 323.26 160.592 323.717 159.208C323.945 158.74 324.063 158.225 324.063 157.704C324.063 157.183 323.945 156.669 323.717 156.2C323.26 155.057 322.335 153.193 322.107 152.267C321.879 151.34 322.335 151.34 324.642 149.728C326.948 148.116 331.116 144.868 333.182 143.027C335.249 141.186 335.261 140.74 335.032 139.596C334.675 138.156 334.446 136.686 334.347 135.205C334.343 134.691 334.412 134.179 334.553 133.684C331.333 133.078 328.238 132.621 327.074 132.541C324.996 132.953 323.146 133.387 321.764 133.387Z" fill="#BFC3C8"/>
<path d="M359.855 39.3091C359.558 38.4002 358.993 37.6029 358.234 37.022C357.198 36.332 356.032 35.8612 354.808 35.6383C353.667 35.4096 352.73 35.4096 352.034 34.4948C351.337 33.58 350.892 31.7161 349.967 30.1037C349.083 28.483 347.708 27.1856 346.039 26.3986C344.391 25.8763 342.684 25.5651 340.958 25.4724C339.463 25.234 337.995 24.851 336.574 24.3289L335.809 24.0773L334.358 23.5856L334.107 23.4941L332.657 22.888C331.564 22.3736 330.414 21.9897 329.232 21.7445C327.839 21.5158 326 21.5158 324.379 21.2756C322.977 21.1396 321.629 20.6648 320.451 19.892C320.25 19.7326 320.06 19.5607 319.88 19.3774L319.355 18.7828L318.853 18.1881L318.738 18.0623C318.544 17.8451 318.339 17.6278 318.099 17.3877L318.031 17.3305L317.836 17.1475C315.903 15.722 314.289 13.9068 313.098 11.8187C306.178 10.435 306.178 9.73745 305.71 8.23943C305.135 6.31464 304.281 4.48465 303.175 2.80767C302.694 2.05005 302.051 1.4082 301.293 0.92788C300.535 0.447564 299.681 0.140612 298.791 0.0289024C296.443 -0.139106 294.1 0.428362 292.088 1.65271C289.366 3.34324 286.746 5.19525 284.244 7.19882C281.709 9.05134 279.391 10.435 278.01 12.0588C276.923 13.4998 276.145 15.1506 275.726 16.9074C275.4 17.9683 274.931 18.98 274.333 19.9148C273.693 20.8261 272.816 21.5456 271.798 21.9961C269.636 23.2109 267.402 24.2917 265.107 25.2322C263.092 26.0283 261.009 26.6406 258.884 27.0619L257.743 27.3135C254.235 27.974 250.767 28.8253 247.352 29.8635C244.806 30.7784 244.349 31.7046 242.043 33.5571C239.736 35.4096 235.58 38.1312 233.034 39.8008C230.488 41.4703 229.608 41.882 228.192 42.8083C226.366 44.025 224.664 45.4193 223.111 46.9707C221.529 48.5901 220.06 50.3172 218.715 52.1395C218.327 52.6426 217.95 53.1458 217.574 53.6718C215.723 56.3038 213.737 58.8382 211.625 61.2648C210.357 62.6828 209.01 63.9178 207.88 65.2557C207.88 65.3243 207.777 65.3929 207.72 65.4501L207.274 66.0219L207.092 66.2849C206.956 66.4644 206.83 66.6515 206.715 66.8452L206.566 67.0968C206.4 67.369 206.251 67.6517 206.121 67.943C204.979 70.4816 204.979 73.6606 204.728 76.2679C204.477 78.8751 204.043 80.659 203.815 82.2714C203.723 82.8432 203.678 83.4149 203.621 83.8838C203.621 84.1925 203.552 84.467 203.506 84.7414C203.451 85.2461 203.32 85.7395 203.118 86.2051C202.661 87.1314 201.737 87.5888 200.572 89.2126C199.407 90.8364 198.037 93.6038 196.656 95.2276C195.613 96.4934 194.125 97.3117 192.499 97.5146C191.143 97.5716 189.81 97.8859 188.571 98.4409C187.43 99.127 186.493 100.522 184.644 102.603C182.794 104.685 180.076 107.452 178.649 110.231C174.493 118.556 171.718 123.416 168.944 128.15L168.396 129.099L171.821 132.529C172.678 133.456 173.649 134.27 174.71 134.954C175.852 135.651 177.245 136.097 178.866 137.035C180.487 137.973 182.291 139.322 183.707 140.042C184.738 140.507 185.83 140.819 186.95 140.969C187.895 141.365 188.921 141.526 189.942 141.438C191.315 140.966 192.632 140.344 193.869 139.585C195.251 138.887 196.644 138.441 197.569 137.961C198.283 137.492 199.049 137.108 199.853 136.818C200.919 136.628 202.002 136.551 203.084 136.589C203.809 136.495 204.544 136.656 205.162 137.046C205.976 137.68 206.739 138.376 207.446 139.128C207.914 139.671 208.46 140.141 209.067 140.523C209.578 140.727 210.13 140.806 210.677 140.751H213.223C214.15 140.714 215.078 140.791 215.986 140.98C216.911 141.209 217.836 141.678 218.533 141.906C219.124 142.135 219.779 142.135 220.371 141.906C221.068 141.678 221.992 141.209 222.655 140.98C223.317 140.751 223.796 140.751 224.036 140.98C224.276 141.209 224.265 141.678 224.493 142.124C224.788 142.674 225.289 143.085 225.886 143.267C226.571 143.507 227.496 143.507 228.17 143.736C228.843 143.965 229.311 144.422 230.019 143.965C230.727 143.507 231.629 142.112 232.554 141.426C233.291 140.903 234.189 140.656 235.089 140.729H236.71C237.017 140.75 237.323 140.698 237.605 140.576C237.887 140.455 238.136 140.268 238.332 140.031C239.017 139.345 239.942 137.95 240.615 137.264C240.808 137.026 241.055 136.839 241.335 136.717C241.615 136.596 241.921 136.544 242.225 136.566C242.477 136.597 242.732 136.572 242.973 136.493C243.214 136.414 243.434 136.283 243.618 136.109C244.224 135.274 244.916 134.508 245.685 133.822C247.027 132.842 248.509 132.071 250.081 131.535C250.947 131.135 251.925 131.054 252.844 131.306C253.312 131.535 253.312 132.003 253.769 131.763C254.601 131.205 255.246 130.408 255.619 129.476C256.076 128.333 256.076 126.938 257.469 125.542C263.006 124.159 264.388 123.473 265.541 122.89C266.437 122.491 267.266 121.955 267.996 121.3C269.138 123.381 270.383 125.6 270.851 126.354C271.36 127.439 272.064 128.419 272.929 129.248C273.792 129.659 274.754 129.818 275.703 129.705C276.941 129.742 278.179 129.666 279.403 129.476C280.454 129.139 281.537 128.909 282.634 128.79C284.008 128.875 285.346 129.266 286.551 129.934L286.813 130.059C288.122 130.846 289.507 131.497 290.947 132.003C292.456 132.31 293.981 132.539 295.514 132.69C296.413 132.935 297.269 133.321 298.049 133.833C299.454 134.47 300.93 134.938 302.445 135.228C304.567 135.729 306.73 136.039 308.907 136.154C309.46 136.182 310.012 136.095 310.529 135.898C311.046 135.701 311.516 135.399 311.91 135.011C312.824 134.325 314.194 133.399 315.142 132.724C316.089 132.049 316.523 131.58 316.98 131.58C317.437 131.58 317.905 132.049 318.601 132.507C319.479 133.127 320.531 133.451 321.604 133.433C322.986 133.433 324.836 132.975 326.8 133.09C327.941 133.158 331.059 133.616 334.279 134.233C334.543 133.41 334.859 132.604 335.226 131.82C336.076 129.671 337.075 127.585 338.218 125.577C339.724 123.421 341.112 121.184 342.374 118.876C343.299 116.795 343.299 114.942 343.767 113.558C344.235 112.175 345.149 111.271 345.617 109.625C346.085 107.978 346.074 105.702 346.759 103.621C347.48 101.824 348.408 100.116 349.522 98.5324C350.218 97.3888 350.218 96.9086 349.99 96.6799C349.221 96.2486 348.521 95.7052 347.912 95.0675C346.519 93.6724 344.212 90.905 342.831 89.2812C342.07 88.493 341.375 87.644 340.753 86.7426C340.508 86.0017 340.355 85.2337 340.296 84.4555C340.056 83.0719 339.599 80.7619 339.371 78.452C339.143 76.1421 339.131 73.8207 338.903 72.4371C338.675 71.0534 338.206 70.5846 338.446 69.4296C338.94 67.858 339.559 66.3285 340.296 64.8555C340.981 63.2317 341.438 61.848 342.134 59.9955C342.97 57.6527 344.053 55.4063 345.366 53.2944C347.044 50.7763 348.898 48.3803 350.915 46.1245C351.856 44.8543 353.016 43.7623 354.34 42.8998C355.233 42.5551 356.165 42.3209 357.115 42.2022C357.956 42.0093 358.74 41.6172 359.399 41.0587C359.673 40.872 359.871 40.5917 359.955 40.2699C360.039 39.948 360.004 39.6066 359.855 39.3091Z" fill="#00A0E9"/>
<path d="M279.049 139.539C280.785 137.698 283.011 134.965 286.928 130.071L286.665 129.945C285.461 129.277 284.123 128.886 282.748 128.801C281.651 128.92 280.568 129.15 279.517 129.488C278.294 129.677 277.055 129.754 275.818 129.716C274.868 129.829 273.906 129.67 273.043 129.259C272.179 128.431 271.474 127.45 270.965 126.366C270.211 125.131 269.127 123.495 267.996 121.403C267.296 122.017 266.507 122.522 265.656 122.901C264.514 123.484 263.121 124.17 257.583 125.554C256.19 126.949 256.19 128.333 255.733 129.488C255.36 130.419 254.716 131.216 253.883 131.775C253.427 132.015 253.427 131.546 252.959 131.317C252.039 131.066 251.061 131.147 250.195 131.546C248.623 132.083 247.141 132.854 245.799 133.833C245.031 134.519 244.338 135.286 243.733 136.12C243.548 136.294 243.328 136.425 243.087 136.504C242.846 136.583 242.591 136.608 242.34 136.577C242.035 136.555 241.73 136.607 241.449 136.728C241.169 136.85 240.922 137.037 240.73 137.275C240.033 137.961 239.108 139.356 238.446 140.042C238.251 140.279 238.002 140.466 237.72 140.588C237.438 140.709 237.131 140.761 236.825 140.74H235.203C234.303 140.667 233.405 140.914 232.668 141.437C231.744 142.124 230.819 143.519 230.134 143.976C229.449 144.433 228.992 143.976 228.284 143.747C227.576 143.519 226.662 143.519 226 143.279C225.403 143.096 224.903 142.685 224.607 142.135C224.379 141.678 224.379 141.209 224.151 140.991C223.922 140.774 223.454 140.763 222.769 140.991C222.084 141.22 221.148 141.689 220.485 141.918C219.894 142.146 219.239 142.146 218.647 141.918C217.95 141.689 217.026 141.22 216.101 140.991C215.192 140.802 214.264 140.726 213.338 140.763H210.711C210.164 140.817 209.612 140.739 209.101 140.534C208.495 140.152 207.948 139.682 207.48 139.139C206.774 138.387 206.01 137.691 205.196 137.058C204.578 136.668 203.843 136.506 203.118 136.6C202.036 136.563 200.953 136.639 199.887 136.829C199.084 137.119 198.317 137.503 197.603 137.973C196.678 138.441 195.32 138.899 193.904 139.596C192.654 140.379 191.321 141.019 189.93 141.506C188.91 141.594 187.883 141.433 186.939 141.037C185.819 140.888 184.726 140.576 183.696 140.111C182.314 139.425 180.465 138.03 178.855 137.103C177.245 136.177 175.852 135.72 174.698 135.022C173.638 134.339 172.667 133.524 171.81 132.598L168.384 129.167C165.804 133.57 163.292 137.801 161.785 140.82C160.601 143.286 159.597 145.836 158.782 148.447C157.763 151.351 156.446 154.14 154.854 156.772C153.232 159.311 151.428 161.163 149.544 164.399C147.66 167.636 145.845 172.267 144.463 175.274C143.545 177.395 142.396 179.409 141.038 181.278C139.896 182.902 138.491 184.709 137.11 186.595C135.728 188.482 134.335 190.3 132.725 192.839C130.784 195.804 129.194 198.986 127.987 202.319C126.719 206.024 126.034 210.186 121.878 214.349L121.501 214.806C117.942 219.03 114.856 223.631 112.298 228.528C110.325 232.277 108.664 236.182 107.331 240.204C106.331 243.437 105.71 246.776 105.482 250.153C105.252 252.846 105.252 255.555 105.482 258.249C105.482 258.832 105.619 259.392 105.699 259.93C106.943 259.869 108.163 259.57 109.295 259.049C109.51 258.894 109.763 258.802 110.027 258.781C110.291 258.761 110.555 258.814 110.791 258.935C111.259 259.164 111.716 259.632 112.412 260.078C113.109 260.524 114.022 261.005 114.696 261.474C115.37 261.942 115.838 262.388 116.306 262.16C116.774 261.931 117.231 261.016 117.699 260.547C118.167 260.078 118.624 260.078 118.841 259.621C119.058 259.164 119.069 258.237 119.298 257.54C119.543 256.915 119.935 256.358 120.439 255.916C120.846 255.469 121.315 255.084 121.832 254.772C122.289 254.544 122.757 254.544 123.214 254.315C123.671 254.086 124.139 253.618 124.596 253.618C125.052 253.618 125.52 254.086 125.989 254.315C126.424 254.502 126.898 254.581 127.37 254.544C127.827 254.544 128.295 254.544 128.98 253.4C129.665 252.257 130.602 249.97 131.264 248.54C131.926 247.111 132.406 246.699 132.874 246.699C133.342 246.699 133.799 247.157 134.255 247.614C134.712 248.071 135.18 248.54 135.877 248.083C136.573 247.625 137.498 246.23 139.108 244.847C140.806 243.511 142.578 242.274 144.418 241.142C145.799 240.215 146.267 239.758 146.701 239.529C147.289 239.299 147.924 239.216 148.551 239.289H155.938C156.863 239.289 157.32 239.289 157.56 239.529C157.8 239.769 157.788 240.215 158.245 240.913C158.875 241.73 159.57 242.495 160.323 243.2L161.944 244.824C162.347 245.27 162.812 245.656 163.326 245.967C163.841 246.171 164.396 246.25 164.947 246.196H167.231C167.856 246.233 168.483 246.156 169.081 245.967C169.807 245.631 170.575 245.397 171.364 245.27C172.049 245.27 172.506 245.739 173.214 245.967C173.959 246.191 174.753 246.191 175.498 245.967C176.183 245.739 176.64 245.27 177.347 245.27C178.477 245.507 179.621 245.663 180.773 245.739C182.623 245.739 185.34 245.27 187.236 245.27C188.413 245.269 189.578 245.506 190.661 245.967C191.358 246.196 191.803 246.196 192.054 245.739C192.255 245.064 192.332 244.359 192.282 243.657V242.034C192.282 241.576 192.282 241.107 192.968 240.89C193.704 240.751 194.424 240.532 195.114 240.238C195.149 240.386 195.203 240.528 195.274 240.661C195.687 241.341 196.345 241.836 197.112 242.045C198.254 242.514 200.115 242.971 201.508 243.429C202.62 243.725 203.645 244.282 204.5 245.052C205.181 245.759 205.662 246.636 205.893 247.591C206.122 248.426 206.122 249.307 205.893 250.141C205.665 250.827 205.196 251.285 205.425 251.754C205.653 252.222 206.567 252.68 207.708 253.835C208.85 254.99 210.483 256.888 211.625 258.272C212.767 259.655 213.703 260.559 215.05 260.81C216.595 260.848 218.141 260.772 219.675 260.582C220.558 260.609 221.432 260.771 222.267 261.062C222.552 261.13 222.837 261.21 223.134 261.268C224.779 261.504 226.442 261.584 228.101 261.508H238.606C238.606 261.039 239.063 260.582 239.987 259.427C241.173 257.962 242.253 256.414 243.219 254.795C244.144 253.183 244.6 251.788 245.069 251.102C245.537 250.416 245.993 250.404 247.352 250.175C248.711 249.947 251.052 249.478 252.433 249.249C253.815 249.021 254.283 249.021 254.511 248.323C254.718 247.258 254.795 246.171 254.74 245.087C254.66 244.548 254.702 243.998 254.862 243.478C255.022 242.958 255.296 242.48 255.665 242.079C256.835 241.099 258.163 240.325 259.592 239.792C260.734 239.323 261.202 239.323 261.876 236.556C262.55 233.789 263.486 228.231 264.16 224.995C264.833 221.759 265.302 220.833 265.302 220.135C265.302 219.437 264.845 218.991 264.16 218.294C263.367 217.476 262.52 216.712 261.625 216.007C260.7 215.321 259.775 214.863 259.341 214.394C258.907 213.926 258.885 213.468 259.581 212.313C260.278 211.158 261.659 209.306 262.584 207.922C263.267 206.885 263.881 205.804 264.422 204.686C264.89 203.76 265.347 202.833 265.815 201.678C266.375 200.248 266.836 198.781 267.197 197.287C267.71 195.397 268.02 193.457 268.122 191.501C268.164 190.351 267.84 189.218 267.197 188.265C266.794 187.677 266.331 187.133 265.815 186.641C265.309 186.205 264.917 185.651 264.674 185.029C264.445 184.331 264.445 183.405 265.598 181.324C267.139 178.756 268.836 176.285 270.679 173.925C272.301 171.844 273.226 170.918 273.454 170.003C273.528 169.052 273.367 168.098 272.986 167.224C272.758 166.312 272.758 165.357 272.986 164.445C273.08 163.971 273.273 163.522 273.553 163.128C273.832 162.734 274.191 162.403 274.607 162.158C275.642 161.785 276.742 161.629 277.839 161.701C278.764 161.701 279.22 161.701 278.764 160.557C278.307 159.414 276.914 157.127 275.989 155.24C275.177 153.725 274.632 152.081 274.379 150.38C274.193 148.863 274.113 147.334 274.139 145.806C274.139 144.662 274.139 144.182 274.836 143.519C276.309 142.268 277.716 140.939 279.049 139.539ZM195.228 239.998C195.262 240.084 195.288 240.171 195.308 240.261L195.228 239.998ZM195.011 239.541C195.091 239.619 195.146 239.718 195.171 239.827C195.146 239.718 195.091 239.619 195.011 239.541Z" fill="#BFC3C8"/>
<path d="M216.021 328.325C216.427 327.737 216.894 327.192 217.414 326.701L218.795 325.317C219.405 324.777 219.809 324.041 219.937 323.236C220.165 322.093 220.165 320.229 220.394 316.764C220.622 313.299 221.09 308.21 221.319 305.203C221.377 303.499 221.534 301.8 221.787 300.114C222.058 298.851 222.44 297.615 222.929 296.42C223.326 295.349 223.868 294.338 224.539 293.413C225.235 292.487 226.16 291.56 227.085 290.405C228.01 289.25 228.935 287.867 229.848 286.975C230.846 286.106 231.929 285.34 233.079 284.688C234.612 283.557 236.235 282.555 237.932 281.692C239.005 281.223 239.987 281.074 241.358 280.605C240.994 279.459 240.935 278.237 241.186 277.061C241.415 275.917 241.883 274.979 241.654 274.293C241.426 273.607 240.513 273.15 239.108 272.898C237.704 272.646 235.877 272.669 234.724 272.441C233.57 272.212 233.102 271.743 232.874 271.057C232.688 270.31 232.611 269.539 232.646 268.77C232.646 268.084 232.646 267.626 233.102 267.386C233.854 267.191 234.617 267.038 235.386 266.929C236.299 266.689 237.224 266.231 238.149 266.003C238.918 265.887 239.68 265.73 240.433 265.534C240.901 265.305 240.901 264.848 240.673 264.39C240.358 263.878 239.973 263.413 239.531 263.007C239.063 262.538 238.606 262.08 238.606 261.623H228.101C226.442 261.699 224.779 261.619 223.134 261.383C222.837 261.326 222.552 261.246 222.266 261.177C221.432 260.886 220.558 260.724 219.675 260.697C218.141 260.887 216.595 260.963 215.05 260.925C213.669 260.697 212.767 259.782 211.625 258.387C210.483 256.992 209.09 255.139 207.925 253.984C206.761 252.829 205.859 252.372 205.642 251.903C205.425 251.434 205.881 250.977 206.11 250.291C206.339 249.456 206.339 248.575 206.11 247.74C205.879 246.785 205.398 245.909 204.717 245.202C203.862 244.431 202.837 243.874 201.725 243.578C200.332 243.121 198.494 242.663 197.329 242.194C196.562 241.986 195.904 241.49 195.491 240.811C195.42 240.677 195.366 240.535 195.331 240.388C194.641 240.681 193.921 240.9 193.184 241.039C192.499 241.268 192.499 241.737 192.499 242.183V243.807C192.549 244.509 192.472 245.214 192.271 245.888C192.031 246.345 191.574 246.345 190.878 246.117C189.795 245.656 188.63 245.418 187.452 245.419C185.603 245.419 182.885 245.888 180.99 245.888C179.838 245.813 178.694 245.656 177.564 245.419C176.868 245.419 176.423 245.888 175.715 246.117C174.97 246.34 174.176 246.34 173.431 246.117C172.734 245.888 172.289 245.419 171.581 245.419C170.792 245.546 170.023 245.781 169.298 246.117C168.7 246.305 168.073 246.382 167.448 246.345H165.164C164.613 246.399 164.057 246.321 163.543 246.117C163.029 245.805 162.564 245.42 162.161 244.973L160.54 243.349C159.786 242.645 159.092 241.88 158.462 241.062C158.005 240.365 158.005 239.919 157.777 239.679C157.548 239.438 157.08 239.438 156.155 239.438H148.768C148.141 239.366 147.506 239.448 146.918 239.679C146.461 239.907 145.993 240.365 144.634 241.291C142.795 242.423 141.022 243.66 139.325 244.996C137.715 246.38 136.79 247.763 136.094 248.232C135.397 248.701 134.952 248.232 134.472 247.763C133.993 247.294 133.559 246.848 133.091 246.848C132.622 246.848 132.166 247.306 131.481 248.69C130.796 250.073 129.859 252.395 129.197 253.55C128.535 254.705 128.055 254.693 127.587 254.693C127.115 254.73 126.641 254.652 126.205 254.464C125.737 254.236 125.281 253.767 124.812 253.767C124.344 253.767 123.888 254.236 123.431 254.464C122.974 254.693 122.506 254.693 122.049 254.922C121.532 255.233 121.063 255.618 120.656 256.065C120.152 256.508 119.76 257.064 119.514 257.689C119.286 258.387 119.286 259.301 119.058 259.77C118.829 260.239 118.361 260.228 117.916 260.697C117.471 261.165 116.991 262.08 116.523 262.309C116.055 262.538 115.598 262.08 114.913 261.623C114.228 261.165 113.292 260.697 112.629 260.228C111.967 259.759 111.487 259.302 111.008 259.084C110.772 258.964 110.508 258.911 110.244 258.931C109.98 258.951 109.727 259.044 109.512 259.199C108.38 259.719 107.159 260.018 105.915 260.079C106.155 261.646 106.452 263.029 106.623 264.402C106.827 266.476 106.903 268.561 106.852 270.645C106.852 273.195 106.852 276.432 106.623 279.199C106.395 281.966 105.927 284.288 105.482 287.295C105.402 287.787 105.333 288.301 105.253 288.827C104.865 291.515 104.442 294.648 103.86 297.976C103.175 301.909 102.25 306.072 101.577 308.61C101.1 309.97 100.719 311.361 100.435 312.773C100.466 313.093 100.565 313.404 100.724 313.684C100.883 313.964 101.1 314.207 101.36 314.397C101.816 314.854 102.284 315.311 102.501 317.393C102.718 319.474 102.73 323.179 103.198 325.489C103.352 326.398 103.698 327.264 104.214 328.027L104.328 328.176C104.424 328.319 104.527 328.456 104.637 328.588L104.888 328.897L105.299 329.365C105.39 329.468 105.482 329.583 105.584 329.686L106.155 330.28L106.452 330.589L107.48 331.618C112.07 336.19 116.397 341.02 120.439 346.084C124.596 354.409 128.067 361.338 130.259 365.272C131.285 367.199 132.473 369.036 133.81 370.761C133.981 370.978 134.141 371.184 134.29 371.402C135.196 372.664 135.961 374.021 136.573 375.45C136.923 376.125 137.043 376.895 136.916 377.645C136.802 377.988 136.573 377.988 135.877 378.217C135.18 378.446 134.027 378.914 133.684 379.841C133.342 380.767 133.799 382.128 135.18 384.232C136.824 386.563 138.596 388.8 140.49 390.933C142.111 392.785 143.036 393.712 143.915 394.638L146.507 397.234C147.101 397.765 147.627 398.368 148.071 399.029C148.177 399.171 148.234 399.344 148.234 399.521C148.234 399.698 148.177 399.87 148.071 400.013C147.889 400.184 147.66 400.184 146.929 399.784C146.199 399.384 145.08 398.572 144.497 398.274C143.915 397.977 143.926 398.217 143.926 398.515C143.926 398.812 143.926 399.143 144.612 399.727C145.594 400.481 146.683 401.086 147.843 401.522C148.117 401.614 148.38 401.682 148.619 401.739L148.905 401.796L149.339 401.877L149.738 401.945L150.115 402.002L150.618 402.094C151.375 402.343 152.079 402.731 152.696 403.237C153.62 403.878 154.979 404.804 156.623 405.73C158.268 406.656 160.049 407.571 161.465 408.269C162.383 408.84 163.403 409.228 164.468 409.412C165.164 409.412 165.61 408.955 166.089 408.269C166.569 407.583 167.014 406.645 167.471 406.416C167.927 406.188 168.396 406.645 168.852 407.343C169.309 408.04 169.777 408.966 170.245 409.63C170.661 410.279 171.21 410.832 171.855 411.253C172.752 411.804 173.678 412.304 174.63 412.751C176.082 413.408 177.41 414.309 178.558 415.416C185.477 422.346 191.015 427.206 194.258 429.87C197.5 432.534 198.414 432.98 198.825 433.449C199.236 433.918 199.282 434.376 200.321 436.342C201.36 438.309 203.438 441.774 208.987 450.065C210.369 452.832 210.369 453.495 210.129 454.57C209.889 455.645 209.432 456.995 208.987 458.618C208.542 460.242 208.062 462.049 207.845 463.192C207.706 463.611 207.656 464.054 207.697 464.493C207.739 464.932 207.871 465.357 208.085 465.743C208.899 467.221 209.864 468.612 210.962 469.894C212.736 471.893 214.358 474.022 215.815 476.263C217.083 478.459 217.551 480.54 218.236 481.58C218.921 482.621 219.857 482.621 220.314 482.038C220.746 481.097 220.946 480.065 220.896 479.03C220.953 477.884 221.188 476.754 221.593 475.68C221.935 474.982 222.392 474.982 222.974 475.337C224.427 476.489 225.779 477.763 227.016 479.145C231.173 480.54 231.173 481.923 231.287 483.078C231.282 483.989 231.566 484.878 232.097 485.617C232.287 485.815 232.535 485.945 232.805 485.988C233.075 486.032 233.352 485.986 233.593 485.857C233.936 485.617 233.936 485.16 234.176 483.776C234.544 481.944 234.773 480.086 234.861 478.218C234.861 476.377 234.404 474.982 234.518 472.558C234.632 470.134 235.329 466.669 235.329 463.89C235.329 462.506 237.407 460.459 238.446 459.144C239.485 457.829 239.485 457.418 239.017 456.949C238.262 456.405 237.565 455.785 236.939 455.096C236.242 454.181 235.797 452.809 235.9 449.321C236.002 445.834 236.71 440.345 235.34 433.449C234.76 433.384 234.177 433.357 233.593 433.369C231.848 433.499 230.092 433.341 228.398 432.9C227.016 432.443 225.623 431.517 224.47 431.059C223.317 430.602 222.392 430.59 221.467 430.133C220.53 429.561 219.676 428.86 218.932 428.052C218.268 427.518 217.785 426.791 217.551 425.971C217.356 424.838 217.279 423.688 217.322 422.54C217.322 421.397 217.322 420.459 216.626 419.99C215.659 419.63 214.65 419.396 213.623 419.292C213.218 419.227 212.845 419.036 212.554 418.747C212.263 418.458 212.07 418.085 212.002 417.68C211.789 416.38 211.713 415.062 211.773 413.746C211.819 411.569 211.589 409.394 211.088 407.274C210.258 403.987 209.256 400.746 208.085 397.565C207.449 396.076 206.908 394.549 206.464 392.991C206.21 391.525 206.288 390.021 206.692 388.589C207.16 386.748 208.085 384.426 208.976 381.659C209.866 378.892 210.814 375.644 211.259 373.563C211.705 371.482 211.716 370.555 213.543 369.4C216.076 368.078 218.697 366.932 221.387 365.97C222.822 365.545 224.157 364.838 225.315 363.889C226.09 363.063 226.575 362.007 226.697 360.881C226.894 359.365 226.974 357.836 226.936 356.307C227.018 355.644 226.958 354.971 226.762 354.332C226.565 353.693 226.235 353.104 225.795 352.602C224.287 351.02 222.665 349.553 220.942 348.211C219.795 347.464 218.978 346.306 218.658 344.975C218.19 343.351 217.733 340.583 217.277 338.96C217.008 337.947 216.534 337.001 215.884 336.181C215.366 335.403 214.98 334.546 214.742 333.642C214.514 332.73 214.514 331.776 214.742 330.863C215.027 329.953 215.459 329.096 216.021 328.325Z" fill="#BFC3C8"/>
<path d="M307.104 376.959C306.854 376.426 306.544 375.923 306.179 375.461C305.836 374.992 305.597 374.764 305.836 374.318C306.076 373.872 306.75 373.174 307.104 372.579C307.458 371.985 307.446 371.539 307.675 371.31C307.903 371.081 308.371 371.081 308.371 370.727C308.218 370.195 307.983 369.689 307.675 369.229C307.446 368.76 307.446 368.531 307.218 368.417C306.846 368.302 306.448 368.302 306.076 368.417C305.63 368.584 305.167 368.699 304.694 368.76C304.237 368.665 303.769 368.627 303.301 368.646C302.845 368.76 302.377 369.229 301.794 369.24C301.168 369.146 300.569 368.92 300.036 368.577C299.579 368.348 299.362 368.326 299.259 368.577C299.196 368.766 299.175 368.965 299.197 369.163C299.219 369.36 299.283 369.551 299.385 369.721C299.641 370.209 300.039 370.608 300.527 370.864C300.995 371.104 301.452 371.104 301.452 371.676C301.304 372.494 301.114 373.303 300.881 374.1C300.767 374.798 300.995 375.027 301.566 374.912C302.137 374.798 303.073 374.341 303.416 374.341C303.758 374.341 303.53 374.798 303.655 375.267C303.869 375.815 304.275 376.267 304.797 376.536C305.338 376.843 305.918 377.074 306.521 377.222C306.99 377.348 307.218 377.348 307.104 376.959Z" fill="#BFC3C8"/>
<path d="M17.0137 263.751C17.4704 263.865 17.7102 264.094 17.7102 263.865C17.6178 263.394 17.4996 262.928 17.3562 262.47C17.2421 262.013 17.2421 261.784 17.0137 261.669C16.7994 261.604 16.5728 261.591 16.3525 261.631C16.1322 261.671 15.9244 261.762 15.7463 261.898C15.157 262.36 14.5391 262.784 13.8965 263.167C13.3142 263.396 12.8575 263.167 12.6291 263.636C12.4008 264.105 12.4008 265.249 12.8575 265.363C13.3142 265.477 14.2391 264.551 15.0498 264.094C15.6353 263.729 16.3394 263.606 17.0137 263.751Z" fill="#BFC3C8"/>
<path d="M13.8966 259.657C13.7824 259.657 13.7824 259.886 13.6682 259.886C13.554 259.886 13.3142 259.657 13.0859 259.657C12.9598 259.679 12.8412 259.732 12.7413 259.812C12.6414 259.892 12.5636 259.996 12.515 260.115C12.4575 260.201 12.4269 260.303 12.4269 260.406C12.4269 260.51 12.4575 260.612 12.515 260.698C12.6292 260.812 12.8575 260.812 13.0859 260.927C13.3142 261.041 13.554 261.27 13.7824 261.384C13.8642 261.447 13.9646 261.481 14.0678 261.481C14.1711 261.481 14.2715 261.447 14.3533 261.384C14.3837 261.354 14.4078 261.319 14.4243 261.28C14.4408 261.24 14.4493 261.198 14.4493 261.155C14.4493 261.113 14.4408 261.071 14.4243 261.031C14.4078 260.992 14.3837 260.957 14.3533 260.927C14.2391 260.812 14.0107 260.812 14.0107 260.698C14.0107 260.584 14.2391 260.344 14.2391 260.115C14.2336 260.013 14.1981 259.916 14.1371 259.834C14.0761 259.753 13.9924 259.691 13.8966 259.657Z" fill="#BFC3C8"/>
<path d="M17.3563 282.424C17.0137 282.31 16.7854 282.31 16.6712 282.196C16.557 282.081 16.557 281.852 16.4314 281.738C16.3967 281.707 16.355 281.685 16.31 281.674C16.265 281.663 16.2179 281.664 16.173 281.675C16.128 281.686 16.0865 281.708 16.0519 281.739C16.0174 281.77 15.9909 281.809 15.9747 281.852C15.8605 282.081 15.8605 282.55 15.7463 282.664C15.6321 282.779 15.3924 282.55 15.2782 282.664C15.1673 282.96 15.1282 283.277 15.164 283.591C15.1369 283.863 15.1761 284.137 15.2782 284.391C15.3924 284.62 15.6321 284.86 15.7463 284.86C15.8605 284.86 15.8605 284.62 15.8605 284.391C15.8307 284.193 15.8711 283.991 15.9747 283.819C16.0889 283.705 16.3172 283.705 16.4314 283.591C16.5456 283.476 16.557 283.236 16.6712 283.122C16.7557 283.065 16.855 283.035 16.9566 283.035C17.0583 283.035 17.1576 283.065 17.2421 283.122C17.4705 283.236 17.7102 283.465 17.9386 283.591C18.0231 283.647 18.1224 283.677 18.2241 283.677C18.3257 283.677 18.425 283.647 18.5095 283.591C18.6237 283.465 18.6237 283.236 18.3953 283.007C18.0891 282.749 17.7365 282.551 17.3563 282.424Z" fill="#BFC3C8"/>
<path d="M13.2001 280.343C13.1148 280.085 13.0762 279.814 13.0859 279.543C13.0859 279.302 13.0859 279.074 12.8575 279.074C12.6292 279.074 12.161 279.302 11.9327 279.302C11.7043 279.302 11.7043 279.074 11.4759 278.959C11.2476 278.845 10.7794 278.845 10.6652 279.074C10.5511 279.302 10.7794 279.771 10.8936 280.583C11.0084 281.426 11.0084 282.28 10.8936 283.122C10.7794 283.705 10.5511 283.705 10.2085 284.048C9.81145 284.422 9.53005 284.902 9.39783 285.432C9.39783 285.786 9.85455 285.786 10.2085 285.66C10.5373 285.512 10.8446 285.32 11.122 285.089C11.4317 284.861 11.7857 284.701 12.161 284.62C12.4008 284.62 12.4008 284.86 12.515 285.089C12.5636 285.207 12.6415 285.311 12.7413 285.391C12.8412 285.471 12.9598 285.525 13.0859 285.546C13.2056 285.538 13.3186 285.488 13.4045 285.404C13.4903 285.32 13.5434 285.208 13.554 285.089C13.554 284.86 13.3143 284.62 13.2001 284.277C13.0852 283.939 13.0852 283.574 13.2001 283.236C13.3143 283.007 13.554 283.008 13.6682 282.779C13.7827 282.406 13.7827 282.008 13.6682 281.635C13.554 281.155 13.3143 280.698 13.2001 280.343Z" fill="#BFC3C8"/>
<path d="M24.367 224.276C24.9326 223.886 25.474 223.462 25.9884 223.006C26.4451 222.663 26.6735 222.663 26.9019 222.423C27.176 222.143 27.3418 221.774 27.37 221.383C27.37 221.04 27.1416 220.811 26.7877 220.468C26.4337 220.125 25.9884 219.656 25.6459 219.77C25.3033 219.885 25.075 220.582 24.6068 221.04C24.1387 221.497 23.465 221.737 23.2252 222.183C23.1501 222.455 23.1317 222.739 23.171 223.019C23.2102 223.298 23.3064 223.566 23.4536 223.807C23.7048 224.276 23.9446 224.504 24.367 224.276Z" fill="#BFC3C8"/>
<path d="M39.4046 250.989C39.1261 250.779 38.813 250.621 38.4798 250.52C38.023 250.405 37.3379 250.405 36.984 250.062C36.6853 249.577 36.5642 249.003 36.6414 248.438C36.6122 247.974 36.6507 247.508 36.7556 247.055C36.8698 246.712 37.0982 246.472 36.984 246.129C36.7169 245.646 36.3649 245.216 35.9449 244.859C35.4882 244.39 35.0201 243.933 34.8031 243.933C34.5862 243.933 34.5747 244.39 34.335 244.631C34.2083 244.741 34.0461 244.801 33.8782 244.801C33.7104 244.801 33.5482 244.741 33.4215 244.631C33.1817 244.39 33.1817 243.933 33.0676 243.704C32.9534 243.476 32.725 243.464 32.6108 243.704C32.5307 244.063 32.412 244.412 32.2569 244.745C32.0285 245.088 31.5718 245.317 31.3434 245.786C31.115 246.254 31.1036 246.929 30.9894 247.055C30.8753 247.181 30.6469 246.712 30.4185 246.586C30.1902 246.46 29.9504 246.712 29.722 247.169C29.5415 247.655 29.3079 248.119 29.0255 248.553C28.7972 248.782 28.5688 248.553 28.5688 248.324C28.5688 248.095 28.7972 247.867 28.9113 247.512C29.0117 247.097 29.0501 246.669 29.0255 246.243C28.9927 245.857 29.0353 245.469 29.1511 245.099C29.2653 244.871 29.4937 244.871 29.6079 244.756C29.6653 244.67 29.6959 244.569 29.6959 244.465C29.6959 244.361 29.6653 244.26 29.6079 244.173C29.478 243.926 29.2744 243.727 29.0255 243.601C28.9437 243.538 28.8433 243.504 28.7401 243.504C28.6368 243.504 28.5365 243.538 28.4546 243.601C28.3511 243.773 28.3107 243.975 28.3404 244.173C28.3701 244.375 28.3298 244.581 28.2263 244.756C28.1007 244.871 27.8723 244.871 27.5297 244.756C27.1958 244.604 26.8478 244.486 26.4907 244.402C26.2623 244.402 26.2623 244.642 26.1482 244.756C26.034 244.871 25.7942 244.871 25.68 244.985C25.6236 245.07 25.5934 245.169 25.5934 245.271C25.5934 245.373 25.6236 245.472 25.68 245.557C25.7942 245.797 26.034 246.026 26.034 246.369C25.9307 246.851 25.7536 247.313 25.5087 247.741C25.3258 248.302 25.0926 248.846 24.8122 249.365C24.5839 249.708 24.3555 249.708 24.2413 249.593C24.1271 249.479 24.1271 249.25 24.013 249.136C23.8988 249.022 23.659 249.022 23.5448 248.782C23.4387 248.41 23.4 248.023 23.4306 247.638C23.4598 247.253 23.4211 246.866 23.3164 246.495C23.2023 246.266 22.9739 246.266 22.6199 246.609C22.2221 247.132 21.7576 247.601 21.2383 248.004C20.7588 248.213 20.257 248.367 19.7426 248.461C19.5028 248.576 19.7426 248.804 19.7426 249.159C19.6722 249.609 19.5131 250.04 19.2744 250.428C19.0461 250.886 18.8177 251.355 18.9319 251.572C19.0461 251.789 19.5028 251.8 19.9709 251.457C20.4391 251.114 20.8958 250.417 21.2383 250.314C21.5809 250.211 21.8207 250.657 22.1632 251.011C22.4564 251.26 22.7653 251.489 23.0881 251.698C23.2023 251.812 22.9739 251.812 22.8597 252.052C22.7968 252.196 22.7644 252.352 22.7644 252.509C22.7644 252.667 22.7968 252.823 22.8597 252.967C22.9739 253.207 23.2023 253.207 23.659 253.207C24.202 253.188 24.7454 253.226 25.2804 253.321C25.7371 253.436 25.9769 253.664 25.8513 253.893C25.7257 254.122 25.2804 254.362 25.052 254.705C24.8784 255.067 24.7591 255.452 24.698 255.849C24.6418 256.027 24.5375 256.187 24.3964 256.31C24.2554 256.433 24.0832 256.515 23.8988 256.546C23.2876 256.661 22.6602 256.661 22.049 256.546C21.4393 256.395 20.8218 256.276 20.1993 256.192C19.7426 256.192 19.5028 256.432 19.2744 256.432C19.0461 256.432 18.8177 256.192 18.7035 255.963C18.5893 255.734 18.5779 255.506 18.4637 255.277C18.3495 255.048 18.1212 254.808 18.1212 254.579C18.1447 254.452 18.1986 254.333 18.2781 254.232C18.3576 254.13 18.4605 254.049 18.5779 253.996C18.8177 253.882 19.0461 253.882 19.1602 253.767C19.191 253.733 19.2128 253.691 19.2238 253.646C19.2348 253.601 19.2347 253.554 19.2234 253.509C19.2122 253.463 19.1902 253.422 19.1593 253.387C19.1283 253.353 19.0895 253.326 19.0461 253.31C18.6701 253.212 18.2889 253.136 17.9042 253.081C17.5314 252.939 17.1501 252.821 16.7624 252.727C16.5341 252.727 16.5341 252.955 16.6482 253.196C16.7624 253.436 16.9908 253.653 17.105 253.882C17.2226 254.179 17.2226 254.51 17.105 254.808C16.926 255.29 16.8483 255.804 16.8766 256.317C16.9908 256.66 17.4475 256.66 17.8015 256.775C18.1132 256.898 18.3884 257.099 18.6007 257.358C18.8405 257.587 19.0689 257.815 19.2973 257.815C19.5256 257.815 19.7654 257.587 19.9938 257.472C20.0993 257.416 20.2169 257.387 20.3363 257.387C20.4557 257.387 20.5734 257.416 20.6789 257.472C20.9676 257.635 21.2079 257.872 21.3754 258.158C21.6473 258.534 21.8094 258.977 21.8435 259.439C21.7853 259.825 21.7052 260.206 21.6037 260.583C21.6037 260.811 21.8435 260.811 22.0719 260.697C22.3835 260.473 22.7368 260.314 23.1109 260.228C23.6818 260.114 24.6067 260.114 25.3032 260C25.838 259.922 26.3489 259.727 26.799 259.428C27.1185 259.247 27.3649 258.96 27.4955 258.616C27.6072 258.243 27.6072 257.845 27.4955 257.472C27.3707 257.187 27.2177 256.915 27.0388 256.66C26.9679 256.551 26.9403 256.419 26.9614 256.29C26.9825 256.161 27.0508 256.044 27.1529 255.963C27.551 255.656 27.975 255.384 28.4204 255.151C29.1002 254.788 29.6895 254.276 30.1445 253.653C30.6127 252.955 30.841 252.041 31.1836 251.457C31.2833 251.252 31.4289 251.071 31.609 250.931C31.7891 250.79 31.999 250.692 32.2226 250.646C32.4624 250.646 32.4624 250.874 32.8049 251C33.3387 251.104 33.8832 251.143 34.4263 251.114C34.8796 251.069 35.3372 251.088 35.7851 251.172C35.9471 251.223 36.0947 251.311 36.2158 251.431C36.3369 251.55 36.428 251.696 36.4816 251.858C36.5958 252.212 36.5958 252.67 36.7099 252.898C36.8241 253.127 37.0525 253.138 37.6348 252.784C38.2877 252.379 38.9029 251.916 39.4731 251.4C39.8728 251.103 39.633 251.103 39.4046 250.989Z" fill="#BFC3C8"/>
<path d="M10.3227 251.171C10.7725 251.294 11.2003 251.487 11.5901 251.743C11.9326 251.983 12.161 252.212 12.4008 252.212C12.6405 252.212 12.8575 251.983 12.9717 251.628C13.0865 251.291 13.0865 250.925 12.9717 250.588C12.8575 250.359 12.6291 250.359 12.515 250.245C12.4008 250.13 12.4008 249.902 12.515 249.547C12.7014 249.098 12.8541 248.636 12.9717 248.164C13.0859 247.58 13.0859 246.894 13.2 246.54C13.3142 246.185 13.554 246.197 13.6682 246.082C13.7824 245.968 13.7824 245.739 13.8965 245.156C14.0917 244.442 14.1688 243.7 14.1249 242.961C13.9661 242.432 13.7356 241.928 13.4398 241.463C13.4165 241.394 13.4068 241.322 13.4114 241.25C13.416 241.178 13.4347 241.107 13.4666 241.043C13.4984 240.978 13.5427 240.92 13.5968 240.872C13.651 240.825 13.7141 240.788 13.7824 240.765C14.0018 240.671 14.2409 240.632 14.4789 240.651C14.7131 240.669 14.9482 240.629 15.164 240.536C15.4111 240.403 15.6136 240.201 15.7463 239.953C15.8605 239.724 15.8605 239.496 15.6321 239.381C15.2611 239.276 14.8746 239.238 14.4903 239.267C14.0224 239.288 13.5539 239.245 13.0973 239.141C12.6863 238.988 12.262 238.873 11.8299 238.798C11.4873 238.798 11.2475 239.027 11.0192 239.381C10.7432 239.817 10.5135 240.281 10.3341 240.765C10.0579 241.3 9.93536 241.902 9.98012 242.503C10.0943 242.961 10.5624 243.189 10.7908 243.544C10.8956 243.736 10.9598 243.948 10.9795 244.167C10.9991 244.385 10.9737 244.605 10.905 244.813C10.8389 245.215 10.6374 245.582 10.3341 245.854C10.0943 245.968 9.86594 245.739 9.63757 245.499C9.40921 245.259 9.16943 245.042 9.05525 245.042C8.94107 245.042 8.94107 245.27 9.05525 245.625C9.20463 246.051 9.44195 246.441 9.75176 246.768C10.0943 247.112 10.5624 247.34 10.7908 247.569C11.0192 247.798 11.0192 248.038 10.905 248.152C10.7908 248.266 10.5624 248.267 10.4483 248.61C10.3341 248.953 10.3341 249.65 10.2199 250.005C10.2093 250.067 10.1828 250.125 10.1431 250.174C10.1034 250.223 10.0517 250.261 9.99316 250.284C9.93459 250.307 9.87108 250.314 9.80879 250.305C9.74649 250.296 9.68752 250.272 9.63757 250.233C9.40921 250.119 9.16943 249.89 8.94107 249.765C8.83124 249.698 8.70092 249.674 8.57471 249.697C8.44849 249.721 8.33511 249.789 8.25598 249.89C8.01619 250.119 7.78783 250.576 7.44529 250.931C7.1684 251.227 6.80445 251.428 6.40624 251.503C6.17787 251.503 6.17787 251.274 6.06369 251.274C5.94951 251.274 5.70973 251.503 5.59554 251.731C5.54513 251.844 5.52053 251.966 5.52357 252.089C5.5266 252.212 5.55718 252.333 5.61306 252.443C5.66894 252.553 5.7487 252.648 5.84645 252.723C5.9442 252.798 6.05746 252.85 6.17787 252.875C6.40623 252.875 6.6346 252.646 6.86296 252.418C7.11367 252.163 7.38481 251.93 7.67365 251.72C8.0623 251.462 8.49039 251.269 8.94107 251.148C9.39662 251.043 9.87082 251.051 10.3227 251.171Z" fill="#BFC3C8"/>
<path d="M18.5095 237.575C18.5698 237.603 18.6359 237.616 18.7022 237.613C18.7685 237.609 18.8331 237.59 18.8903 237.556C18.9475 237.523 18.9958 237.476 19.0309 237.419C19.0659 237.363 19.0869 237.298 19.0918 237.232C19.0918 236.992 18.8634 236.763 18.9776 236.649C19.0918 236.535 19.5485 236.535 19.9025 236.42C20.2338 236.265 20.5444 236.069 20.8274 235.837C21.1699 235.608 21.6266 235.38 21.8664 235.723C22.1062 236.066 22.0948 236.992 22.3231 237.575C22.5515 238.158 23.0197 238.387 23.248 238.719C23.3477 238.89 23.4096 239.081 23.4293 239.278C23.449 239.475 23.4261 239.675 23.3622 239.862C23.248 240.205 23.0196 240.445 23.1338 240.674C23.248 240.903 23.7047 241.132 23.9445 241.36C24.1843 241.589 24.1729 241.829 24.4012 241.715C24.6296 241.6 25.0978 241.132 25.5431 240.789C25.9884 240.445 26.4679 240.205 26.3538 240.091C26.2396 239.977 25.5431 239.977 25.2119 239.519C24.9026 238.954 24.8209 238.291 24.9836 237.667C25.0978 237.209 25.3261 237.209 25.5545 237.083C25.6897 237.037 25.8013 236.939 25.8653 236.81C25.9293 236.682 25.9407 236.534 25.897 236.397C25.7828 236.043 25.3261 235.585 25.2119 235.254C25.0978 234.922 25.3261 234.671 25.4403 234.328C25.5191 234.153 25.5394 233.957 25.4983 233.769C25.4572 233.582 25.3567 233.413 25.2119 233.287C24.6973 233.083 24.1415 233.004 23.5906 233.058C23.0892 233.035 22.5868 233.073 22.0948 233.173C21.6117 233.314 21.1448 233.505 20.7018 233.744C20.2639 233.989 19.8006 234.184 19.3202 234.328C18.904 234.417 18.4783 234.456 18.0528 234.442C17.7102 234.442 17.4704 234.442 17.3562 234.556C17.2421 234.671 17.2421 234.899 17.2421 235.254C17.2164 235.689 17.2947 236.124 17.4704 236.523C17.6908 236.979 18.0563 237.35 18.5095 237.575Z" fill="#BFC3C8"/>
<path d="M320.954 464.165C320.617 464.051 320.269 463.974 319.915 463.936C319.437 463.822 319 463.581 318.648 463.239C318.294 462.896 318.065 462.427 317.837 462.312C317.608 462.198 317.38 462.427 316.912 462.312C316.371 462.146 315.89 461.824 315.53 461.386C315.302 461.043 315.53 460.814 315.53 460.586C315.53 460.357 315.302 460.117 315.176 459.888C315.112 459.776 315.089 459.644 315.112 459.516C315.135 459.389 315.202 459.273 315.302 459.191C315.586 458.924 315.953 458.762 316.341 458.733C316.684 458.733 316.912 458.962 317.026 458.962C317.14 458.962 317.14 458.733 317.14 458.505C317.171 458.303 317.131 458.097 317.026 457.921C316.912 457.807 316.684 457.807 316.455 457.578C316.185 457.295 316.02 456.928 315.987 456.538C316.026 456.239 316.149 455.958 316.341 455.726C316.434 455.506 316.473 455.266 316.455 455.028C316.485 454.83 316.445 454.628 316.341 454.456C316.255 454.399 316.153 454.368 316.05 454.368C315.946 454.368 315.845 454.399 315.759 454.456C315.504 454.636 315.233 454.789 314.948 454.914C314.533 455.029 314.095 455.029 313.681 454.914C313.224 454.799 312.756 454.571 312.185 454.456C311.535 454.343 310.871 454.343 310.221 454.456C309.611 454.605 308.994 454.719 308.371 454.799C308.206 454.811 308.041 454.774 307.897 454.693C307.753 454.611 307.636 454.489 307.56 454.342C307.446 454.102 307.446 453.873 307.332 453.759C307.246 453.701 307.145 453.671 307.041 453.671C306.937 453.671 306.836 453.701 306.75 453.759C306.503 453.889 306.304 454.093 306.179 454.342C306.122 454.427 306.092 454.526 306.092 454.628C306.092 454.73 306.122 454.829 306.179 454.914C306.293 455.028 306.521 455.028 306.636 455.143C306.75 455.257 306.75 455.497 306.875 455.726C307.095 456.039 307.25 456.393 307.332 456.766C307.447 457.494 307.447 458.235 307.332 458.962C307.218 459.659 306.99 460.105 306.99 460.346C306.99 460.586 307.218 460.586 307.56 460.586C307.945 460.568 308.329 460.606 308.702 460.7C308.888 460.766 309.056 460.872 309.196 461.01C309.336 461.149 309.444 461.316 309.513 461.501C309.735 462.065 310.006 462.608 310.324 463.124C310.511 463.368 310.757 463.56 311.038 463.682C311.32 463.804 311.628 463.852 311.934 463.822C312.744 463.822 313.898 463.582 314.48 463.582C315.062 463.582 315.051 463.822 315.051 464.165C315.028 464.37 315.048 464.577 315.109 464.774C315.17 464.97 315.27 465.153 315.405 465.309C315.747 465.652 316.444 465.892 316.672 466.235C316.901 466.578 316.672 467.047 316.672 467.378C316.676 467.542 316.734 467.699 316.838 467.826C316.941 467.952 317.084 468.04 317.243 468.076C317.597 468.19 318.054 468.19 318.385 468.305C318.716 468.419 318.956 468.648 319.184 468.648C319.413 468.648 319.652 468.419 319.881 467.961C320.137 467.455 320.293 466.904 320.337 466.338C320.337 465.88 320.109 465.64 320.109 465.411C320.109 465.183 320.337 464.954 320.577 464.714C320.817 464.474 321.068 464.279 320.954 464.165Z" fill="#BFC3C8"/>
<path d="M5.46994 307.284C4.99774 307.32 4.52382 307.242 4.08834 307.055C3.62019 306.826 3.16347 306.358 2.69532 306.358C2.22718 306.358 1.77045 306.826 1.31373 307.055C0.857 307.284 0.388855 307.284 0.17191 307.513C0.0610106 307.641 0 307.806 0 307.976C0 308.146 0.0610106 308.31 0.17191 308.439C0.515201 308.644 0.918205 308.724 1.31373 308.668C1.77045 308.668 2.2386 308.668 2.45554 308.908C2.56703 309.077 2.62644 309.276 2.62644 309.479C2.62644 309.683 2.56703 309.881 2.45554 310.051C2.22718 310.509 1.75904 310.978 1.75904 311.435C1.77175 311.641 1.84454 311.838 1.96837 312.003C2.09219 312.167 2.2616 312.292 2.45554 312.361C2.6839 312.361 2.6839 311.892 2.92369 311.664C3.16347 311.435 3.60878 311.435 3.83714 311.206C4.0655 310.978 4.07692 310.509 4.30528 310.28C4.53365 310.051 5.00179 310.051 5.23015 309.811C5.45852 309.571 5.45852 309.125 5.68688 308.668C5.91524 308.21 6.38339 307.741 6.38339 307.524C6.38339 307.307 5.92666 307.284 5.46994 307.284Z" fill="#BFC3C8"/>
</svg>
