<svg width="180" height="64" viewBox="0 0 180 64" fill="none" xmlns="http://www.w3.org/2000/svg">
<path d="M8.856 13.484V11.672H7.956V12.692H7.212V11.468H6.24V14.804H7.212V13.484H8.856ZM7.74 7.232V6.68H9.72V7.232H7.74ZM9.72 5.252V5.816H7.74V5.252H9.72ZM2.328 6.68H4.248V7.232H2.328V6.68ZM4.248 5.252V5.816H2.328V5.252H4.248ZM11.1 4.292H6.384V8.192H6.936C6.804 8.408 6.648 8.66 6.492 8.876C6.396 8.804 6.3 8.732 6.216 8.672L5.7 9.2C6.072 9.488 6.48 9.872 6.756 10.196C6.612 10.352 6.456 10.496 6.312 10.628L5.94 10.652L5.952 10.676C5.832 10.424 5.688 10.172 5.532 9.944L4.848 10.16C4.92 10.268 4.98 10.376 5.04 10.496L4.368 10.544C4.824 10.124 5.316 9.596 5.724 9.14L5.004 8.804C4.836 9.044 4.608 9.332 4.368 9.608C4.296 9.524 4.2 9.44 4.104 9.344C4.368 9.056 4.692 8.648 5.016 8.264L4.836 8.192H5.592V4.292H0.96V15.044H2.328V8.192H4.044C3.912 8.42 3.744 8.672 3.6 8.9C3.504 8.828 3.408 8.756 3.312 8.696L2.868 9.26C3.204 9.524 3.6 9.872 3.864 10.184C3.72 10.328 3.576 10.484 3.444 10.604L2.76 10.652L2.856 11.42C3.6 11.36 4.452 11.288 5.352 11.204C5.376 11.3 5.4 11.384 5.424 11.468H4.716V12.596V12.692H3.996V11.672H3.12V13.484H4.488C4.296 13.772 3.948 14.024 3.312 14.204C3.504 14.384 3.816 14.744 3.924 14.972C5.436 14.468 5.664 13.556 5.664 12.62V11.468H5.496L6.072 11.276L6.108 11.42C6.792 11.36 7.596 11.3 8.412 11.216C8.46 11.348 8.484 11.456 8.508 11.564L9.264 11.324C9.168 10.928 8.892 10.316 8.58 9.872L7.86 10.088C7.944 10.22 8.028 10.376 8.112 10.52L7.284 10.58C7.752 10.148 8.256 9.632 8.688 9.164L7.92 8.816C7.752 9.056 7.536 9.332 7.296 9.608C7.212 9.524 7.128 9.428 7.02 9.344C7.308 9.032 7.632 8.648 7.944 8.264L7.764 8.192H9.72V13.388C9.72 13.544 9.672 13.604 9.516 13.604C9.36 13.616 8.892 13.616 8.448 13.592C8.628 13.964 8.796 14.6 8.844 14.984C9.636 14.984 10.176 14.96 10.596 14.72C11.004 14.492 11.1 14.084 11.1 13.4V4.292ZM15 8.264C15.012 7.844 15.024 7.412 15.036 6.98H17.688V5.66H15.78V3.848H14.364V5.66H12.492V6.98H13.656C13.632 9.98 13.536 12.488 12.252 14.06C12.6 14.3 13.056 14.78 13.26 15.128C14.388 13.784 14.796 11.84 14.94 9.56H15.924C15.876 12.356 15.792 13.364 15.636 13.592C15.54 13.748 15.444 13.784 15.288 13.772C15.096 13.772 14.772 13.772 14.376 13.736C14.58 14.096 14.724 14.648 14.748 15.032C15.252 15.044 15.72 15.044 16.032 14.984C16.368 14.924 16.596 14.804 16.836 14.48C17.148 14.036 17.208 12.62 17.268 8.828C17.28 8.66 17.28 8.264 17.28 8.264H15ZM17.976 12.524C19.38 13.184 21.132 14.252 21.948 15.044L22.896 13.796C22.032 13.004 20.208 12.02 18.828 11.42L17.976 12.524ZM22.056 10.124C21.612 9.584 20.688 8.852 19.932 8.372L18.996 9.272C19.752 9.788 20.652 10.58 21.036 11.132L22.056 10.124ZM19.632 3.8C19.224 5.264 18.288 7.124 17.124 7.952C17.352 8.312 17.64 8.9 17.772 9.32C18.972 8.432 19.92 6.764 20.376 5.444C20.856 6.8 21.804 8.42 23.016 9.296C23.208 8.828 23.46 8.24 23.712 7.844C22.584 7.172 21.6 5.456 21.024 3.8H19.632ZM35.292 6.08C34.944 5.516 34.152 4.724 33.516 4.172L32.436 4.904C33.084 5.48 33.828 6.332 34.14 6.884L35.292 6.08ZM33.756 8.984C33.444 9.56 33.048 10.1 32.616 10.616C32.484 10.004 32.364 9.308 32.268 8.588H35.388V7.232H32.124C32.028 6.176 31.98 5.06 32.004 3.944H30.504C30.516 5.036 30.552 6.152 30.648 7.232H28.344V5.612C29.04 5.468 29.7 5.312 30.3 5.132L29.34 3.92C28.116 4.316 26.256 4.7 24.576 4.928C24.732 5.252 24.924 5.78 24.984 6.128C25.596 6.056 26.256 5.972 26.904 5.864V7.232H24.636V8.588H26.904V10.196C25.956 10.364 25.092 10.496 24.408 10.604L24.756 12.044C25.392 11.924 26.136 11.768 26.904 11.612V13.352C26.904 13.544 26.832 13.604 26.616 13.604C26.4 13.616 25.704 13.628 25.032 13.592C25.236 13.988 25.476 14.636 25.536 15.032C26.508 15.044 27.228 14.984 27.696 14.756C28.176 14.528 28.344 14.144 28.344 13.364V11.312L30.3 10.916L30.192 9.62C29.58 9.728 28.956 9.848 28.344 9.956V8.588H30.78C30.924 9.764 31.128 10.856 31.392 11.804C30.564 12.488 29.64 13.076 28.716 13.496C29.064 13.82 29.46 14.312 29.664 14.648C30.432 14.252 31.188 13.76 31.884 13.184C32.4 14.36 33.072 15.08 33.948 15.08C35.04 15.08 35.484 14.552 35.712 12.452C35.328 12.296 34.848 11.972 34.536 11.636C34.476 13.052 34.332 13.628 34.08 13.628C33.72 13.628 33.348 13.076 33.024 12.152C33.804 11.372 34.476 10.496 35.016 9.524L33.756 8.984ZM42.084 5.552V6.236H41.1V5.552H42.084ZM41.1 7.964V7.256H42.084V7.964H41.1ZM43.164 4.472H39.792L39.864 4.244L38.544 3.848C38.016 5.612 37.128 7.364 36.168 8.48C36.396 8.852 36.744 9.68 36.852 10.016C37.104 9.728 37.356 9.392 37.596 9.032V15.032H38.952V6.572C39.264 5.888 39.54 5.18 39.78 4.496V15.008H41.1V9.044H43.164V4.472ZM44.832 7.964V7.256H45.9V7.964H44.832ZM45.9 5.552V6.236H44.832V5.552H45.9ZM47.268 4.472H43.704V9.044H45.9V13.364C45.9 13.592 45.816 13.664 45.588 13.664C45.348 13.676 44.52 13.688 43.788 13.64C43.968 14 44.184 14.624 44.244 15.02C45.372 15.02 46.128 14.984 46.62 14.756C47.1 14.552 47.268 14.168 47.268 13.376V4.472Z" fill="#F79C31"/>
<path d="M11.004 30.308H6.432V27.968H5.52V30.308H1.068V31.172H11.004V30.308ZM4.68 36.704C4.584 35.36 4.14 33.38 3.504 31.808L2.676 32.024C3.264 33.572 3.72 35.6 3.78 36.92L4.68 36.704ZM7.656 37.52C8.232 36.008 8.904 33.752 9.36 31.928L8.352 31.736C8.004 33.5 7.332 35.984 6.732 37.52H0.672V38.396H11.352V37.52H7.656ZM17.52 32.564H13.488V33.404H22.596V32.564H18.408V30.536H23.316V29.684H18.408V27.956H17.52V29.684H12.72V30.536H17.52V32.564ZM16.404 34.088C17.256 34.544 18.216 35.264 18.636 35.828L19.284 35.228C18.828 34.676 17.856 33.98 17.016 33.548L16.404 34.088ZM13.164 38.504C14.1 37.784 14.544 36.56 14.784 35.372L14.004 35.132C13.776 36.272 13.296 37.376 12.42 38.024L13.164 38.504ZM17.232 37.976C16.572 37.976 16.464 37.904 16.464 37.568V34.964H15.588V37.58C15.588 38.516 15.924 38.78 17.16 38.78H19.488C20.556 38.78 20.832 38.384 20.94 36.836C20.688 36.776 20.328 36.644 20.124 36.5C20.076 37.784 19.992 37.976 19.44 37.976H17.232ZM20.544 35.252C21.444 36.152 22.344 37.412 22.656 38.3L23.46 37.868C23.124 36.968 22.2 35.744 21.276 34.844L20.544 35.252ZM32.04 28.556C32.796 28.964 33.708 29.576 34.164 29.996L34.716 29.384C34.248 28.964 33.312 28.388 32.568 28.016L32.04 28.556ZM33.744 31.796C33.372 33.008 32.856 34.088 32.208 35.036C31.884 33.896 31.668 32.468 31.548 30.872H35.364V29.996H31.488C31.452 29.348 31.44 28.676 31.44 27.98H30.516C30.528 28.664 30.54 29.336 30.588 29.996H25.584V33.344C25.584 34.892 25.476 36.944 24.492 38.408C24.696 38.516 25.08 38.828 25.236 39.008C26.316 37.448 26.496 35.036 26.496 33.356V33.26H28.68C28.632 35.324 28.572 36.08 28.404 36.26C28.332 36.368 28.212 36.392 28.044 36.392C27.84 36.392 27.324 36.38 26.772 36.332C26.916 36.56 27.012 36.896 27.024 37.172C27.612 37.196 28.152 37.196 28.452 37.172C28.788 37.136 28.992 37.052 29.172 36.824C29.424 36.512 29.496 35.504 29.556 32.816V32.432H26.496V30.872H30.636C30.792 32.804 31.08 34.568 31.512 35.924C30.744 36.824 29.82 37.568 28.752 38.144C28.956 38.312 29.268 38.672 29.4 38.852C30.324 38.312 31.152 37.64 31.872 36.86C32.424 38.096 33.144 38.828 34.068 38.828C34.98 38.828 35.304 38.24 35.472 36.2C35.232 36.128 34.908 35.924 34.704 35.72C34.62 37.316 34.476 37.94 34.14 37.94C33.528 37.94 32.976 37.256 32.532 36.08C33.42 34.94 34.128 33.572 34.644 32.024L33.744 31.796ZM40.488 29.588C40.248 29.144 39.732 28.46 39.264 27.992L38.496 28.316C38.952 28.808 39.456 29.516 39.672 29.972L40.488 29.588ZM37.932 38.84C38.652 38.132 39.06 36.992 39.336 35.996L38.592 35.756C38.352 36.68 37.908 37.736 37.236 38.36L37.932 38.84ZM40.104 36.02C40.332 36.8 40.452 37.772 40.428 38.42L41.208 38.312C41.208 37.664 41.076 36.692 40.848 35.924L40.104 36.02ZM41.868 35.912C42.168 36.572 42.444 37.448 42.528 38.012L43.272 37.808C43.176 37.256 42.876 36.404 42.564 35.756L41.868 35.912ZM44.46 30.812C44.364 31.292 44.256 31.772 44.148 32.156H41.208C41.472 31.724 41.724 31.268 41.94 30.812H44.46ZM39.612 34.304C40.008 33.872 40.368 33.416 40.704 32.936H45.36C45.264 33.416 45.156 33.908 45.06 34.304H39.612ZM45.888 34.304C46.032 33.68 46.2 32.852 46.344 32.156H44.976C45.132 31.532 45.3 30.704 45.432 29.996H42.312C42.576 29.408 42.792 28.796 42.996 28.184L42.108 27.956C41.904 28.64 41.652 29.324 41.364 29.996H37.02V30.812H40.968C39.936 32.816 38.436 34.616 36.408 35.78C36.564 35.96 36.792 36.32 36.9 36.524C37.608 36.104 38.256 35.624 38.832 35.084H46.236C46.044 36.992 45.84 37.784 45.6 38.036C45.48 38.132 45.36 38.156 45.144 38.156C44.916 38.156 44.34 38.156 43.74 38.084C43.884 38.312 43.98 38.66 44.004 38.9C44.616 38.936 45.204 38.936 45.504 38.912C45.864 38.888 46.092 38.816 46.32 38.588C46.692 38.192 46.92 37.196 47.136 34.688C47.16 34.568 47.172 34.304 47.172 34.304H45.888ZM45.18 37.076C45.024 36.644 44.64 35.972 44.268 35.492L43.644 35.732C44.004 36.224 44.376 36.92 44.52 37.352L45.18 37.076ZM50.904 34.628H57.204V35.18H50.904V34.628ZM50.904 33.548H57.204V34.088H50.904V33.548ZM58.68 36.296H54.432V35.72H58.02V33.008H54.3C54.42 32.816 54.54 32.588 54.672 32.36L54.06 32.216L54.072 31.712L51.828 31.892V31.292H53.808V30.776H51.828V30.212H54.024V29.684H51.828V29.12H53.664V28.604H51.828V27.968H50.988V28.604H49.236V29.12H50.988V29.684H48.804V30.212H50.988V30.776H49.056V31.292H50.988V31.952C50.136 32.024 49.356 32.084 48.732 32.12L48.804 32.732C50.112 32.612 51.972 32.444 53.796 32.276C53.724 32.492 53.604 32.78 53.496 33.008H50.112V35.72H53.556V36.296H49.56V38.72H50.412V36.968H53.556V38.912H54.432V36.968H57.816V37.856C57.816 38 57.768 38.036 57.588 38.048C57.408 38.06 56.832 38.06 56.136 38.036C56.256 38.228 56.376 38.48 56.436 38.708C57.3 38.708 57.876 38.708 58.236 38.6C58.584 38.48 58.68 38.276 58.68 37.868V36.296ZM56.4 31.316C56.184 30.908 55.692 30.332 55.26 29.924L54.66 30.248C55.104 30.668 55.572 31.28 55.776 31.688L56.4 31.316ZM58.044 29.036V27.98H57.228V29.036H54.108V29.72H57.228V31.808C57.228 31.94 57.18 31.988 57.024 31.988C56.868 32 56.376 32 55.824 31.988C55.944 32.18 56.064 32.444 56.124 32.648C56.868 32.648 57.336 32.648 57.648 32.528C57.948 32.408 58.044 32.24 58.044 31.82V29.72H59.34V29.036H58.044ZM61.056 33.608C61.536 32.792 61.716 31.436 61.728 30.356L61.056 30.26C61.032 31.304 60.84 32.6 60.408 33.32L61.056 33.608ZM62.28 38.9H63.144V27.956H62.28V38.9ZM71.484 31.232V30.38H68.424V27.956H67.524V30.38H64.488V31.112C64.32 30.704 64.104 30.272 63.888 29.9L63.312 30.152C63.696 30.848 64.068 31.784 64.212 32.36L64.824 32.048C64.764 31.82 64.668 31.532 64.536 31.232H65.58V36.752C65.58 38.036 66.012 38.468 67.284 38.468H69.984C70.512 38.468 71.028 38.444 71.256 38.384C71.208 38.18 71.16 37.772 71.136 37.544C70.872 37.592 70.356 37.616 69.996 37.616H67.236C66.66 37.616 66.468 37.4 66.468 36.788V31.232H71.484ZM74.172 35.348C74.244 34.988 74.316 34.604 74.388 34.232H76.176V34.448H76.98V31.58H75.132C76.2 30.86 77.124 29.9 77.652 28.712L77.1 28.424L76.944 28.46H73.692V29.192H76.476C76.176 29.648 75.78 30.08 75.336 30.452C74.976 30.116 74.388 29.684 73.896 29.384L73.38 29.888C73.836 30.164 74.388 30.572 74.724 30.92C74.004 31.412 73.176 31.808 72.384 32.048C72.54 32.204 72.756 32.504 72.864 32.708C73.272 32.564 73.68 32.396 74.076 32.192V32.3H76.176V33.536H73.764C73.62 34.412 73.38 35.528 73.188 36.248L73.932 36.38L74.016 36.044H76.14C76.008 37.328 75.888 37.88 75.696 38.06C75.6 38.156 75.468 38.168 75.252 38.168C75.012 38.168 74.364 38.156 73.704 38.096C73.848 38.3 73.956 38.624 73.968 38.852C74.628 38.888 75.252 38.888 75.564 38.876C75.936 38.852 76.152 38.792 76.356 38.588C76.668 38.276 76.824 37.532 76.98 35.708C77.004 35.6 77.016 35.348 77.016 35.348H74.172ZM81.252 35.636C80.964 36.188 80.556 36.644 80.064 37.016C79.536 36.632 79.116 36.164 78.852 35.636H81.252ZM81.804 34.952L81.66 34.988H77.688V35.636H78.612L78.12 35.78C78.42 36.428 78.852 36.98 79.392 37.448C78.684 37.832 77.868 38.096 77.004 38.264C77.148 38.432 77.328 38.732 77.4 38.924C78.36 38.708 79.26 38.384 80.028 37.916C80.772 38.384 81.66 38.72 82.68 38.912C82.8 38.696 83.016 38.348 83.208 38.18C82.272 38.048 81.432 37.784 80.724 37.424C81.408 36.848 81.96 36.104 82.296 35.156L81.804 34.952ZM82.512 29.24C82.116 29.648 81.456 30.224 80.904 30.608C80.592 30.392 80.304 30.152 80.028 29.888C80.568 29.516 81.24 29 81.756 28.508L81.096 28.04C80.712 28.448 80.1 29.012 79.584 29.408C79.2 28.964 78.888 28.484 78.648 27.956L77.94 28.184C78.564 29.564 79.572 30.704 80.832 31.532H78.132V32.456C78.132 33.044 77.964 33.692 77.016 34.208C77.172 34.316 77.472 34.604 77.592 34.76C78.648 34.148 78.888 33.26 78.888 32.48V32.252H80.52V33.332C80.52 33.896 80.58 34.088 80.724 34.232C80.892 34.364 81.156 34.412 81.384 34.412H81.972C82.14 34.412 82.38 34.388 82.5 34.352C82.656 34.292 82.788 34.208 82.86 34.076C82.932 33.944 82.968 33.584 82.992 33.284C82.776 33.224 82.488 33.08 82.344 32.948C82.332 33.248 82.32 33.476 82.296 33.572C82.26 33.656 82.2 33.716 82.152 33.74C82.104 33.764 81.996 33.764 81.888 33.764H81.54C81.444 33.764 81.384 33.752 81.336 33.716C81.288 33.68 81.276 33.56 81.276 33.404V31.796C81.816 32.108 82.38 32.348 82.992 32.54C83.124 32.324 83.352 32.012 83.544 31.832C82.812 31.64 82.128 31.352 81.504 30.992C82.044 30.644 82.68 30.152 83.172 29.696L82.512 29.24ZM88.8 34.988L87.144 35.456V32.78H88.62V31.952H87.144V29.396H88.728V28.58H84.636V29.396H86.292V31.952H84.78V32.78H86.292V35.684C85.584 35.888 84.936 36.056 84.408 36.188L84.648 37.04C85.812 36.692 87.408 36.224 88.908 35.78L88.8 34.988ZM90.12 33.068H94.008V34.292H90.12V33.068ZM90.12 31.148H94.008V32.348H90.12V31.148ZM90.12 29.24H94.008V30.44H90.12V29.24ZM93.6 38.06C93.3 38.06 93.252 38.012 93.252 37.712V35.048H94.884V28.484H89.28V35.048H90.348C90.156 36.596 89.616 37.676 87.504 38.252C87.684 38.42 87.924 38.78 88.008 38.984C90.336 38.264 90.984 36.956 91.224 35.048H92.4V37.712C92.4 38.576 92.616 38.828 93.468 38.828H94.632C95.352 38.828 95.58 38.456 95.64 36.992C95.424 36.932 95.064 36.8 94.896 36.644C94.86 37.88 94.812 38.06 94.536 38.06H93.6ZM104.856 34.676V37.532H99.108V34.676H104.856ZM98.208 38.912H99.108V38.384H104.856V38.888H105.804V33.836H98.208V38.912ZM103.464 29.84C103.98 30.272 104.52 30.776 105.024 31.292C103.164 31.376 101.28 31.46 99.636 31.52C100.308 30.548 101.028 29.324 101.58 28.256L100.596 27.92C100.128 29.024 99.312 30.5 98.604 31.568C97.944 31.592 97.332 31.616 96.804 31.628L96.864 32.516C99.06 32.42 102.516 32.3 105.78 32.12C106.128 32.54 106.428 32.936 106.632 33.272L107.4 32.684C106.788 31.7 105.372 30.296 104.16 29.336L103.464 29.84ZM116.112 28.22H114.048V28.736H116.112V28.22ZM116.508 29.48C116.844 29.756 117.204 30.116 117.42 30.392C117.276 30.596 117.132 30.788 116.988 30.944L116.4 30.968L116.46 31.592L117.624 31.52V33.92H118.248V31.484L118.896 31.436C118.932 31.544 118.968 31.652 118.992 31.748L119.508 31.508C119.388 31.148 119.124 30.608 118.848 30.224L118.38 30.44C118.476 30.572 118.56 30.728 118.644 30.884L117.66 30.92C118.104 30.392 118.596 29.732 118.992 29.168L118.428 28.856C118.26 29.156 118.032 29.516 117.792 29.876C117.684 29.756 117.54 29.624 117.396 29.48C117.648 29.12 117.924 28.652 118.176 28.22L117.6 27.944C117.456 28.28 117.216 28.76 116.988 29.144L116.808 29L116.508 29.384V29.156H113.628V29.708H116.508V29.48ZM116.808 31.892C116.7 32.432 116.568 32.984 116.304 33.44C116.472 33.5 116.724 33.62 116.844 33.704C117.084 33.272 117.264 32.624 117.396 32.024L116.808 31.892ZM113.988 31.508H116.196V31.016H113.988V31.508ZM116.196 30.116H113.988V30.62H116.196V30.116ZM114.54 32.42H115.596V33.224H114.54V32.42ZM113.952 33.716H116.208V31.94H113.952V33.716ZM110.928 30.968L111 31.592C111.336 31.568 111.696 31.532 112.08 31.508V33.92H112.704V31.472L113.244 31.436C113.28 31.544 113.304 31.64 113.316 31.736L113.796 31.532C113.712 31.196 113.52 30.668 113.292 30.284L112.86 30.464C112.932 30.596 112.992 30.728 113.052 30.872L112.236 30.92C112.644 30.404 113.064 29.768 113.436 29.216L112.872 28.904C112.728 29.18 112.548 29.504 112.344 29.828C112.236 29.72 112.104 29.6 111.972 29.48C112.212 29.12 112.476 28.64 112.716 28.208L112.14 27.932C111.996 28.28 111.768 28.748 111.552 29.144L111.36 29.012L111.036 29.48C111.36 29.732 111.744 30.08 111.984 30.368C111.84 30.572 111.708 30.776 111.564 30.944L110.928 30.968ZM113.724 33.212C113.688 32.876 113.556 32.336 113.424 31.928L112.932 32.048C113.052 32.456 113.16 32.996 113.208 33.344L113.724 33.212ZM110.94 29.384C110.604 28.988 109.86 28.448 109.26 28.112L108.744 28.7C109.344 29.072 110.076 29.636 110.4 30.032L110.94 29.384ZM110.736 32.468C110.364 32.096 109.596 31.592 108.984 31.28L108.48 31.88C109.092 32.228 109.848 32.768 110.196 33.14L110.736 32.468ZM109.512 38.768C109.98 37.664 110.508 36.2 110.904 34.952L110.208 34.496C109.764 35.84 109.14 37.376 108.708 38.3L109.512 38.768ZM111.3 31.892C111.192 32.456 111.036 33.032 110.772 33.488C110.916 33.536 111.204 33.656 111.324 33.74C111.564 33.296 111.768 32.636 111.888 32.012L111.3 31.892ZM112.68 36.512L112.848 35.912H118.392V34.136H111.72V34.712H117.564V35.336H112.176C112.008 35.996 111.792 36.8 111.576 37.364L112.392 37.496L112.5 37.124H117.936C117.792 37.724 117.636 38.036 117.432 38.168C117.312 38.24 117.192 38.252 116.928 38.252C116.64 38.252 115.848 38.24 115.08 38.18C115.212 38.36 115.308 38.66 115.332 38.852C116.088 38.9 116.808 38.912 117.168 38.9C117.564 38.9 117.816 38.852 118.056 38.684C118.392 38.432 118.62 37.904 118.86 36.884C118.896 36.764 118.908 36.512 118.908 36.512H112.68ZM118.524 32.036C118.728 32.516 118.944 33.176 119.004 33.584L119.556 33.428C119.46 33.008 119.244 32.372 119.04 31.88L118.524 32.036ZM130.152 30.272L129.96 30.332H126.42V27.98H125.532V30.332H121.212V31.184H129.372C128.112 33.008 125.892 35.228 123.852 36.56C123.564 36.272 123.324 35.936 123.132 35.516C123.276 35.216 123.396 34.94 123.504 34.688L122.64 34.34C122.172 35.624 121.272 37.328 120.42 38.384L121.272 38.9C121.788 38.132 122.28 37.244 122.7 36.416C123.864 38.3 125.748 38.708 128.388 38.708H131.172C131.22 38.456 131.376 38.048 131.508 37.832C130.968 37.844 128.832 37.844 128.436 37.844C126.9 37.844 125.568 37.7 124.56 37.112C126.9 35.528 129.42 32.948 130.824 30.692L130.152 30.272ZM143.388 35.876V35.096H138.192C138.276 34.748 138.336 34.388 138.372 33.992H143.268V33.176H138.42V32.18H142.272V31.4H138.42V30.428H142.8V29.624H140.16C140.496 29.252 140.904 28.748 141.24 28.22L140.328 27.944C140.076 28.388 139.632 29.06 139.296 29.468L139.74 29.624H136.164L136.548 29.444C136.368 29 135.936 28.376 135.504 27.944L134.736 28.256C135.096 28.652 135.444 29.192 135.636 29.624H133.212V30.428H137.532V31.4H133.8V32.18H137.532V33.176H132.732V33.992H137.448C137.4 34.388 137.34 34.76 137.256 35.096H132.648V35.876H136.956C136.38 37.016 135.18 37.736 132.492 38.132C132.66 38.312 132.876 38.684 132.948 38.912C136.044 38.408 137.352 37.436 137.952 35.876H138.012C138.864 37.688 140.448 38.6 143.016 38.924C143.124 38.684 143.364 38.3 143.568 38.12C141.252 37.892 139.728 37.208 138.936 35.876H143.388ZM148.416 33.188H145.896V30.68H148.416V33.188ZM145.896 36.86V33.98H148.416V36.86H145.896ZM146.904 27.932C146.82 28.496 146.604 29.3 146.424 29.876H145.08V38.612H145.896V37.664H149.232V29.876H147.24C147.444 29.36 147.66 28.7 147.864 28.112L146.904 27.932ZM155.1 29.84H151.512C151.716 29.276 151.884 28.7 152.028 28.112L151.176 27.908C150.792 29.552 150.144 31.208 149.34 32.264C149.532 32.384 149.916 32.624 150.072 32.768C150.492 32.204 150.864 31.472 151.2 30.668H154.248C154.092 35.444 153.912 37.268 153.516 37.688C153.396 37.844 153.264 37.868 153.024 37.868C152.748 37.868 152.028 37.868 151.248 37.796C151.416 38.048 151.524 38.408 151.548 38.672C152.22 38.708 152.904 38.732 153.324 38.684C153.732 38.648 154.008 38.54 154.272 38.204C154.752 37.616 154.908 35.768 155.1 30.296V29.84ZM153.204 35.24C152.82 34.532 151.992 33.38 151.32 32.528L150.624 32.936C151.284 33.8 152.088 34.988 152.448 35.708L153.204 35.24ZM159.54 29.408V31.136H157.752V29.408H159.54ZM157.752 36.176V34.424H159.54V36.176H157.752ZM157.752 31.904H159.54V33.644H157.752V31.904ZM160.38 28.628H156.936V37.964H157.752V36.98H160.38V28.628ZM162.348 31.46H165.96V32.936H162.348V31.46ZM165.96 29.276V30.716H162.348V29.276H165.96ZM166.86 34.064C166.392 34.508 165.636 35.06 165.024 35.468C164.76 34.928 164.556 34.34 164.4 33.716H166.836V28.484H161.484V37.724L160.392 37.952L160.62 38.78C161.772 38.528 163.32 38.18 164.784 37.82L164.712 37.04C163.908 37.22 163.092 37.388 162.348 37.544V33.716H163.62C164.172 36.104 165.228 37.988 167.016 38.912C167.16 38.672 167.436 38.324 167.628 38.156C166.68 37.736 165.948 37.028 165.384 36.128C166.032 35.744 166.836 35.204 167.448 34.676L166.86 34.064ZM171.468 29.504V31.172H169.752V29.504H171.468ZM169.752 36.152V34.412H171.468V36.152H169.752ZM169.752 31.94H171.468V33.632H169.752V31.94ZM172.296 28.712H168.936V38H169.752V36.956H172.296V28.712ZM176.34 35.612V34.052H177.876V35.612H176.34ZM174.192 34.052H175.584V35.612H174.192V34.052ZM178.704 33.32H173.364V38.9H174.192V36.344H177.876V37.964C177.876 38.096 177.84 38.144 177.684 38.156C177.54 38.156 177.06 38.156 176.52 38.132C176.64 38.36 176.748 38.696 176.784 38.9C177.528 38.9 178.008 38.9 178.32 38.78C178.632 38.636 178.704 38.396 178.704 37.976V33.32ZM176.4 31.82V30.98H178.788V30.32H176.4V29.552H178.992V28.844H176.4V27.956H175.536V28.844H172.956V29.552H175.536V30.32H173.244V30.98H175.536V31.82H172.572V32.528H179.46V31.82H176.4ZM2.904 54.628H9.204V55.18H2.904V54.628ZM2.904 53.548H9.204V54.088H2.904V53.548ZM10.68 56.296H6.432V55.72H10.02V53.008H6.3C6.42 52.816 6.54 52.588 6.672 52.36L6.06 52.216L6.072 51.712L3.828 51.892V51.292H5.808V50.776H3.828V50.212H6.024V49.684H3.828V49.12H5.664V48.604H3.828V47.968H2.988V48.604H1.236V49.12H2.988V49.684H0.804V50.212H2.988V50.776H1.056V51.292H2.988V51.952C2.136 52.024 1.356 52.084 0.732 52.12L0.804 52.732C2.112 52.612 3.972 52.444 5.796 52.276C5.724 52.492 5.604 52.78 5.496 53.008H2.112V55.72H5.556V56.296H1.56V58.72H2.412V56.968H5.556V58.912H6.432V56.968H9.816V57.856C9.816 58 9.768 58.036 9.588 58.048C9.408 58.06 8.832 58.06 8.136 58.036C8.256 58.228 8.376 58.48 8.436 58.708C9.3 58.708 9.876 58.708 10.236 58.6C10.584 58.48 10.68 58.276 10.68 57.868V56.296ZM8.4 51.316C8.184 50.908 7.692 50.332 7.26 49.924L6.66 50.248C7.104 50.668 7.572 51.28 7.776 51.688L8.4 51.316ZM10.044 49.036V47.98H9.228V49.036H6.108V49.72H9.228V51.808C9.228 51.94 9.18 51.988 9.024 51.988C8.868 52 8.376 52 7.824 51.988C7.944 52.18 8.064 52.444 8.124 52.648C8.868 52.648 9.336 52.648 9.648 52.528C9.948 52.408 10.044 52.24 10.044 51.82V49.72H11.34V49.036H10.044ZM19.26 49.924V53.824C19.26 53.956 19.224 53.992 19.056 54.004C18.912 54.004 18.408 54.004 17.856 53.992C17.976 54.208 18.108 54.544 18.144 54.772C18.888 54.772 19.38 54.76 19.704 54.64C20.028 54.508 20.112 54.268 20.112 53.824V49.924H22.188C22.032 50.368 21.84 50.8 21.672 51.136L21.504 50.908L20.772 51.22C21.324 52.012 21.9 53.092 22.152 53.788L22.932 53.428C22.704 52.84 22.26 52 21.768 51.292L22.38 51.412C22.656 50.884 23.016 50.02 23.328 49.276L22.704 49.12L22.56 49.144H18.024C18.18 48.832 18.324 48.496 18.444 48.172L17.628 47.968C17.22 49.108 16.524 50.188 15.708 50.908C15.912 51.028 16.236 51.304 16.38 51.46C16.8 51.052 17.22 50.512 17.592 49.924H19.26ZM19.344 55.924C18.9 55.444 18 54.832 17.232 54.472L16.632 55C17.412 55.384 18.288 56.02 18.708 56.512L19.344 55.924ZM17.58 50.968C17.256 51.796 16.716 52.636 16.092 53.2C16.308 53.32 16.656 53.536 16.824 53.668C17.424 53.056 18.036 52.12 18.408 51.172L17.58 50.968ZM13.248 58.528C14.184 57.904 14.664 56.836 14.952 55.768L14.172 55.504C13.92 56.5 13.392 57.472 12.516 58.024L13.248 58.528ZM15.312 47.956C14.628 49.276 13.524 50.572 12.396 51.412C12.564 51.58 12.864 51.94 12.972 52.108C13.38 51.772 13.8 51.376 14.196 50.932V54.772H15.06V49.864C15.444 49.336 15.804 48.784 16.092 48.22L15.312 47.956ZM17.232 57.904C16.596 57.904 16.5 57.844 16.5 57.532V55.36H15.612V57.532C15.612 58.456 15.936 58.708 17.172 58.708H19.488C20.508 58.708 20.772 58.348 20.892 56.908C20.64 56.848 20.28 56.716 20.088 56.572C20.04 57.736 19.956 57.904 19.428 57.904H17.232ZM20.556 55.732C21.444 56.488 22.344 57.616 22.68 58.396L23.472 57.94C23.088 57.136 22.176 56.068 21.276 55.3L20.556 55.732ZM34.416 49.96C34.08 49.48 33.348 48.748 32.76 48.256L32.1 48.7C32.688 49.216 33.384 49.972 33.708 50.476L34.416 49.96ZM28.764 53.932L28.656 53.116C28.152 53.248 27.648 53.404 27.168 53.536V51.208H28.632V50.368H27.168V47.968H26.304V50.368H24.588V51.208H26.304V53.776C25.608 53.968 24.96 54.148 24.444 54.268L24.708 55.132C25.188 54.988 25.728 54.844 26.304 54.664V57.784C26.304 57.952 26.232 58.012 26.064 58.012C25.92 58.012 25.404 58.024 24.828 58C24.948 58.24 25.068 58.6 25.104 58.828C25.932 58.828 26.424 58.804 26.736 58.66C27.048 58.528 27.168 58.288 27.168 57.784V54.4L28.764 53.932ZM33.912 52.432C33.516 53.332 32.928 54.244 32.208 55.048C31.956 54.16 31.74 53.092 31.584 51.892L35.256 51.496L35.16 50.68L31.488 51.052C31.392 50.092 31.32 49.072 31.272 48.004H30.384C30.432 49.108 30.516 50.152 30.612 51.148L28.776 51.34L28.86 52.18L30.696 51.988C30.888 53.452 31.128 54.748 31.488 55.804C30.576 56.656 29.52 57.376 28.416 57.808C28.668 57.988 28.944 58.276 29.112 58.504C30.06 58.072 30.996 57.436 31.824 56.68C32.4 58 33.204 58.78 34.272 58.864C34.872 58.912 35.34 58.312 35.616 56.368C35.424 56.296 35.04 56.08 34.86 55.876C34.74 57.208 34.548 57.856 34.224 57.832C33.54 57.76 32.976 57.088 32.532 55.984C33.408 55.048 34.14 53.968 34.644 52.876L33.912 52.432ZM45.768 53.968V57.292H42.396V53.2H46.2V49.096H45.276V52.336H42.396V48.028H41.484V52.336H38.736V49.096H37.848V53.2H41.484V57.292H38.28V53.968H37.392V58.912H38.28V58.168H45.768V58.888H46.68V53.968H45.768ZM59.304 49.732V48.844H48.708V49.732H53.292V58.9H54.24V52.588C55.608 53.32 57.216 54.304 58.032 54.976L58.656 54.172C57.708 53.452 55.824 52.372 54.396 51.688L54.24 51.868V49.732H59.304ZM60.576 52.84V53.812H71.472V52.84H60.576ZM74.88 48.016C74.28 49.828 73.32 51.628 72.252 52.792C72.408 53.008 72.648 53.5 72.72 53.692C73.128 53.236 73.512 52.696 73.884 52.108V58.924H74.736V50.572C75.108 49.828 75.432 49.036 75.696 48.244L74.88 48.016ZM80.64 55.744H78.612V53.884H80.64V55.744ZM81.816 51.892V51.208H79.968V49.852H79.236V51.208H77.436V51.892H79.236V53.212H77.928V56.404H81.348V53.212H79.968V51.892H81.816ZM76.944 57.4V49.468H82.224V57.4H76.944ZM76.116 48.688V58.9H76.944V58.192H82.224V58.804H83.076V48.688H76.116ZM95.304 50.368V49.552H91.176C91.356 49.096 91.524 48.616 91.656 48.136L90.792 47.956C90.408 49.384 89.724 50.728 88.848 51.604C89.064 51.736 89.424 52.012 89.58 52.168C90.024 51.676 90.444 51.064 90.792 50.368H95.304ZM89.04 52.288H86.76V50.716H89.448V49.9H87.528V47.98H86.676V49.9H84.588V50.716H85.968V52.36C85.968 54.124 85.812 56.464 84.384 58.408C84.6 58.552 84.9 58.78 85.044 58.948C86.388 57.1 86.7 54.964 86.748 53.092H88.212C88.128 56.476 88.044 57.652 87.852 57.94C87.756 58.072 87.66 58.108 87.48 58.108C87.3 58.108 86.856 58.096 86.364 58.048C86.496 58.264 86.58 58.612 86.592 58.852C87.096 58.876 87.588 58.876 87.876 58.84C88.176 58.816 88.38 58.732 88.56 58.468C88.872 58.06 88.944 56.704 89.04 52.684V52.288ZM94.92 52.78C94.488 53.248 93.816 53.824 93.216 54.292C93.048 53.692 92.904 53.056 92.796 52.396C93.612 52.012 94.356 51.592 94.884 51.184L94.248 50.716C93.18 51.544 90.912 52.432 89.232 52.804C89.436 52.984 89.664 53.32 89.772 53.536C89.976 53.476 90.192 53.416 90.42 53.344V58.912H91.272V53.044C91.536 52.948 91.812 52.84 92.076 52.72C92.52 55.456 93.372 57.712 95.004 58.876C95.136 58.648 95.412 58.3 95.616 58.156C94.632 57.52 93.936 56.404 93.444 55.036C94.116 54.556 94.944 53.92 95.556 53.332L94.92 52.78ZM105.804 54.34H107.424V53.596H105.804V53.128C106.308 52.66 106.872 52 107.256 51.388L106.764 51.028L106.608 51.076H103.812V51.76H106.092C105.888 52.048 105.648 52.348 105.408 52.6H105.024V53.596H103.416V54.34H105.024V56.368C105.024 56.476 104.988 56.512 104.844 56.512C104.712 56.524 104.256 56.524 103.764 56.512C103.872 56.728 103.992 57.04 104.028 57.268C104.7 57.268 105.156 57.256 105.432 57.124C105.732 57.004 105.804 56.776 105.804 56.38V54.34ZM102.3 52.348C102.24 55.168 102.156 56.164 101.976 56.404C101.904 56.524 101.82 56.536 101.688 56.536C101.532 56.536 101.208 56.536 100.848 56.5C100.956 56.704 101.04 57.028 101.052 57.244C101.424 57.256 101.796 57.256 102.036 57.232C102.3 57.208 102.48 57.112 102.66 56.896C102.912 56.536 102.996 55.384 103.08 51.976C103.08 51.868 103.092 51.616 103.092 51.616H101.16V50.344H103.308C103.188 50.524 103.068 50.692 102.936 50.836C103.116 50.944 103.452 51.184 103.572 51.316C103.86 50.956 104.136 50.512 104.364 50.02H107.364V49.264H104.676C104.82 48.88 104.94 48.484 105.036 48.088L104.256 47.92C104.088 48.748 103.788 49.552 103.392 50.2V49.588H101.76V47.968H100.944V49.588H99.312V50.344H100.416V52.12C100.416 53.512 100.284 55.336 99.156 56.68C99.348 56.8 99.588 57.04 99.732 57.196C100.932 55.804 101.148 53.896 101.16 52.348H102.3ZM98.988 50.296C98.7 49.696 97.98 48.844 97.32 48.244L96.612 48.688C97.26 49.312 97.968 50.176 98.244 50.788L98.988 50.296ZM98.796 52.66H96.576V53.5H97.968V56.608C97.464 57.1 96.912 57.616 96.444 57.976L96.912 58.804C97.464 58.276 97.968 57.772 98.448 57.244C99.204 58.192 100.308 58.624 101.892 58.684C103.272 58.732 105.9 58.708 107.268 58.648C107.316 58.396 107.448 58 107.556 57.808C106.08 57.904 103.248 57.94 101.88 57.88C100.464 57.82 99.384 57.412 98.796 56.512V52.66ZM110.964 50.344H117.012V51.112H110.964V50.344ZM110.964 49H117.012V49.756H110.964V49ZM119.244 52.468H114.42V51.724H117.888V48.388H110.112V51.724H113.532V52.468H108.72V53.2H119.244V52.468ZM111.504 56.596C110.796 57.16 109.608 57.712 108.576 58.072C108.768 58.216 109.068 58.54 109.224 58.72C110.244 58.288 111.504 57.604 112.32 56.92L111.504 56.596ZM111.24 54.484H116.772V55.672H111.24V54.484ZM117.66 56.332V53.824H110.388V56.332H113.556V58.036C113.556 58.168 113.52 58.204 113.352 58.216C113.172 58.216 112.596 58.216 111.984 58.192C112.092 58.408 112.212 58.696 112.248 58.912C113.1 58.912 113.652 58.912 113.988 58.792C114.336 58.696 114.444 58.492 114.444 58.06V56.332H117.66ZM115.524 57.076C116.616 57.508 117.96 58.192 118.644 58.684L119.256 58.132C118.536 57.628 117.168 56.98 116.1 56.572L115.524 57.076ZM124.152 51.544C124.356 51.064 124.584 50.296 124.8 49.672L124.272 49.48C124.164 50.032 123.936 50.872 123.756 51.388L124.152 51.544ZM121.836 49.636C122.04 50.212 122.184 50.968 122.208 51.46L122.688 51.328C122.652 50.848 122.496 50.092 122.28 49.516L121.836 49.636ZM121.668 49.048H122.964V51.928H121.668V49.048ZM124.956 51.928H123.576V49.048H124.956V51.928ZM120.672 55.924C122.052 55.852 124.008 55.732 125.916 55.588L125.94 54.868C125.172 54.916 124.404 54.964 123.672 55V54.112H125.748V53.404H123.672V52.576H125.676V48.4H120.972V52.576H122.868V53.404H120.888V54.112H122.868V55.048C122.016 55.084 121.248 55.132 120.624 55.156L120.672 55.924ZM121.032 58.912C121.56 58.384 121.74 57.46 121.86 56.572L121.224 56.404C121.128 57.232 120.9 58.096 120.432 58.588L121.032 58.912ZM122.244 56.44C122.412 57.112 122.532 57.964 122.532 58.528L123.144 58.444C123.144 57.892 123.012 57.028 122.82 56.38L122.244 56.44ZM123.384 56.38C123.648 56.992 123.9 57.784 123.96 58.312L124.572 58.18C124.488 57.652 124.224 56.86 123.948 56.26L123.384 56.38ZM124.524 56.224C124.92 56.776 125.34 57.544 125.508 58.048L126.108 57.784C125.928 57.292 125.496 56.548 125.076 55.996L124.524 56.224ZM130.176 57.532H127.152V54.448H130.176V57.532ZM131.496 51.4V50.56H128.94V47.98H128.064V53.62H126.336V58.9H127.152V58.336H130.176V58.852H131.016V53.62H128.94V51.4H131.496Z" fill="#4F4F4F"/>
</svg>
