<svg width="97" height="16" viewBox="0 0 97 16" fill="none" xmlns="http://www.w3.org/2000/svg">
<path d="M17.8761 0.0923956H2.94288C2.71994 0.066769 2.49479 0.118103 2.30736 0.237303C2.16712 0.435092 2.08948 0.667907 2.08389 0.907446L2.01278 1.5596C1.97492 1.7511 2.00643 1.94933 2.10202 2.1211C2.17931 2.19613 2.27341 2.25308 2.37707 2.28761C2.48073 2.32213 2.59121 2.3333 2.70004 2.32026H6.34414L6.27898 2.91802H2.63488C2.40899 2.89699 2.18278 2.95485 1.99738 3.08106C1.85237 3.27662 1.77425 3.51094 1.77391 3.75135L1.39682 7.21101C1.36178 7.40825 1.39232 7.61113 1.48407 7.79064C1.56347 7.86245 1.65866 7.91604 1.76255 7.94741C1.86645 7.97878 1.97636 7.98713 2.08406 7.97181H7.49379L6.75054 8.58755H2.01695C1.75564 8.56939 1.4946 8.62611 1.26663 8.75058C1.17201 8.80849 1.09442 8.88887 1.0413 8.98402C0.988175 9.07917 0.961302 9.18589 0.963259 9.29394L0.884302 10.0185C0.864205 10.1142 0.870928 10.2133 0.903774 10.3056C0.93662 10.398 0.994397 10.4802 1.07117 10.5439C1.28462 10.6719 1.53562 10.7292 1.78594 10.7069H4.2843L2.3507 12.2465C1.97716 12.5726 1.8763 12.808 2.00881 12.971C2.21865 13.1466 2.46929 13.2708 2.73948 13.3332L4.58828 13.605L2.43413 13.8949C2.26487 13.9315 2.10446 13.9991 1.96161 14.094C1.89555 14.1378 1.83947 14.1941 1.7968 14.2596C1.75413 14.325 1.72576 14.3981 1.71346 14.4745L1.62463 15.2896C1.61096 15.3758 1.61972 15.464 1.65012 15.5462C1.68052 15.6284 1.7316 15.7021 1.79878 15.7605C1.88943 15.8267 1.99428 15.8724 2.10563 15.8943C2.21699 15.9162 2.332 15.9139 2.44227 15.8873C3.09976 15.8873 5.24107 15.5431 8.9206 14.873C9.19638 14.858 9.47046 14.8216 9.74021 14.7643L14.8238 15.688C15.0703 15.7386 15.3243 15.7447 15.5732 15.7061C15.7482 15.6517 15.841 15.4889 15.8726 15.199L15.9713 14.2933C15.9885 14.2127 15.9849 14.1292 15.9608 14.0502C15.9366 13.9713 15.8927 13.8992 15.8329 13.8405C15.637 13.7016 15.407 13.6142 15.1655 13.5869L13.5292 13.2608C13.925 13.0214 14.2558 12.6944 14.4941 12.3069C14.7323 11.9193 14.8712 11.4825 14.8992 11.0328L14.9347 10.7069H16.7003C16.9792 10.7196 17.2569 10.6635 17.5071 10.5439C17.5955 10.4842 17.6686 10.4059 17.7209 10.3149C17.7731 10.2238 17.8031 10.1224 17.8085 10.0185L17.8874 9.29396C17.917 9.02228 17.8617 8.84125 17.7025 8.75059C17.4662 8.62803 17.1991 8.57155 16.9313 8.58755H11.4277L12.2086 7.97181H17.0172C17.2528 7.99608 17.4889 7.93112 17.6757 7.79064C17.8103 7.62494 17.8852 7.42145 17.8891 7.21101L18.2662 3.75135C18.3037 3.40714 18.2918 3.17172 18.189 3.08106C18.0118 2.95111 17.7891 2.89266 17.5681 2.91804H13.924L13.9891 2.32028H17.6332C17.7451 2.34034 17.8603 2.33524 17.9697 2.30537C18.0792 2.2755 18.1801 2.22165 18.2644 2.14804C18.3488 2.07444 18.4144 1.98305 18.4561 1.88098C18.4979 1.77892 18.5146 1.66895 18.5051 1.55962L18.5762 0.907465C18.6351 0.682414 18.6076 0.444412 18.4989 0.237322C18.3178 0.114662 18.0952 0.0628643 17.8761 0.0923956ZM5.97099 5.7438H4.78763L4.85279 5.14602H6.03615L5.97099 5.7438ZM9.59383 2.32026H10.7396L10.6744 2.91802H9.52867L9.59383 2.32026ZM9.28584 5.14603H10.4316L10.3664 5.7438H9.22068L9.28584 5.14603ZM10.8735 11.0872C10.8202 11.5764 10.3575 12.0292 9.48767 12.4277L7.35407 12.0111L8.99894 10.7069H10.915L10.8735 11.0872ZM14.8833 5.14603L14.8181 5.7438H13.616L13.6811 5.14603H14.8833Z" fill="#333333"/>
<path d="M36.7753 6.17855H31.2717L31.4 5.00115H35.7391C35.8558 5.01472 35.9742 5.00569 36.0872 4.97458C36.2003 4.94347 36.3058 4.89091 36.3975 4.81998C36.5387 4.65652 36.6203 4.45288 36.6298 4.24035L36.8153 2.53772C36.8507 2.30827 36.8106 2.07391 36.7007 1.86758C36.6183 1.75879 36.4176 1.70443 36.0984 1.70454H31.7593L31.8738 0.653923C31.8841 0.578636 31.8766 0.5021 31.8519 0.429983C31.8273 0.357866 31.7861 0.292018 31.7315 0.237332C31.5992 0.145883 31.4383 0.101121 31.2757 0.110556H28.6458C28.4861 0.0984029 28.3273 0.143547 28.2 0.237332C28.0743 0.343465 27.9972 0.493209 27.9855 0.653923L27.871 1.70454H23.5133C23.2932 1.68291 23.0726 1.74103 22.8945 1.86758C22.7361 2.05737 22.6505 2.29411 22.6524 2.53772L22.4668 4.24035C22.427 4.43955 22.4647 4.6459 22.5727 4.81998C22.6717 4.94676 22.8535 5.00115 23.154 5.00115H27.5117L27.3834 6.17855H21.8611C21.6381 6.15293 21.4128 6.20426 21.2252 6.32345C21.0769 6.51732 20.9985 6.75269 21.0019 6.9936L20.8164 8.69623C20.7718 8.89324 20.8027 9.09914 20.9035 9.27586C20.9829 9.34771 21.0782 9.40132 21.1821 9.43269C21.286 9.46406 21.396 9.47238 21.5037 9.45703H25.8238L20.1789 15.2352C19.9861 15.4526 19.9683 15.6157 20.082 15.7787C20.1449 15.8521 20.2249 15.91 20.3154 15.9477C20.406 15.9855 20.5046 16.0021 20.603 15.996H35.9306C36.0357 15.9991 36.1404 15.9814 36.2381 15.9441C36.3359 15.9067 36.4247 15.8504 36.4991 15.7787C36.5736 15.7077 36.6174 15.612 36.6214 15.5111C36.6254 15.4101 36.5894 15.3115 36.5207 15.2352L34.0061 11.9386C33.7561 11.6488 33.5898 11.4496 33.5058 11.359C33.4363 11.2954 33.3529 11.2478 33.2617 11.2195C33.1705 11.1913 33.0739 11.1832 32.9791 11.1959H30.2928C30.1866 11.1834 30.0788 11.1914 29.9758 11.2194C29.8727 11.2473 29.7765 11.2948 29.6926 11.359C29.5869 11.4676 29.5842 11.6669 29.7047 11.9386L30.5928 13.0979H26.5543L30.1442 9.45703H36.418C36.6596 9.48393 36.9026 9.41894 37.0954 9.27586C37.2299 9.11012 37.3047 8.90665 37.3087 8.69623L37.4942 6.9936C37.53 6.76596 37.4967 6.5332 37.3982 6.32345C37.2972 6.21481 37.0948 6.17855 36.7753 6.17855Z" fill="#333333"/>
<path d="M76.4121 0.019874H69.0114C68.7195 0.0031067 68.431 0.0865649 68.1969 0.255441C67.9664 0.469171 67.8331 0.762227 67.8261 1.07049L67.1411 7.35592C67.0439 7.33986 66.9444 7.3428 66.8484 7.36458C66.7525 7.38636 66.662 7.42653 66.5824 7.48269C66.4212 7.67083 66.285 7.87773 66.1772 8.09857L65.7603 8.82311L65.3874 8.62381C66.2897 7.21641 66.8248 5.61908 66.9468 3.96863L67.0297 3.20782C67.0479 3.03167 66.9927 2.85579 66.8763 2.71885C66.8223 2.64885 66.7527 2.59137 66.6727 2.55062C66.5926 2.50986 66.5042 2.48686 66.4138 2.48329H65.4369L65.6304 0.708278C65.6171 0.530861 65.5508 0.36096 65.4394 0.219159C65.3759 0.152047 65.2977 0.0993734 65.2106 0.0649089C65.1234 0.0304444 65.0294 0.0150491 64.9353 0.0198556H63.4512C63.237 0.0123427 63.0278 0.0835817 62.866 0.219159C62.7254 0.352301 62.6285 0.522406 62.5874 0.708278L62.3939 2.48329H61.1731C60.9901 2.50426 60.821 2.58785 60.6964 2.71885C60.5593 2.84964 60.474 3.02267 60.4554 3.20782L60.254 5.05551C60.2403 5.13883 60.2454 5.22403 60.269 5.30528C60.2925 5.38654 60.3339 5.46194 60.3904 5.52635C60.4439 5.58548 60.5103 5.63242 60.5849 5.66376C60.6595 5.69509 60.7404 5.71003 60.8217 5.70752H63.8271C63.709 6.48791 63.3689 7.22147 62.8446 7.82674C62.5928 8.09277 62.2823 8.30089 61.936 8.43571C61.5897 8.57052 61.2164 8.6286 60.8437 8.60567H60.3178C60.1364 8.62069 59.9644 8.69042 59.8264 8.80498C59.6891 8.92025 59.604 9.0828 59.5894 9.25783L59.384 11.1416C59.3688 11.2223 59.3733 11.3052 59.3974 11.3839C59.4214 11.4625 59.4642 11.5346 59.5224 11.5943C59.5785 11.6558 59.6474 11.7053 59.7245 11.7397C59.8016 11.774 59.8854 11.7924 59.9703 11.7936H60.5903C60.8762 11.7907 61.1563 11.7158 61.4028 11.5764L61.0041 15.2352C60.9969 15.4183 61.0571 15.598 61.1741 15.7424C61.2396 15.8175 61.3227 15.8764 61.4166 15.9142C61.5105 15.952 61.6125 15.9676 61.7139 15.9597H63.198C63.3002 15.9627 63.402 15.945 63.4967 15.9075C63.5914 15.8701 63.6768 15.8138 63.7475 15.7424C63.891 15.6011 63.9942 15.4263 64.0471 15.2352L64.4518 11.522L66.3757 12.4819C66.4749 12.4925 66.5752 12.4817 66.6696 12.4504C66.7639 12.4191 66.8499 12.3681 66.9213 12.3009C67.0029 12.2364 67.0701 12.1565 67.1187 12.0662C67.1673 11.9759 67.1964 11.877 67.2042 11.7755L67.3701 10.2541C67.4016 9.96423 67.3818 9.8012 67.3145 9.72867C67.2476 9.67292 67.1851 9.61241 67.1275 9.54765L67.268 9.29395C67.4913 9.41481 67.7458 9.4714 68.0015 9.45699H70.2557L70.1905 10.0547H68.7254C68.5055 10.0361 68.286 10.0939 68.1065 10.2178C67.9482 10.4076 67.8626 10.6443 67.8644 10.8879L67.746 11.9748C67.7062 12.174 67.7439 12.3803 67.8519 12.5544C67.931 12.6211 68.0233 12.6715 68.1232 12.7027C68.2232 12.7338 68.3287 12.745 68.4332 12.7356H69.8983L69.8351 13.3152H67.055C66.8347 13.2905 66.6129 13.3489 66.4362 13.4783C66.2778 13.6681 66.1923 13.9048 66.1941 14.1484L66.0756 15.2351C66.036 15.4288 66.0746 15.6297 66.1835 15.7968C66.2635 15.9236 66.4623 15.9959 66.7629 15.9959H75.1594C75.2777 16.0071 75.3971 15.9952 75.5105 15.961C75.624 15.9268 75.7291 15.871 75.8198 15.7968C75.96 15.64 76.0411 15.442 76.0497 15.2351L76.1682 14.1484C76.2267 13.9215 76.1924 13.6815 76.0724 13.4783C75.9855 13.4125 75.8857 13.3642 75.7791 13.3362C75.6725 13.3082 75.5611 13.301 75.4515 13.3152H72.7277L72.7909 12.7356H74.7822C75.0171 12.7544 75.2511 12.69 75.4403 12.5544C75.5814 12.391 75.663 12.1873 75.6725 11.9748L75.791 10.8879C75.8496 10.6609 75.8152 10.4209 75.695 10.2178C75.6081 10.152 75.5084 10.1037 75.4018 10.0757C75.2952 10.0477 75.1839 10.0406 75.0744 10.0547H73.0831L73.1483 9.45699H75.4025C75.7056 9.47692 76.0079 9.40746 76.2692 9.25783C76.4844 9.04469 76.6034 8.75818 76.6004 8.46077L77.4079 1.05234C77.4431 0.91533 77.4456 0.772364 77.4151 0.634294C77.3846 0.496225 77.3219 0.366672 77.2318 0.255423C77.1192 0.16399 76.9884 0.0958891 76.8473 0.0553639C76.7063 0.0148387 76.5582 0.00275705 76.4121 0.019874ZM70.5439 6.81255H69.8489L69.9279 6.08787H70.6229L70.5439 6.81255ZM70.915 3.40715H70.2201L70.2991 2.68261H70.994L70.915 3.40715ZM74.1127 6.81255H73.4364L73.5154 6.08787H74.1917L74.1127 6.81255ZM74.4839 3.40715H73.8076L73.8866 2.68261H74.5629L74.4839 3.40715Z" fill="#333333"/>
<path d="M95.6425 9.18528C95.7068 9.19296 95.772 9.18352 95.831 9.15797C95.8901 9.13242 95.9408 9.09174 95.9776 9.04037C96.0682 8.84017 96.1172 8.62476 96.1219 8.40635C96.1722 8.14928 96.1755 7.88571 96.1315 7.62756C96.1058 7.57301 96.0627 7.52778 96.0085 7.49846C95.9543 7.46914 95.8918 7.45727 95.8301 7.46454H89.7251L89.7745 7.01168H95.1842C95.2431 7.0149 95.3021 7.00516 95.3565 6.98319C95.411 6.96123 95.4596 6.92763 95.4986 6.88491C95.5819 6.76013 95.63 6.61653 95.6382 6.46832L96.1396 1.86753C96.165 1.73854 96.1465 1.60509 96.0869 1.48706C96.055 1.44342 96.0116 1.40869 95.9612 1.38643C95.9109 1.36416 95.8553 1.35515 95.8002 1.36028H92.7009L92.9708 0.780651C93.0413 0.620854 93.0668 0.445912 93.0447 0.273548C93.0456 0.23539 93.0381 0.197474 93.0226 0.162361C93.0071 0.127248 92.9839 0.0957476 92.9547 0.0699879C92.9255 0.0442282 92.8909 0.0248085 92.8533 0.0130309C92.8156 0.0012534 92.7758 -0.00260388 92.7365 0.00171692H91.1772C91.1125 -0.00321018 91.0474 0.00558592 90.9866 0.0275143C90.9258 0.0494427 90.8707 0.0839707 90.8252 0.12864C90.7031 0.281469 90.6083 0.45285 90.5446 0.635743L90.2027 1.36028H88.268C88.2091 1.35709 88.1502 1.36683 88.0957 1.38879C88.0413 1.41075 87.9927 1.44436 87.9537 1.48706C87.8713 1.59858 87.8243 1.73075 87.8183 1.86753L86.8134 11.0872C86.7881 11.2161 86.8064 11.3495 86.8658 11.4676C86.8978 11.5112 86.9411 11.5459 86.9915 11.5682C87.0418 11.5905 87.0974 11.5995 87.1526 11.5943H93.7082C93.8733 11.6306 93.972 11.7574 93.984 11.9929L93.9069 12.6993C93.8576 13.1522 93.7191 13.3876 93.5127 13.3876H93.4375L93.3336 12.7898C93.2858 12.5817 93.2266 12.3761 93.1564 12.174C93.11 12.0835 93.0032 12.0292 92.8135 12.0472H92.0247C91.9422 12.0361 91.8582 12.0472 91.7818 12.0792C91.7054 12.1111 91.6395 12.1627 91.5916 12.2284C91.5357 12.2999 91.4982 12.3831 91.4821 12.4712C91.466 12.5594 91.4716 12.65 91.4987 12.7356L91.7629 14.2752C91.7809 14.4724 91.8228 14.667 91.8877 14.8548C91.9132 14.9635 92.0387 15.0179 92.2078 15.0179H92.734L92.7201 15.1446C92.6787 15.362 92.6929 15.5859 92.7616 15.7968C92.7954 15.8626 92.8491 15.9169 92.9157 15.9525C92.9823 15.988 93.0585 16.0032 93.1343 15.9959H94.4116C94.686 16.0112 94.9563 15.9272 95.1699 15.7605C95.3745 15.5231 95.5039 15.2338 95.5426 14.9273L96.0125 10.6162C96.0568 10.3332 95.995 10.0442 95.8383 9.80117C95.6316 9.64506 95.3695 9.57349 95.1086 9.60187H89.4922L89.5376 9.18528H95.6425ZM90.2029 3.08102H93.584L93.5347 3.53388H90.1536L90.2029 3.08102ZM89.9936 5.00109H93.3748L93.3294 5.41768H89.9482L89.9936 5.00109Z" fill="#333333"/>
<path d="M86.1477 9.43889C86.2924 9.30283 86.4009 9.13508 86.464 8.94992L87.3465 0.853219C87.3264 0.674231 87.2537 0.504509 87.1369 0.364101C87.0766 0.29255 86.9998 0.235609 86.9126 0.197873C86.8253 0.160137 86.7302 0.142658 86.6347 0.146813H81.0745C80.9636 0.142066 80.8528 0.158852 80.7487 0.196178C80.6447 0.233504 80.5494 0.290608 80.4687 0.364101C80.3214 0.492317 80.2233 0.664621 80.19 0.853219L79.3076 8.94992C79.2962 9.12835 79.358 9.30394 79.4796 9.43889C79.5489 9.51424 79.6355 9.57307 79.7323 9.61079C79.8292 9.64852 79.9338 9.66411 80.038 9.65633H81.5973L80.9892 15.2352C80.9767 15.3266 80.9855 15.4196 81.015 15.5073C81.0444 15.595 81.0937 15.6754 81.1593 15.7424C81.2286 15.8178 81.3152 15.8766 81.412 15.9143C81.5089 15.952 81.6135 15.9675 81.7177 15.9597H82.5631C82.6651 15.9611 82.7664 15.9425 82.8608 15.9052C82.9553 15.8678 83.0409 15.8125 83.1126 15.7424C83.2618 15.6022 83.3714 15.4276 83.4311 15.2352L84.0392 9.65633H85.5982C85.7002 9.65762 85.8015 9.63902 85.896 9.60165C85.9904 9.56429 86.076 9.50894 86.1477 9.43889ZM82.0258 7.10238H81.5185L81.6173 6.19667H82.1245L82.0258 7.10238ZM82.4029 3.64256H81.8956L81.9944 2.737H82.5016L82.4029 3.64256ZM84.6554 7.10238H84.1672L84.2659 6.19667H84.7541L84.6554 7.10238ZM85.0325 3.64256H84.5443L84.643 2.737H85.1312L85.0325 3.64256Z" fill="#333333"/>
<path d="M89.2013 12.7898C89.1533 12.5817 89.0942 12.3761 89.0241 12.1739C88.9777 12.0834 88.8522 12.0292 88.6622 12.0472H86.5774C86.5094 12.0331 86.4388 12.0374 86.3733 12.0598C86.3078 12.0822 86.25 12.1217 86.2065 12.1739C86.0777 12.3666 85.9733 12.5734 85.8953 12.7898L85.2766 14.3296C85.2073 14.6194 85.2046 14.8185 85.2719 14.8911C85.3221 14.9374 85.3822 14.9727 85.4478 14.9946C85.5135 15.0165 85.5833 15.0244 85.6525 15.0178H86.5352C86.6019 15.0267 86.6698 15.0159 86.73 14.9868C86.7902 14.9577 86.8399 14.9117 86.8724 14.8548C86.9769 14.6682 87.0671 14.4745 87.1423 14.2752L87.479 13.4239L87.6116 14.2752C87.6742 14.565 87.7273 14.7643 87.7551 14.8548C87.7998 14.9635 87.9066 15.0178 88.0755 15.0178H88.9584C89.0289 15.0243 89.1 15.0163 89.1671 14.9945C89.2342 14.9726 89.2957 14.9374 89.3477 14.8911C89.4498 14.8185 89.4901 14.6194 89.4655 14.3296L89.2013 12.7898Z" fill="#333333"/>
<path d="M91.2675 12.7899C91.2195 12.5818 91.1604 12.3762 91.0903 12.174C91.0439 12.0835 90.937 12.0292 90.7473 12.0472H89.9582C89.8757 12.0343 89.791 12.0445 89.7143 12.0766C89.6375 12.1087 89.572 12.1614 89.5254 12.2284C89.4322 12.3813 89.3931 12.5594 89.4139 12.7356L89.6967 14.2752C89.7148 14.4724 89.7566 14.6669 89.8213 14.8548C89.847 14.9635 89.9538 15.0178 90.1417 15.0179H91.0057C91.0792 15.0258 91.1537 15.0185 91.2241 14.9967C91.2945 14.9748 91.3593 14.9389 91.4142 14.8911C91.516 14.8186 91.5563 14.6194 91.5317 14.3296L91.2675 12.7899Z" fill="#333333"/>
<path d="M57.4711 0.0651945H53.4078C53.3296 0.0603761 53.2512 0.0725085 53.1785 0.100721C53.1059 0.128934 53.0407 0.172503 52.9877 0.228216C52.8671 0.386294 52.7982 0.575489 52.7897 0.771583L51.2142 15.2261C51.1779 15.4107 51.2059 15.6018 51.2938 15.7695C51.3358 15.8291 51.3932 15.8771 51.4602 15.9089C51.5273 15.9406 51.6018 15.955 51.6763 15.9506H52.8689C52.9487 15.9523 53.028 15.937 53.1009 15.9057C53.1739 15.8743 53.2388 15.8278 53.2909 15.7695C53.4114 15.6114 53.4803 15.4222 53.4887 15.2261L53.7197 13.1069H56.0497C56.1346 13.1181 56.221 13.1073 56.3001 13.0754C56.3791 13.0435 56.4479 12.9918 56.4992 12.9257C56.6054 12.7694 56.6638 12.5873 56.6676 12.4005L57.3427 6.20555C57.3789 6.02663 57.3501 5.84116 57.2612 5.68031C57.2192 5.62076 57.1619 5.57275 57.0949 5.54099C57.0278 5.50923 56.9534 5.49481 56.8789 5.49914H56.4904L57.6602 2.52861C57.7455 2.32639 57.797 2.11238 57.8126 1.89458L57.935 0.771583C57.9714 0.586952 57.9434 0.395906 57.8554 0.228216C57.8116 0.171186 57.7531 0.126158 57.6857 0.0975703C57.6183 0.0689822 57.5444 0.0578277 57.4711 0.0651945ZM54.6695 9.86452C54.6438 10.1001 54.5487 10.2087 54.3685 10.2087H54.0356L54.233 8.39731H54.8294L54.6695 9.86452ZM54.6377 4.68411L54.8253 2.96335H55.3246L54.6377 4.68411Z" fill="#333333"/>
<path d="M52.2012 0.191963C52.1278 0.101304 51.9653 0.0651871 51.7157 0.0651871H46.4735C46.3055 0.0507049 46.1378 0.0957791 46.0019 0.191963C45.8659 0.357048 45.7901 0.56078 45.7863 0.771594L45.6304 2.20254C45.6145 2.2808 45.6155 2.36136 45.6332 2.43925C45.6509 2.51714 45.685 2.59071 45.7334 2.65539C45.8615 2.74634 46.0185 2.79119 46.1773 2.78217H47.2728L47.184 3.59722H46.0607C45.8937 3.58548 45.7287 3.63753 45.6012 3.74213C45.4744 3.94455 45.4061 4.17597 45.4033 4.41242L45.2749 5.58981C45.2367 5.7847 45.2581 5.9861 45.3366 6.16944C45.3823 6.23516 45.4464 6.28703 45.5215 6.31907C45.5965 6.3511 45.6795 6.36199 45.7606 6.35047H46.8839L46.797 7.14753H45.7015C45.6149 7.14171 45.528 7.15318 45.4462 7.18123C45.3643 7.20929 45.2894 7.25331 45.226 7.31055C45.0925 7.47696 45.017 7.67987 45.0104 7.89018L44.8703 9.17622C44.8251 9.37344 44.8568 9.57979 44.9595 9.75585C45.0188 9.80808 45.0887 9.84791 45.1648 9.87284C45.2408 9.89778 45.3214 9.9073 45.4014 9.90078H46.4276C46.3372 10.4128 46.1804 10.9118 45.9608 11.3861C45.7449 11.9298 45.3867 12.4102 44.9212 12.7808C44.6862 12.9275 44.4678 13.0975 44.2695 13.2881C44.1765 13.4093 44.1222 13.5541 44.1131 13.7046L43.9453 15.2442C43.9156 15.4063 43.9466 15.5732 44.0327 15.7152C44.1186 15.8236 44.2452 15.8951 44.3853 15.9144C45.2176 15.9144 46.095 15.2442 47.0177 13.9038C47.8086 12.6841 48.3344 11.3223 48.5633 9.90078H49.1597L48.7984 13.2155H48.3408C48.2543 13.2109 48.1677 13.223 48.0861 13.251C48.0044 13.279 47.9294 13.3223 47.8653 13.3785C47.7346 13.5455 47.6638 13.749 47.6635 13.9582L47.5253 15.2261C47.4773 15.4218 47.5041 15.6275 47.6007 15.8057C47.6608 15.8569 47.7308 15.8961 47.8066 15.9209C47.8825 15.9458 47.9628 15.9559 48.0427 15.9506H49.9842C50.1689 15.968 50.3534 15.9161 50.4994 15.8057C50.6064 15.6294 50.6662 15.4302 50.6734 15.2261L52.2488 0.771575C52.2875 0.577769 52.2711 0.377466 52.2012 0.191963ZM49.4598 7.14753H48.8911L48.978 6.35047H49.5466L49.4598 7.14753ZM49.8467 3.59722H49.2781L49.3669 2.78217H49.9356L49.8467 3.59722Z" fill="#333333"/>
<path d="M45.1435 2.2935C45.2001 2.01704 45.1596 1.73028 45.0285 1.47845C44.9487 1.39231 44.8485 1.32595 44.7365 1.28497C44.6245 1.244 44.5039 1.22962 44.385 1.24303H41.8538C41.7325 1.23884 41.6117 1.25924 41.4992 1.30292C41.3867 1.3466 41.2849 1.41258 41.2005 1.49658C41.0092 1.72896 40.9015 2.01504 40.8936 2.31164L39.8453 11.9299C39.7999 12.3465 39.841 12.6363 39.9872 12.7631C40.0706 12.8307 40.1671 12.8816 40.2712 12.9127C40.3752 12.9438 40.4847 12.9546 40.5931 12.9443H43.1243C43.2451 12.9567 43.3673 12.9455 43.4835 12.9112C43.5997 12.877 43.7075 12.8204 43.8005 12.745C43.9845 12.5239 44.0862 12.2497 44.0892 11.9662L45.1435 2.2935ZM42.3887 10.0824H41.9378L42.5874 4.12306H43.0382L42.3887 10.0824Z" fill="#333333"/>
</svg>
