<svg
  width="15"
  height="16"
  viewBox="0 0 15 16"
  fill="none"
  xmlns="http://www.w3.org/2000/svg"
>
<path
    d="M10.4167 9.66667H9.75833L9.525 9.44167C10.3417 8.49167 10.8333 7.25833 10.8333 5.91667C10.8333 2.925 8.40833 0.5 5.41667 0.5C2.425 0.5 0 2.925 0 5.91667C0 8.90833 2.425 11.3333 5.41667 11.3333C6.75833 11.3333 7.99167 10.8417 8.94167 10.025L9.16667 10.2583V10.9167L13.3333 15.075L14.575 13.8333L10.4167 9.66667ZM5.41667 9.66667C3.34167 9.66667 1.66667 7.99167 1.66667 5.91667C1.66667 3.84167 3.34167 2.16667 5.41667 2.16667C7.49167 2.16667 9.16667 3.84167 9.16667 5.91667C9.16667 7.99167 7.49167 9.66667 5.41667 9.66667Z"
    fill="#333333"
  />
</svg>
