<svg
  width="162"
  height="211"
  viewBox="0 0 162 211"
  fill="none"
  xmlns="http://www.w3.org/2000/svg"
>
<g clip-path="url(#clip0_35:146)">
<path
      d="M48.8615 93.3107C48.8615 93.3107 80.2863 62.4228 130.16 106.875L95.2822 138.467L48.8615 93.3107Z"
      fill="#3F3F3F"
    />
<path
      d="M22.1742 108.134C22.1742 108.134 97.201 83.457 159.908 95.5291C159.908 95.5291 181.351 197.537 53.5766 173.377C53.5766 173.377 -10.1955 171.028 22.1742 108.134Z"
      fill="#4D4D4D"
    />
<path
      d="M88.1841 183.629L79.3624 192.646C79.2096 192.802 79.0999 192.996 79.0439 193.207C78.988 193.418 78.9878 193.64 79.0432 193.852C79.0987 194.063 79.208 194.257 79.3604 194.413C79.5129 194.57 79.7032 194.684 79.9129 194.745L82.9222 195.616C83.1492 195.681 83.3901 195.682 83.6174 195.617C83.8446 195.552 84.0491 195.424 84.2075 195.248L92.6279 185.902C92.7767 185.737 92.8793 185.535 92.9254 185.317C92.9715 185.1 92.9594 184.874 92.8905 184.662C92.8215 184.451 92.698 184.261 92.5325 184.113C92.367 183.965 92.1654 183.863 91.948 183.818L89.3399 183.276C89.1332 183.233 88.9191 183.243 88.7171 183.305C88.5152 183.366 88.3319 183.478 88.1841 183.629Z"
      fill="#C1616A"
    />
<path
      d="M77.3784 189.395L90.0474 194.393L78.1551 208.499L59.0497 202.638C59.0497 202.638 59.7098 185.727 70.7834 198.444L77.3784 189.395Z"
      fill="#333333"
    />
<path
      d="M59.2556 205.976L75.7677 210.97C75.9166 211.015 76.0762 211.009 76.2219 210.955C76.3676 210.9 76.4914 210.799 76.5744 210.668L77.5113 209.18C77.5698 209.087 77.606 208.982 77.6173 208.873C77.6286 208.764 77.6146 208.654 77.5764 208.551C77.5382 208.448 77.4769 208.355 77.3971 208.28C77.3174 208.205 77.2214 208.15 77.1167 208.118L60.0852 202.932C59.993 202.904 59.896 202.895 59.8002 202.906C59.7044 202.916 59.6118 202.946 59.5279 202.994C59.444 203.042 59.3707 203.106 59.3124 203.183C59.2541 203.26 59.212 203.348 59.1887 203.442L58.7711 205.121C58.727 205.299 58.7526 205.486 58.8428 205.645C58.933 205.805 59.0809 205.923 59.2556 205.976Z"
      fill="#191919"
    />
<path
      d="M134.729 210.462L146.595 197.916C146.702 197.802 146.769 197.657 146.786 197.502C146.803 197.347 146.768 197.191 146.688 197.058L145.782 195.55C145.726 195.456 145.648 195.377 145.556 195.318C145.464 195.259 145.359 195.222 145.251 195.21C145.142 195.198 145.032 195.211 144.929 195.249C144.826 195.286 144.733 195.347 144.658 195.427L132.389 208.352C132.322 208.422 132.271 208.505 132.237 208.596C132.204 208.686 132.189 208.783 132.194 208.879C132.198 208.976 132.223 209.07 132.265 209.157C132.308 209.244 132.367 209.321 132.44 209.384L133.75 210.512C133.889 210.631 134.067 210.693 134.25 210.683C134.432 210.674 134.604 210.595 134.729 210.462Z"
      fill="#191919"
    />
<path
      d="M124.483 177.438L126.202 176.981C126.44 176.917 126.694 176.936 126.92 177.034C127.147 177.133 127.334 177.305 127.452 177.523L133.673 189.092C133.743 189.221 133.786 189.363 133.8 189.509C133.814 189.656 133.799 189.803 133.755 189.943C133.711 190.084 133.64 190.214 133.545 190.326C133.451 190.438 133.335 190.53 133.204 190.597L132.463 190.975C132.218 191.1 131.936 191.128 131.671 191.055C131.407 190.981 131.179 190.811 131.033 190.579L123.834 179.089C123.743 178.943 123.687 178.777 123.671 178.605C123.655 178.433 123.679 178.26 123.743 178.099C123.806 177.938 123.906 177.795 124.034 177.68C124.163 177.565 124.317 177.482 124.483 177.438Z"
      fill="#C1616A"
    />
<path
      d="M123.902 190.828L134.215 182.077L145.289 194.794L131.943 209.072C131.943 209.072 119.274 204.074 131.196 198.972L123.902 190.828Z"
      fill="#333333"
    />
<path
      d="M50.2657 51.7897C50.2657 51.7897 26.4357 73.3624 1.44397 52.5457C1.44397 52.5457 -2.50962 47.1678 2.6671 32.9095C2.6671 32.9095 1.27887 23.6234 9.686 14.9502C14.2825 10.2083 22.79 9.51243 29.5579 9.85584C32.6269 10.0151 35.6035 10.9624 38.2019 12.6068C40.8004 14.2513 42.9336 16.5376 44.3965 19.2463C48.3581 26.5509 52.62 36.3909 47.9098 38.0406C47.9098 38.0406 55.5177 40.0937 50.2657 51.7897Z"
      fill="#4D4D4D"
    />
<path
      d="M1.44398 52.5457L36.9966 51.0478C36.9966 51.0478 33.5324 75.597 60.8941 96.3313C88.2558 117.066 63.6714 127.015 63.6714 127.015L44.8879 132.255C44.8879 132.255 8.92508 102.763 1.44398 52.5457Z"
      fill="#4D4D4D"
    />
<path
      d="M45.4195 21.1567C42.956 21.2647 40.4922 20.9516 38.1336 20.2308C34.8611 19.0731 27.546 17.3366 23.696 20.0379C22.6016 20.7524 21.6969 21.7228 21.0598 22.8656C20.4227 24.0084 20.0722 25.2893 20.0385 26.598C20.0385 26.598 22.5712 36.0532 26.2287 37.2108C29.642 38.3558 33.2347 38.8686 36.8312 38.7244C40.4436 38.5607 39.5027 31.6501 49.1571 29.846C47.9951 26.9245 47.2073 23.8955 45.4195 21.1567Z"
      fill="#C13D46"
    />
<path
      d="M33.5682 28.0342C33.5682 28.314 33.4999 28.5895 33.3693 28.8368C33.2387 29.0841 33.0497 29.2956 32.8188 29.4529C32.5879 29.6101 32.3222 29.7084 32.0447 29.7391C31.7672 29.7698 31.4865 29.732 31.2269 29.6289C30.9674 29.5259 30.7369 29.3609 30.5556 29.1481C30.3744 28.9353 30.2478 28.6812 30.1869 28.4081C30.1261 28.135 30.1328 27.8512 30.2065 27.5814C30.2802 27.3115 30.4187 27.0638 30.6099 26.8599C31.3925 26.526 32.2744 26.5122 33.067 26.8214C33.2261 26.9805 33.3523 27.1696 33.4383 27.3777C33.5244 27.5858 33.5685 27.8089 33.5682 28.0342Z"
      fill="#333333"
    />
<path
      d="M29.5579 9.8559C29.5579 9.8559 44.827 2.54006 53.5742 7.37728C62.3215 12.2145 33.6668 19.1679 33.6668 19.1679L29.5579 9.8559Z"
      fill="white"
    />
<path
      d="M5.01207 20.3772C5.01207 20.3772 20.0935 26.1214 42.7156 16.447C42.7156 16.447 44.2237 6.16797 33.0635 1.63307C21.9032 -2.90183 11.9495 3.44702 11.9495 3.44702C11.9495 3.44702 2.29741 5.86554 5.01207 20.3772Z"
      fill="white"
    />
<path
      d="M50.1252 32.776L45.4071 32.8084C45.4071 32.8084 43.3911 29.9119 41.032 29.9281C39.0255 30.0865 37.0467 30.4973 35.1425 31.1509C35.1425 31.1509 33.0812 34.8939 31.269 35.2701C29.4568 35.6464 24.9102 34.2224 24.4733 36.681C24.0365 39.1396 38.7279 64.5039 53.5845 60.9458C68.441 57.3877 66.4411 56.8557 66.6741 51.1244C66.9071 45.3931 50.1252 32.776 50.1252 32.776Z"
      fill="#C1616A"
    />
<path
      opacity="0.3"
      d="M48.9199 37.2853L50.8485 38.8318"
      stroke="#4D4D4D"
      stroke-width="0.75"
      stroke-miterlimit="10"
    />
<path
      opacity="0.3"
      d="M36.1914 37.6719V40.7648"
      stroke="#4D4D4D"
      stroke-width="0.75"
      stroke-miterlimit="10"
    />
<path
      d="M150.491 97.5889C157.359 96.5021 158.805 80.9239 158.805 80.9239L160.973 101.212L150.491 97.5889Z"
      fill="#4D4D4D"
    />
<path
      d="M154.584 97.7205C159.39 97.5391 162 85.8241 162 85.8241L161.369 101.461L154.584 97.7205Z"
      fill="#4D4D4D"
    />
</g>
<defs>
<clipPath id="clip0_35:146">
<rect width="162" height="211" fill="white" />
</clipPath>
</defs>
</svg>
