<svg width="257" height="46" viewBox="0 0 257 46" fill="none" xmlns="http://www.w3.org/2000/svg">
<path d="M5.91504 16.2549C8.72754 16.2549 10.6523 14.6992 10.6523 12.4668V12.4492C10.6523 10.6914 9.41309 9.58398 7.5498 9.4082V9.36426C9.07031 9.04785 10.2041 8.00195 10.2041 6.42871V6.41113C10.2041 4.4248 8.50781 3.0625 5.89746 3.0625C3.33984 3.0625 1.6084 4.50391 1.41504 6.70117L1.40625 6.79785H3.51562L3.52441 6.70996C3.63867 5.57617 4.56152 4.86426 5.89746 4.86426C7.25098 4.86426 8.0332 5.5498 8.0332 6.70996V6.72754C8.0332 7.83496 7.10156 8.62598 5.7041 8.62598H4.25391V10.3135H5.74805C7.37402 10.3135 8.3584 11.0518 8.3584 12.3877V12.4053C8.3584 13.583 7.38281 14.4004 5.91504 14.4004C4.42969 14.4004 3.43652 13.6357 3.31348 12.5635L3.30469 12.4668H1.14258L1.15137 12.5723C1.31836 14.7432 3.1377 16.2549 5.91504 16.2549ZM17.8945 16.3164C20.6455 16.3164 22.6055 14.4355 22.6055 11.8604V11.8428C22.6055 9.43457 20.9004 7.65918 18.4658 7.65918C16.7256 7.65918 15.6182 8.54688 15.1523 9.54883H14.9766C14.9766 9.45215 14.9854 9.35547 14.9854 9.25879C15.082 6.83301 15.9346 4.86426 17.9473 4.86426C19.0635 4.86426 19.8457 5.44434 20.1797 6.33203L20.2148 6.41992H22.4385L22.4209 6.32324C22.0166 4.38086 20.2764 3.00098 17.9473 3.00098C14.7568 3.00098 12.832 5.53223 12.832 9.80371V9.82129C12.832 14.3916 15.1875 16.3164 17.8945 16.3164ZM15.3721 11.8867V11.8691C15.3721 10.4365 16.4707 9.39941 17.9033 9.39941C19.3447 9.39941 20.3906 10.4541 20.3906 11.9219V11.9395C20.3906 13.3545 19.2832 14.4707 17.877 14.4707C16.4707 14.4707 15.3721 13.3369 15.3721 11.8867ZM29.7949 16.2549C32.7129 16.2549 34.7432 14.7432 34.7432 12.5723V12.5547C34.7432 10.9287 33.5654 9.67188 31.8691 9.3291V9.27637C33.3193 8.88965 34.2861 7.82617 34.2861 6.46387V6.44629C34.2861 4.49512 32.4229 3.0625 29.7949 3.0625C27.167 3.0625 25.3037 4.49512 25.3037 6.44629V6.46387C25.3037 7.82617 26.2705 8.88965 27.7207 9.27637V9.3291C26.0332 9.67188 24.8467 10.9287 24.8467 12.5547V12.5723C24.8467 14.7432 26.877 16.2549 29.7949 16.2549ZM29.7949 8.55566C28.4678 8.55566 27.5449 7.78223 27.5449 6.6748V6.65723C27.5449 5.5498 28.4678 4.77637 29.7949 4.77637C31.1221 4.77637 32.0449 5.5498 32.0449 6.65723V6.6748C32.0449 7.78223 31.1221 8.55566 29.7949 8.55566ZM29.7949 14.5234C28.2744 14.5234 27.1934 13.6445 27.1934 12.4229V12.4053C27.1934 11.1748 28.2568 10.2871 29.7949 10.2871C31.3242 10.2871 32.3965 11.1748 32.3965 12.4053V12.4229C32.3965 13.6445 31.3154 14.5234 29.7949 14.5234ZM39.7654 0.789999C38.9554 3.382 37.5874 5.956 36.0934 7.594C36.4174 8.134 36.9394 9.394 37.1014 9.916C37.5154 9.448 37.9114 8.926 38.3074 8.368V17.584H40.3414V4.822C40.8814 3.688 41.3494 2.536 41.7454 1.402L39.7654 0.789999ZM48.2434 12.202H46.4074V10.312H48.2434V12.202ZM50.2954 7.288V5.74H48.1174V3.904H46.4614V5.74H44.3914V7.288H46.4614V8.836H44.8594V13.66H49.8454V8.836H48.1174V7.288H50.2954ZM43.9414 14.65V3.526H50.7094V14.65H43.9414ZM41.9974 1.672V17.548H43.9414V16.504H50.7094V17.386H52.7434V1.672H41.9974ZM58.5574 8.44C58.4854 8.944 58.4134 9.412 58.3234 9.862L57.0994 10.006C58.2154 8.476 59.3314 6.64 60.2134 4.786V8.638L58.5574 8.44ZM63.5614 4.372V5.956H62.0494V4.372H63.5614ZM62.0494 9.142V7.648H63.5614V9.142H62.0494ZM62.5714 11.986C62.8054 12.598 63.0214 13.282 63.2374 13.948L62.0494 14.308V10.942H65.2714V2.572H64.0114C63.7594 1.996 63.3634 1.312 62.9674 0.753999L61.2574 1.366C61.4914 1.708 61.7434 2.14 61.9414 2.572H60.2134V4.75L58.4854 4.066C58.2874 4.552 58.0534 5.074 57.8194 5.578L56.8654 5.65C57.5674 4.426 58.3234 2.896 58.8094 1.438L56.8294 0.987999C56.4334 2.716 55.6054 4.552 55.3354 5.02C55.0654 5.488 54.7954 5.83 54.5074 5.92C54.7234 6.406 55.0114 7.27 55.1194 7.666C55.3714 7.54 55.7494 7.432 56.9374 7.288C56.3974 8.26 55.8934 9.016 55.6594 9.322C55.2094 9.952 54.8494 10.366 54.4534 10.456C54.6694 10.906 54.9574 11.77 55.0474 12.112C55.3534 11.986 55.8034 11.86 57.8554 11.572C57.1894 13.48 56.0914 14.938 54.4354 15.91C54.7774 16.234 55.3174 16.99 55.4974 17.35C58.1974 15.604 59.6014 12.796 60.2134 8.872V14.272C60.2134 15.01 59.7454 15.352 59.4034 15.514C59.6554 15.856 59.9794 16.558 60.0694 16.972C60.4114 16.72 60.9514 16.522 63.7054 15.604C63.8134 16.018 63.9034 16.414 63.9574 16.756L65.7034 16.09C65.4874 14.902 64.8214 12.94 64.2634 11.446L62.5714 11.986ZM69.9154 1.564L69.6274 1.636H65.8114V17.548H67.5754V3.49H69.0154C68.6914 4.858 68.2594 6.712 67.8634 8.026C68.9254 9.484 69.1594 10.78 69.1774 11.77C69.1774 12.382 69.0694 12.85 68.8534 13.03C68.7094 13.138 68.5294 13.192 68.3674 13.192C68.1334 13.192 67.8814 13.192 67.5754 13.174C67.8454 13.714 67.9894 14.542 68.0074 15.064C68.4034 15.082 68.8174 15.082 69.1234 15.028C69.5374 14.974 69.8974 14.83 70.1674 14.596C70.7074 14.164 70.9774 13.3 70.9774 12.04C70.9774 10.852 70.7254 9.43 69.6094 7.828C70.1134 6.298 70.7614 4.156 71.2654 2.41L69.9154 1.564ZM79.5814 14.146H81.6334C81.1474 14.65 80.4634 15.1 79.7074 15.496L79.5814 14.146ZM74.6314 5.218C75.3514 4.372 75.9274 3.526 76.3774 2.752C77.1334 3.472 77.9614 4.48 78.4474 5.218H74.6314ZM86.2954 6.658H82.3894V5.938H86.2954V6.658ZM86.2954 8.566H82.3894V7.828H86.2954V8.566ZM86.2954 10.492H82.3894V9.736H86.2954V10.492ZM89.3014 14.146V12.436H79.5094V14.056L77.1514 14.488V10.114H79.4374V8.314H77.1514V7H79.0774V5.218H78.8434L79.9594 3.868H83.3434V4.696H80.5174V11.716H88.2574V4.696H85.3774V3.868H89.0134V2.176H85.3774V0.753999H83.3434V2.176H79.7434V3.49C79.0594 2.608 77.9074 1.528 76.9714 0.772H75.2074C74.6494 2.158 73.6054 3.85 72.0934 5.128C72.5074 5.398 73.1014 6.1 73.3714 6.514C73.4794 6.406 73.6054 6.298 73.7134 6.19V7H75.2974V8.314H72.8854V10.114H75.2974V14.812C74.3074 14.974 73.4074 15.118 72.6514 15.226L73.0474 17.17C74.5954 16.882 76.5214 16.486 78.4294 16.072L78.3574 16.108C78.8074 16.468 79.5274 17.224 79.8514 17.62C81.2194 16.954 82.7674 15.856 83.7034 14.722L82.1014 14.146H86.1334L84.8014 14.83C85.8274 15.64 87.1054 16.828 87.6994 17.584L89.5174 16.45C88.9414 15.802 87.8794 14.884 86.9074 14.146H89.3014ZM73.0294 11.14C73.2994 12.13 73.5514 13.426 73.5874 14.29L75.0274 13.894C74.9374 13.066 74.6854 11.788 74.3974 10.798L73.0294 11.14ZM78.6454 13.93C78.9154 13.192 79.2034 12.04 79.5274 11.032L77.9794 10.654C77.8714 11.5 77.5834 12.778 77.3494 13.57L78.6454 13.93ZM107.103 5.11V3.022H99.9574V0.682H97.6714V3.022H90.6874V5.11H97.6894V7H92.3794V15.406H94.5394V9.088H97.6894V17.584H99.9214V9.088H103.359V13.048C103.359 13.246 103.269 13.336 102.981 13.336C102.693 13.336 101.631 13.336 100.731 13.3C101.037 13.876 101.361 14.794 101.451 15.406C102.855 15.406 103.881 15.37 104.637 15.046C105.375 14.722 105.591 14.11 105.591 13.084V7H99.9214V5.11H107.103ZM125.139 14.92H111.459V3.256H124.671V1.366H109.371V17.566H111.459V16.846H125.139V14.92ZM119.325 6.982H116.373V5.506H119.325V6.982ZM121.431 4.102H114.375V8.386H121.431V4.102ZM114.267 10.618H115.671V12.58H114.267V10.618ZM112.539 14.02H117.507V9.178H112.539V14.02ZM121.521 12.58H120.063V10.618H121.521V12.58ZM123.375 9.178H118.299V14.02H123.375V9.178ZM131.864 11.284C131.72 12.796 131.468 14.398 130.946 15.46C131.36 15.604 132.098 15.964 132.44 16.18C132.962 15.028 133.358 13.264 133.502 11.554L131.864 11.284ZM134.348 8.422C134.672 8.008 134.978 7.558 135.302 7.09C135.5 7.468 135.68 7.9 135.842 8.332L134.348 8.422ZM136.418 10.06C136.526 10.438 136.598 10.78 136.652 11.086L138.146 10.438C137.966 9.394 137.354 7.774 136.706 6.514L135.302 7.09C136.094 5.956 136.868 4.75 137.534 3.652L135.842 2.878C135.428 3.76 134.888 4.804 134.294 5.812C134.132 5.578 133.934 5.326 133.718 5.074C134.348 4.066 135.086 2.644 135.734 1.402L133.916 0.772C133.628 1.69 133.124 2.914 132.62 3.904C132.476 3.76 132.332 3.616 132.188 3.49L131.162 4.876C131.9 5.65 132.782 6.658 133.25 7.486C133.016 7.846 132.764 8.206 132.53 8.53C132.008 8.548 131.54 8.584 131.108 8.602L131.324 10.456L133.7 10.276V17.566H135.5V10.132L136.418 10.06ZM135.59 11.626C135.986 12.688 136.346 14.038 136.418 14.938L137.912 14.452C137.804 13.552 137.444 12.238 136.994 11.212L135.59 11.626ZM138.668 17.044C139.604 16.108 139.946 14.56 140.162 13.012L138.506 12.616C138.344 14.02 137.93 15.37 137.12 16.216L138.668 17.044ZM139.838 3.976H142.214C142.052 4.426 141.818 4.894 141.494 5.362C141.26 5.236 141.026 5.128 140.81 5.02L139.892 5.902C140.162 6.028 140.432 6.154 140.72 6.298C140.468 6.568 140.18 6.802 139.874 7.036C140.18 7.198 140.612 7.594 140.828 7.882C141.206 7.594 141.548 7.27 141.854 6.928C142.106 7.09 142.358 7.234 142.592 7.396C142.034 7.918 141.386 8.332 140.702 8.602C140.9 8.764 141.116 9.034 141.296 9.286H139.838V3.976ZM143.888 5.668C143.744 5.938 143.6 6.19 143.42 6.442C143.15 6.28 142.88 6.118 142.592 5.956C142.664 5.866 142.718 5.758 142.772 5.668H143.888ZM145.724 9.286H142.178C142.718 8.98 143.222 8.602 143.672 8.152C144.032 8.404 144.356 8.674 144.608 8.908L145.562 7.9C145.274 7.666 144.914 7.414 144.518 7.144C144.95 6.496 145.31 5.776 145.562 4.93L144.68 4.588L144.446 4.642H143.294C143.384 4.462 143.456 4.264 143.528 4.084L142.754 3.976H145.724V9.286ZM142.61 15.766C142.25 15.766 142.196 15.712 142.196 15.28V12.508C142.7 12.886 143.132 13.264 143.42 13.57L144.752 12.418C144.302 11.914 143.492 11.338 142.682 10.852H147.488V2.428H143.708C143.942 1.996 144.158 1.51 144.374 1.024L142.016 0.717999C141.926 1.222 141.764 1.852 141.566 2.428H138.164V10.852H141.35L140.612 11.464C141.098 11.734 141.62 12.076 142.106 12.436H140.396V15.28C140.396 16.918 140.72 17.458 142.34 17.458H143.87C145.022 17.458 145.526 16.99 145.724 15.136C145.22 15.028 144.446 14.74 144.104 14.452C144.068 15.604 143.978 15.766 143.654 15.766H142.61ZM144.824 13.066C145.652 14.254 146.39 15.91 146.642 16.99L148.28 16.198C147.992 15.082 147.218 13.498 146.354 12.328L144.824 13.066ZM161.564 9.376H155.066V8.224H161.564V9.376ZM155.066 12.328V11.158H161.564V12.328H155.066ZM165.668 4.93V2.914H156.884C157.1 2.356 157.28 1.798 157.46 1.24L155.246 0.735999C155.066 1.456 154.832 2.176 154.544 2.914H149.702V4.93H153.644C152.564 7.018 151.07 8.908 149.162 10.186C149.576 10.582 150.26 11.356 150.566 11.824C151.448 11.23 152.222 10.51 152.942 9.718V17.548H155.066V14.11H161.564V15.19C161.564 15.442 161.456 15.532 161.15 15.55C160.844 15.55 159.8 15.55 158.882 15.496C159.152 16.072 159.44 16.972 159.53 17.566C160.988 17.566 162.014 17.548 162.716 17.206C163.454 16.882 163.652 16.306 163.652 15.244V6.352H155.318C155.588 5.884 155.822 5.416 156.038 4.93H165.668ZM167.396 7.828V10.15H183.956V7.828H167.396ZM188.564 0.789999C187.754 3.382 186.386 5.956 184.892 7.594C185.216 8.134 185.738 9.394 185.9 9.916C186.314 9.448 186.71 8.926 187.106 8.368V17.584H189.14V4.822C189.68 3.688 190.148 2.536 190.544 1.402L188.564 0.789999ZM197.042 12.202H195.206V10.312H197.042V12.202ZM199.094 7.288V5.74H196.916V3.904H195.26V5.74H193.19V7.288H195.26V8.836H193.658V13.66H198.644V8.836H196.916V7.288H199.094ZM192.74 14.65V3.526H199.508V14.65H192.74ZM190.796 1.672V17.548H192.74V16.504H199.508V17.386H201.542V1.672H190.796ZM206.96 0.825999C206.06 3.382 204.494 5.938 202.874 7.558C203.234 8.08 203.828 9.25 204.026 9.79C204.422 9.358 204.836 8.872 205.232 8.332V17.53H207.284V5.146C207.95 3.958 208.526 2.698 208.994 1.456L206.96 0.825999ZM210.29 8.764C209.876 10.762 209.12 12.796 208.094 14.056C208.616 14.326 209.516 14.866 209.93 15.208C210.938 13.75 211.856 11.482 212.378 9.196L210.29 8.764ZM217.778 5.956C217.688 6.748 217.58 7.504 217.49 8.062L219.308 8.368C219.56 7.324 219.866 5.65 220.082 4.192L218.57 3.904L218.228 3.976H212.036C212.36 3.094 212.648 2.212 212.882 1.294L210.794 0.825999C210.182 3.292 209.102 5.776 207.734 7.306C208.22 7.63 209.084 8.332 209.462 8.71C210.056 7.954 210.65 7 211.154 5.956H213.242V15.136C213.242 15.37 213.152 15.442 212.918 15.442C212.666 15.442 211.91 15.442 211.154 15.424C211.478 16 211.802 16.954 211.892 17.584C213.044 17.584 213.908 17.494 214.538 17.152C215.186 16.792 215.366 16.198 215.366 15.172V5.956H217.778ZM216.014 9.232C216.878 11.086 217.634 13.552 217.832 15.154L219.884 14.452C219.632 12.832 218.858 10.438 217.922 8.584L216.014 9.232ZM223.97 13.822V10.294H226.832V13.822H223.97ZM226.832 8.44H223.97V5.524H226.832V8.44ZM232.556 3.526C232.826 2.77 233.06 2.014 233.258 1.24L231.206 0.772C230.684 2.878 229.82 5.056 228.776 6.568V3.652H225.986C226.292 2.878 226.616 1.978 226.922 1.078L224.582 0.753999C224.51 1.6 224.294 2.752 224.06 3.652H222.026V17.026H223.97V15.712H228.776V7.306C229.262 7.63 229.874 8.044 230.162 8.314C230.72 7.54 231.278 6.55 231.746 5.47H235.598C235.4 11.824 235.166 14.524 234.644 15.1C234.41 15.334 234.212 15.406 233.852 15.406C233.384 15.406 232.322 15.406 231.17 15.298C231.548 15.892 231.836 16.792 231.872 17.386C232.934 17.422 234.014 17.44 234.698 17.35C235.418 17.224 235.922 17.026 236.426 16.36C237.164 15.406 237.362 12.544 237.596 4.498C237.614 4.246 237.614 3.526 237.614 3.526H232.556ZM234.626 11.734C234.068 10.69 232.88 8.98 231.98 7.738L230.306 8.692C231.188 10.006 232.304 11.77 232.808 12.85L234.626 11.734ZM243.608 4.786H245.786V3.706H249.566V4.552H251.618C248.486 5.038 244.058 5.308 240.134 5.362C240.314 5.83 240.566 6.676 240.602 7.198C245.3 7.162 250.898 6.838 254.84 5.938L253.148 4.282C252.716 4.372 252.266 4.462 251.762 4.534V3.706H255.686V1.834H251.762V0.772H249.566V1.834H245.786V0.772H243.608V1.834H239.684V3.706H243.608V4.786ZM252.608 10.618C253.256 9.808 254.102 8.548 254.858 7.378L252.662 6.586C252.284 7.63 251.51 9.016 250.898 9.916L252.608 10.618ZM244.238 9.898C244.004 9.142 243.32 8.098 242.69 7.324L240.908 8.044C241.502 8.836 242.132 9.934 242.33 10.654L244.238 9.898ZM255.686 12.94V11.068H248.756V9.862H247.172L248.81 9.322C248.684 8.656 248.234 7.738 247.784 7.018L245.912 7.63C246.326 8.332 246.704 9.232 246.812 9.862H246.524V11.068H239.684V12.94H244.688C243.194 13.966 241.124 14.83 239.144 15.316C239.612 15.766 240.278 16.63 240.602 17.188C242.708 16.522 244.868 15.334 246.524 13.858V17.566H248.756V13.84C250.34 15.334 252.482 16.522 254.624 17.152C254.948 16.594 255.596 15.712 256.082 15.28C253.994 14.848 251.87 14.002 250.376 12.94H255.686ZM13.095 32.15H6.03V32.945H13.095V32.15ZM14.325 33.95H4.665V34.76H14.325V33.95ZM5.82 38.3H13.26V37.505H5.82V38.3ZM13.26 35.735H5.82V36.53H13.26V35.735ZM6.78 40.1H12.27V41.885H6.78V40.1ZM5.775 42.695H13.32V39.29H5.775V42.695ZM4.605 33.425C4.11 32.84 3.015 32.105 2.13 31.64L1.395 32.33C2.295 32.825 3.345 33.605 3.825 34.19L4.605 33.425ZM4.17 36.35C3.6 35.78 2.475 35.06 1.545 34.64L0.81 35.36C1.755 35.825 2.865 36.575 3.405 37.145L4.17 36.35ZM3.795 38.375H0.75V39.41H2.715V42.2C2.01 42.83 1.215 43.46 0.555 43.91L1.14 45.005C1.905 44.36 2.64 43.73 3.315 43.085C4.26 44.24 5.625 44.78 7.59 44.87C9.255 44.915 12.39 44.885 14.04 44.825C14.1 44.48 14.265 43.97 14.415 43.715C12.63 43.835 9.225 43.865 7.575 43.82C5.835 43.745 4.515 43.235 3.795 42.125V38.375ZM19.635 34.655C19.05 33.995 17.835 33.08 16.89 32.45L16.095 33.245C17.055 33.92 18.24 34.895 18.795 35.54L19.635 34.655ZM19.11 38.57C17.835 39.89 16.485 41.27 15.615 42.08L16.335 42.995C17.355 42.035 18.6 40.73 19.71 39.53L19.11 38.57ZM24.72 35.24H27.81C27.51 36.23 27.03 37.34 26.655 38.03C26.925 38.135 27.345 38.375 27.585 38.48C28.14 37.49 28.83 35.96 29.235 34.52L28.425 34.07L28.2 34.13H22.155C22.425 33.35 22.65 32.54 22.86 31.7L21.69 31.49C21.18 33.875 20.265 36.185 19.005 37.655C19.305 37.79 19.845 38.105 20.07 38.285C20.685 37.46 21.255 36.41 21.735 35.24H23.565V37.13C23.565 38.525 22.785 42.44 18.24 44.24C18.45 44.435 18.795 44.9 18.93 45.14C22.515 43.625 23.88 40.625 24.135 39.215C24.345 40.61 25.635 43.7 28.755 45.14C28.935 44.87 29.28 44.405 29.475 44.15C25.425 42.395 24.705 38.435 24.72 37.13V35.24ZM42.435 34.55H38.715V33.155H42.435V34.55ZM42.435 36.815H38.715V35.42H42.435V36.815ZM42.435 39.11H38.715V37.685H42.435V39.11ZM43.5 32.24H37.68V40.025H43.5V32.24ZM36.225 40.475C36.915 41.15 37.83 42.11 38.265 42.68L39.075 42.02C38.625 41.465 37.695 40.535 37.005 39.905L36.225 40.475ZM31.725 44.36C32.325 43.535 32.805 42.2 33.135 41.195L32.16 40.82C31.86 41.795 31.35 43.07 30.75 43.865L31.725 44.36ZM34.665 40.175V36.53C35.325 37.085 36.165 37.82 36.555 38.195L37.155 37.295C36.765 36.995 35.235 35.855 34.665 35.495V34.655H37.035V33.68H34.665V31.49H33.6V33.68H30.87V34.655H33.405C32.745 36.185 31.635 37.73 30.54 38.51C30.765 38.69 31.08 39.035 31.26 39.29C32.1 38.6 32.94 37.46 33.6 36.23V40.175H34.665ZM36.39 43.82C35.52 43.82 35.37 43.745 35.37 43.355V40.985H34.275V43.37C34.275 44.525 34.695 44.825 36.315 44.825H39.42C40.77 44.825 41.115 44.375 41.265 42.5C40.95 42.44 40.5 42.275 40.245 42.08C40.185 43.61 40.065 43.82 39.345 43.82H36.39ZM41.475 40.955C42.075 41.945 42.855 43.25 43.2 44.03L44.235 43.52C43.86 42.755 43.05 41.465 42.435 40.52L41.475 40.955ZM59.22 38.735V37.64H53.04V34.805H58.11V33.71H53.04V31.445H51.885V33.71H46.995V34.805H51.885V37.64H45.84V38.735H50.535C50.01 40.16 49.185 41.99 48.465 43.28C47.7 43.31 46.995 43.34 46.365 43.355L46.53 44.525C49.245 44.39 53.355 44.21 57.255 43.985C57.54 44.45 57.795 44.885 57.975 45.26L59.07 44.675C58.395 43.37 56.94 41.405 55.605 39.95L54.57 40.445C55.215 41.18 55.92 42.05 56.52 42.92C54.195 43.04 51.81 43.145 49.725 43.235C50.475 41.915 51.3 40.19 51.945 38.735H59.22ZM63.51 33.5V40.37H62.025V33.5H63.51ZM64.425 41.36V32.495H61.125V42.59H62.025V41.36H64.425ZM66.99 39.26C67.095 38.33 67.125 37.445 67.125 36.665H68.37C68.355 37.655 68.355 38.51 68.34 39.26H66.99ZM67.125 33.155H68.385L68.37 35.705H67.125V33.155ZM69.795 36.665V35.705H69.3L69.315 32.75V32.18H64.89V33.155H66.195V35.705H65.07V36.665H66.195C66.195 37.46 66.165 38.345 66.06 39.26H64.95V40.235H65.925C65.64 41.735 65.085 43.235 64.02 44.48C64.215 44.615 64.575 44.975 64.695 45.17C65.91 43.775 66.54 41.99 66.84 40.235H68.325C68.28 42.575 68.19 43.565 68.04 43.85C67.92 44.105 67.83 44.15 67.635 44.135C67.38 44.135 66.915 44.135 66.39 44.105C66.54 44.375 66.63 44.81 66.645 45.095C67.17 45.125 67.68 45.125 68.04 45.065C68.43 45.02 68.67 44.915 68.895 44.495C69.135 44.105 69.225 42.965 69.27 40.235H69.81V39.26H69.285C69.285 38.495 69.3 37.64 69.3 36.665H69.795ZM73.53 32.135L73.38 32.18H70.305V45.14H71.265V33.125H73.035C72.75 34.31 72.3 35.99 71.88 37.28C72.9 38.615 73.11 39.785 73.11 40.7C73.11 41.255 73.05 41.75 72.855 41.93C72.72 42.035 72.57 42.065 72.39 42.065C72.21 42.08 71.94 42.08 71.655 42.05C71.805 42.335 71.88 42.755 71.895 43.01C72.195 43.04 72.51 43.025 72.765 42.995C73.05 42.95 73.32 42.875 73.5 42.725C73.905 42.41 74.055 41.705 74.055 40.835C74.04 39.785 73.815 38.57 72.78 37.175C73.26 35.81 73.8 33.965 74.22 32.54L73.53 32.135ZM81.06 40.325C80.91 40.13 80.505 39.65 80.085 39.155C80.475 38.705 80.925 38.105 81.33 37.55L80.655 37.04C80.4 37.49 79.98 38.12 79.605 38.6C79.395 38.36 79.2 38.135 79.035 37.955C79.725 36.905 80.325 35.765 80.73 34.58L80.145 34.19L79.935 34.235H78.855V31.535H77.79V34.235H75.855V35.255H79.44C78.555 37.295 76.95 39.305 75.45 40.445C75.615 40.625 75.9 41.135 76.02 41.405C76.62 40.91 77.235 40.295 77.835 39.575V45.14H78.9V39.035C79.455 39.74 80.115 40.625 80.4 41.09L81.06 40.325ZM82.47 37.685V35.9H84.57V37.685H82.47ZM82.47 33.2H84.57V34.97H82.47V33.2ZM87.75 34.97H85.635V33.2H87.75V34.97ZM87.75 37.685H85.635V35.9H87.75V37.685ZM85.635 43.655V41.42H88.89V40.415H85.635V38.675H88.8V32.21H81.435V38.675H84.57V40.415H81.36V41.42H84.57V43.655H80.475V44.69H89.37V43.655H85.635ZM91.995 39.065V36.71H93.3V39.065H91.995ZM93.3 33.425V35.75H91.995V33.425H93.3ZM95.595 35.75H94.245V33.425H95.595V35.75ZM94.245 39.065V36.71H95.595V39.065H94.245ZM95.595 40.025V40.67H96.48V32.48H91.14V40.865H91.995V40.025H93.3V45.14H94.245V40.025H95.595ZM96.225 44.675C96.945 43.91 97.335 42.65 97.575 41.525L96.72 41.255C96.51 42.305 96.075 43.505 95.4 44.21L96.225 44.675ZM98.1 41.72C98.31 42.53 98.49 43.565 98.505 44.24L99.3 44.105C99.27 43.43 99.09 42.395 98.85 41.585L98.1 41.72ZM99.645 41.555C99.99 42.23 100.305 43.13 100.44 43.7L101.175 43.475C101.025 42.89 100.695 42.035 100.32 41.36L99.645 41.555ZM102.825 42.59C102.63 42.155 102.18 41.495 101.745 41L101.145 41.3C101.535 41.795 101.97 42.485 102.165 42.92L102.825 42.59ZM102.195 33.56V34.58H98.25V33.56H102.195ZM98.25 36.38V35.345H102.195V36.38H98.25ZM104.4 38.915V38.06H98.25V37.19H103.2V32.765H100.41C100.59 32.435 100.77 32.045 100.95 31.655L99.75 31.445C99.66 31.82 99.48 32.33 99.315 32.765H97.23V40.64H103.08C102.93 42.965 102.75 43.865 102.495 44.12C102.375 44.24 102.255 44.27 102 44.27C101.775 44.27 101.145 44.255 100.485 44.195C100.62 44.435 100.725 44.825 100.74 45.095C101.445 45.14 102.12 45.14 102.465 45.125C102.855 45.08 103.11 44.99 103.35 44.735C103.74 44.315 103.92 43.19 104.115 40.235C104.145 40.085 104.16 39.8 104.16 39.8H98.25V38.915H104.4ZM111.675 40.37H112.905C112.5 38.12 116.085 37.655 116.085 35.39C116.085 33.665 114.735 32.585 112.62 32.585C110.985 32.585 109.815 33.275 108.825 34.325L109.635 35.075C110.505 34.16 111.45 33.71 112.47 33.71C114 33.71 114.75 34.46 114.75 35.495C114.75 37.205 111.21 37.88 111.675 40.37ZM112.32 44.075C112.845 44.075 113.28 43.685 113.28 43.085C113.28 42.485 112.845 42.08 112.32 42.08C111.78 42.08 111.345 42.485 111.345 43.085C111.345 43.685 111.78 44.075 112.32 44.075Z" fill="white"/>
</svg>
